Playpen-Th18LongSlow.ufo
<glyph name="exclam" format="2">
	<unicode hex="0021"/>
	<advance width="462"/>
	<outline>
		<contour>
			<point x="223" y="173" type="curve" smooth="yes"/>
			<point x="234" y="173"/>
			<point x="238" y="177"/>
			<point x="241" y="185" type="curve" smooth="yes"/>
			<point x="575" y="1200" type="line" smooth="yes"/>
			<point x="578" y="1208"/>
			<point x="573" y="1212"/>
			<point x="563" y="1212" type="curve" smooth="yes"/>
			<point x="552" y="1212"/>
			<point x="548" y="1210"/>
			<point x="545" y="1200" type="curve" smooth="yes"/>
			<point x="211" y="185" type="line" smooth="yes"/>
			<point x="208" y="177"/>
			<point x="212" y="173"/>
		</contour>
		<contour>
			<point x="168" y="-11" type="curve" smooth="yes"/>
			<point x="192" y="-11"/>
			<point x="209" y="9"/>
			<point x="209" y="37" type="curve" smooth="yes"/>
			<point x="209" y="52"/>
			<point x="198" y="61"/>
			<point x="180" y="61" type="curve" smooth="yes"/>
			<point x="156" y="61"/>
			<point x="139" y="41"/>
			<point x="139" y="13" type="curve" smooth="yes"/>
			<point x="139" y="-2"/>
			<point x="150" y="-11"/>
		</contour>
	</outline>
</glyph>
<glyph name="dollar" format="2">
  <advance width="853"/>
  <unicode hex="0024"/>
  <outline>
    <contour>
      <point x="407" y="-15" type="curve" smooth="yes"/>
      <point x="648" y="-15"/>
      <point x="800" y="144"/>
      <point x="800" y="348" type="curve" smooth="yes"/>
      <point x="800" y="508"/>
      <point x="670" y="582"/>
      <point x="560" y="641" type="curve" smooth="yes"/>
      <point x="454" y="698"/>
      <point x="348" y="757"/>
      <point x="348" y="879" type="curve" smooth="yes"/>
      <point x="348" y="1050"/>
      <point x="473" y="1182"/>
      <point x="645" y="1182" type="curve" smooth="yes"/>
      <point x="732" y="1182"/>
      <point x="844" y="1148"/>
      <point x="936" y="1057" type="curve" smooth="yes"/>
      <point x="942" y="1051"/>
      <point x="947" y="1048"/>
      <point x="956" y="1056" type="curve" smooth="yes"/>
      <point x="964" y="1063"/>
      <point x="964" y="1067"/>
      <point x="956" y="1076" type="curve" smooth="yes"/>
      <point x="874" y="1164"/>
      <point x="754" y="1212"/>
      <point x="645" y="1212" type="curve" smooth="yes"/>
      <point x="453" y="1212"/>
      <point x="316" y="1073"/>
      <point x="316" y="879" type="curve" smooth="yes"/>
      <point x="316" y="743"/>
      <point x="431" y="674"/>
      <point x="545" y="613" type="curve" smooth="yes"/>
      <point x="662" y="551"/>
      <point x="768" y="493"/>
      <point x="768" y="340" type="curve" smooth="yes"/>
      <point x="768" y="165"/>
      <point x="633" y="15"/>
      <point x="413" y="15" type="curve" smooth="yes"/>
      <point x="276" y="15"/>
      <point x="183" y="69"/>
      <point x="120" y="142" type="curve" smooth="yes"/>
      <point x="113" y="150"/>
      <point x="108" y="154"/>
      <point x="98" y="146" type="curve" smooth="yes"/>
      <point x="89" y="139"/>
      <point x="91" y="133"/>
      <point x="96" y="126" type="curve" smooth="yes"/>
      <point x="134" y="73"/>
      <point x="241" y="-15"/>
    </contour>
    <contour>
      <point x="306" y="-101" type="curve" smooth="yes"/>
      <point x="317" y="-101"/>
      <point x="322" y="-98"/>
      <point x="325" y="-89" type="curve" smooth="yes"/>
      <point x="775" y="1297" type="line" smooth="yes"/>
      <point x="778" y="1306"/>
      <point x="774" y="1309"/>
      <point x="764" y="1309" type="curve" smooth="yes"/>
      <point x="753" y="1309"/>
      <point x="748" y="1306"/>
      <point x="745" y="1297" type="curve" smooth="yes"/>
      <point x="295" y="-89" type="line" smooth="yes"/>
      <point x="292" y="-98"/>
      <point x="295" y="-101"/>
    </contour>
  </outline>
</glyph>
<glyph name="percent" format="2">
  <advance width="1275"/>
  <unicode hex="0025"/>
  <outline>
    <contour>
      <point x="538" y="878" type="curve" smooth="yes"/>
      <point x="720" y="878"/>
      <point x="864" y="1091"/>
      <point x="864" y="1318" type="curve" smooth="yes"/>
      <point x="864" y="1433"/>
      <point x="800" y="1515"/>
      <point x="685" y="1515" type="curve" smooth="yes"/>
      <point x="500" y="1515"/>
      <point x="355" y="1305"/>
      <point x="355" y="1083" type="curve" smooth="yes"/>
      <point x="355" y="964"/>
      <point x="420" y="878"/>
    </contour>
    <contour>
      <point x="540" y="911" type="curve" smooth="yes"/>
      <point x="438" y="911"/>
      <point x="393" y="984"/>
      <point x="393" y="1085" type="curve" smooth="yes"/>
      <point x="393" y="1290"/>
      <point x="525" y="1481"/>
      <point x="678" y="1481" type="curve" smooth="yes"/>
      <point x="781" y="1481"/>
      <point x="826" y="1411"/>
      <point x="826" y="1314" type="curve" smooth="yes"/>
      <point x="826" y="1105"/>
      <point x="694" y="911"/>
    </contour>
    <contour>
      <point x="166" y="-12" type="curve"/>
      <point x="1458" y="1486" type="line" smooth="yes"/>
      <point x="1464" y="1494"/>
      <point x="1465" y="1503"/>
      <point x="1456" y="1510" type="curve" smooth="yes"/>
      <point x="1448" y="1519"/>
      <point x="1439" y="1516"/>
      <point x="1431" y="1508" type="curve" smooth="yes"/>
      <point x="140" y="9" type="line" smooth="yes"/>
      <point x="131" y="0"/>
      <point x="133" y="-9"/>
      <point x="141" y="-15" type="curve" smooth="yes"/>
      <point x="150" y="-22"/>
      <point x="158" y="-21"/>
    </contour>
    <contour>
      <point x="919" y="-19" type="curve" smooth="yes"/>
      <point x="1101" y="-19"/>
      <point x="1245" y="195"/>
      <point x="1245" y="421" type="curve" smooth="yes"/>
      <point x="1245" y="536"/>
      <point x="1181" y="619"/>
      <point x="1066" y="619" type="curve" smooth="yes"/>
      <point x="881" y="619"/>
      <point x="736" y="409"/>
      <point x="736" y="186" type="curve" smooth="yes"/>
      <point x="736" y="68"/>
      <point x="801" y="-19"/>
    </contour>
    <contour>
      <point x="921" y="15" type="curve" smooth="yes"/>
      <point x="819" y="15"/>
      <point x="774" y="88"/>
      <point x="774" y="189" type="curve" smooth="yes"/>
      <point x="774" y="394"/>
      <point x="906" y="585"/>
      <point x="1059" y="585" type="curve" smooth="yes"/>
      <point x="1163" y="585"/>
      <point x="1208" y="515"/>
      <point x="1208" y="418" type="curve" smooth="yes"/>
      <point x="1208" y="209"/>
      <point x="1075" y="15"/>
    </contour>
  </outline>
</glyph>
<glyph name="ampersand" format="2">
  <advance width="1321"/>
  <unicode hex="0026"/>
  <outline>
    <contour>
      <point x="181" y="328" type="curve" smooth="yes"/>
      <point x="181" y="126"/>
      <point x="319" y="-19"/>
      <point x="510" y="-19" type="curve" smooth="yes"/>
      <point x="828" y="-19"/>
      <point x="1110" y="276"/>
      <point x="1266" y="761" type="curve" smooth="yes"/>
      <point x="1270" y="771"/>
      <point x="1263" y="778"/>
      <point x="1250" y="778" type="curve" smooth="yes"/>
      <point x="1235" y="778"/>
      <point x="1230" y="774"/>
      <point x="1226" y="763" type="curve" smooth="yes"/>
      <point x="1075" y="300"/>
      <point x="805" y="19"/>
      <point x="515" y="19" type="curve" smooth="yes"/>
      <point x="345" y="19"/>
      <point x="221" y="149"/>
      <point x="221" y="328" type="curve" smooth="yes"/>
      <point x="221" y="904"/>
      <point x="1148" y="765"/>
      <point x="1148" y="1274" type="curve" smooth="yes"/>
      <point x="1148" y="1420"/>
      <point x="1041" y="1515"/>
      <point x="910" y="1515" type="curve" smooth="yes"/>
      <point x="700" y="1515"/>
      <point x="549" y="1348"/>
      <point x="549" y="1115" type="curve" smooth="yes"/>
      <point x="549" y="980"/>
      <point x="591" y="878"/>
      <point x="651" y="771" type="curve" smooth="yes"/>
      <point x="1085" y="-5" type="line" smooth="yes"/>
      <point x="1090" y="-14"/>
      <point x="1100" y="-15"/>
      <point x="1111" y="-9" type="curve" smooth="yes"/>
      <point x="1120" y="-2"/>
      <point x="1123" y="5"/>
      <point x="1118" y="14" type="curve" smooth="yes"/>
      <point x="684" y="790" type="line" smooth="yes"/>
      <point x="626" y="894"/>
      <point x="586" y="991"/>
      <point x="586" y="1114" type="curve" smooth="yes"/>
      <point x="586" y="1325"/>
      <point x="719" y="1478"/>
      <point x="901" y="1478" type="curve" smooth="yes"/>
      <point x="1025" y="1478"/>
      <point x="1111" y="1395"/>
      <point x="1111" y="1274" type="curve" smooth="yes"/>
      <point x="1111" y="795"/>
      <point x="181" y="928"/>
    </contour>
  </outline>
</glyph>
<glyph name="quotesingle" format="2">
	<unicode hex="0027"/>
	<advance width="135"/>
	<outline>
		<contour>
			<point x="325" y="988" type="curve" smooth="yes"/>
			<point x="336" y="988"/>
			<point x="341" y="993"/>
			<point x="345" y="1003" type="curve" smooth="yes"/>
			<point x="415" y="1193" type="line" smooth="yes"/>
			<point x="419" y="1204"/>
			<point x="414" y="1215"/>
			<point x="395" y="1215" type="curve" smooth="yes"/>
			<point x="378" y="1215"/>
			<point x="370" y="1206"/>
			<point x="367" y="1195" type="curve" smooth="yes"/>
			<point x="313" y="1004" type="line" smooth="yes"/>
			<point x="310" y="995"/>
			<point x="313" y="988"/>
		</contour>
	</outline>
</glyph>
<glyph name="asterisk" format="2">
  <advance width="358"/>
  <unicode hex="002A"/>
  <outline>
    <contour>
      <point x="475" y="1141" type="curve" smooth="yes"/>
      <point x="488" y="1140"/>
      <point x="493" y="1145"/>
      <point x="496" y="1156" type="curve" smooth="yes"/>
      <point x="600" y="1498" type="line" smooth="yes"/>
      <point x="603" y="1508"/>
      <point x="600" y="1515"/>
      <point x="588" y="1516" type="curve" smooth="yes"/>
      <point x="575" y="1517"/>
      <point x="569" y="1510"/>
      <point x="566" y="1501" type="curve" smooth="yes"/>
      <point x="463" y="1162" type="line" smooth="yes"/>
      <point x="459" y="1148"/>
      <point x="463" y="1142"/>
    </contour>
    <contour>
      <point x="341" y="1283" type="curve" smooth="yes"/>
      <point x="345" y="1268"/>
      <point x="353" y="1268"/>
      <point x="366" y="1272" type="curve" smooth="yes"/>
      <point x="705" y="1352" type="line" smooth="yes"/>
      <point x="718" y="1355"/>
      <point x="724" y="1360"/>
      <point x="721" y="1372" type="curve" smooth="yes"/>
      <point x="718" y="1388"/>
      <point x="711" y="1387"/>
      <point x="699" y="1385" type="curve" smooth="yes"/>
      <point x="356" y="1305" type="line" smooth="yes"/>
      <point x="343" y="1301"/>
      <point x="338" y="1296"/>
    </contour>
    <contour>
      <point x="665" y="1186" type="curve" smooth="yes"/>
      <point x="676" y="1197"/>
      <point x="673" y="1203"/>
      <point x="664" y="1212" type="curve" smooth="yes"/>
      <point x="420" y="1471" type="line" smooth="yes"/>
      <point x="413" y="1478"/>
      <point x="406" y="1480"/>
      <point x="398" y="1471" type="curve" smooth="yes"/>
      <point x="386" y="1460"/>
      <point x="393" y="1451"/>
      <point x="398" y="1446" type="curve" smooth="yes"/>
      <point x="639" y="1190" type="line" smooth="yes"/>
      <point x="648" y="1181"/>
      <point x="654" y="1175"/>
    </contour>
  </outline>
</glyph>
<glyph name="plus" format="2">
  <advance width="610"/>
  <unicode hex="002B"/>
  <outline>
    <contour>
      <point x="278" y="131" type="curve" smooth="yes"/>
      <point x="289" y="131"/>
      <point x="293" y="135"/>
      <point x="296" y="143" type="curve" smooth="yes"/>
      <point x="432" y="557" type="line" smooth="yes"/>
      <point x="435" y="566"/>
      <point x="430" y="569"/>
      <point x="420" y="569" type="curve" smooth="yes"/>
      <point x="409" y="569"/>
      <point x="405" y="567"/>
      <point x="402" y="557" type="curve" smooth="yes"/>
      <point x="266" y="143" type="line" smooth="yes"/>
      <point x="263" y="134"/>
      <point x="267" y="131"/>
    </contour>
    <component base="minus"/>
  </outline>
</glyph>
<glyph name="comma" format="2">
  <advance width="313"/>
  <unicode hex="002C"/>
  <outline>
    <contour>
      <point x="-7" y="-162" type="curve" smooth="yes"/>
      <point x="0" y="-162"/>
      <point x="9" y="-155"/>
      <point x="18" y="-147" type="curve" smooth="yes"/>
      <point x="93" y="-74"/>
      <point x="119" y="15"/>
      <point x="119" y="50" type="curve" smooth="yes"/>
      <point x="119" y="64"/>
      <point x="111" y="71"/>
      <point x="91" y="71" type="curve" smooth="yes"/>
      <point x="71" y="71"/>
      <point x="61" y="63"/>
      <point x="58" y="46" type="curve" smooth="yes"/>
      <point x="40" y="-39"/>
      <point x="20" y="-75"/>
      <point x="-22" y="-127" type="curve" smooth="yes"/>
      <point x="-27" y="-134"/>
      <point x="-30" y="-137"/>
      <point x="-30" y="-141" type="curve" smooth="yes"/>
      <point x="-30" y="-150"/>
      <point x="-16" y="-162"/>
    </contour>
  </outline>
</glyph>
<glyph name="period" format="2">
	<unicode hex="002E"/>
	<advance width="250"/>
	<outline>
		<contour>
			<point x="62" y="-11" type="curve" smooth="yes"/>
			<point x="86" y="-11"/>
			<point x="103" y="9"/>
			<point x="103" y="37" type="curve" smooth="yes"/>
			<point x="103" y="52"/>
			<point x="92" y="61"/>
			<point x="74" y="61" type="curve" smooth="yes"/>
			<point x="50" y="61"/>
			<point x="33" y="41"/>
			<point x="33" y="13" type="curve" smooth="yes"/>
			<point x="33" y="-2"/>
			<point x="44" y="-11"/>
		</contour>
	</outline>
</glyph>
<glyph name="slash" format="2">
  <advance width="525"/>
  <unicode hex="002F"/>
  <outline>
    <contour>
      <point x="-42" y="-75" type="curve"/>
      <point x="-30" y="-79"/>
      <point x="-24" y="-76"/>
      <point x="-17" y="-65" type="curve" smooth="yes"/>
      <point x="901" y="1556" type="line"/>
      <point x="906" y="1566"/>
      <point x="903" y="1571"/>
      <point x="893" y="1575" type="curve"/>
      <point x="880" y="1579"/>
      <point x="874" y="1576"/>
      <point x="868" y="1565" type="curve" smooth="yes"/>
      <point x="-51" y="-56" type="line"/>
      <point x="-56" y="-66"/>
      <point x="-54" y="-71"/>
    </contour>
  </outline>
</glyph>
<glyph name="zero" format="2">
	<unicode hex="0030"/>
	<advance width="945"/>
	<outline>
		<contour>
			<point x="439" y="-15" type="curve" smooth="yes"/>
			<point x="730" y="-15"/>
			<point x="1025" y="410"/>
			<point x="1025" y="879" type="curve" smooth="yes"/>
			<point x="1025" y="1099"/>
			<point x="934" y="1212"/>
			<point x="765" y="1212" type="curve" smooth="yes"/>
			<point x="467" y="1212"/>
			<point x="179" y="785"/>
			<point x="179" y="314" type="curve" smooth="yes"/>
			<point x="179" y="96"/>
			<point x="272" y="-15"/>
		</contour>
		<contour>
			<point x="440" y="15" type="curve" smooth="yes"/>
			<point x="292" y="15"/>
			<point x="212" y="116"/>
			<point x="212" y="314" type="curve" smooth="yes"/>
			<point x="212" y="777"/>
			<point x="491" y="1182"/>
			<point x="764" y="1182" type="curve" smooth="yes"/>
			<point x="913" y="1182"/>
			<point x="992" y="1080"/>
			<point x="992" y="879" type="curve" smooth="yes"/>
			<point x="992" y="428"/>
			<point x="712" y="15"/>
		</contour>
	</outline>
</glyph>
<glyph name="one" format="2">
  <advance width="557"/>
  <unicode hex="0031"/>
  <outline>
    <contour>
      <point x="240" y="-11" type="curve" smooth="yes"/>
      <point x="251" y="-11"/>
      <point x="255" y="-8"/>
      <point x="258" y="1" type="curve" smooth="yes"/>
      <point x="646" y="1197" type="line" smooth="yes"/>
      <point x="650" y="1208"/>
      <point x="644" y="1212"/>
      <point x="633" y="1212" type="curve" smooth="yes"/>
      <point x="622" y="1212"/>
      <point x="616" y="1210"/>
      <point x="607" y="1202" type="curve" smooth="yes"/>
      <point x="513" y="1121"/>
      <point x="401" y="1042"/>
      <point x="311" y="995" type="curve" smooth="yes"/>
      <point x="301" y="990"/>
      <point x="300" y="983"/>
      <point x="303" y="976" type="curve" smooth="yes"/>
      <point x="306" y="968"/>
      <point x="313" y="965"/>
      <point x="323" y="970" type="curve" smooth="yes"/>
      <point x="402" y="1011"/>
      <point x="517" y="1092"/>
      <point x="605" y="1164" type="curve"/>
      <point x="228" y="4" type="line" smooth="yes"/>
      <point x="225" y="-5"/>
      <point x="229" y="-11"/>
    </contour>
  </outline>
</glyph>
<glyph name="two" format="2">
	<unicode hex="0032"/>
	<advance width="822"/>
	<outline>
		<contour>
			<point x="41" y="0" type="curve" smooth="yes"/>
			<point x="659" y="0" type="line" smooth="yes"/>
			<point x="668" y="0"/>
			<point x="672" y="3"/>
			<point x="674" y="13" type="curve" smooth="yes"/>
			<point x="676" y="23"/>
			<point x="673" y="28"/>
			<point x="666" y="28" type="curve" smooth="yes"/>
			<point x="94" y="28" type="line"/>
			<point x="227" y="132" type="line" smooth="yes"/>
			<point x="510" y="354"/>
			<point x="934" y="663"/>
			<point x="934" y="988" type="curve" smooth="yes"/>
			<point x="934" y="1127"/>
			<point x="845" y="1212"/>
			<point x="700" y="1212" type="curve" smooth="yes"/>
			<point x="599" y="1212"/>
			<point x="492" y="1170"/>
			<point x="389" y="1089" type="curve" smooth="yes"/>
			<point x="378" y="1081"/>
			<point x="375" y="1075"/>
			<point x="382" y="1066" type="curve" smooth="yes"/>
			<point x="389" y="1057"/>
			<point x="396" y="1056"/>
			<point x="406" y="1064" type="curve" smooth="yes"/>
			<point x="507" y="1142"/>
			<point x="601" y="1182"/>
			<point x="700" y="1182" type="curve" smooth="yes"/>
			<point x="825" y="1182"/>
			<point x="901" y="1109"/>
			<point x="901" y="988" type="curve" smooth="yes"/>
			<point x="901" y="672"/>
			<point x="466" y="357"/>
			<point x="209" y="156" type="curve" smooth="yes"/>
			<point x="35" y="20" type="line" smooth="yes"/>
			<point x="29" y="15"/>
			<point x="26" y="0"/>
		</contour>
	</outline>
</glyph>
<glyph name="three" format="2">
  <advance width="901"/>
  <unicode hex="0033"/>
  <outline>
    <contour>
      <point x="432" y="-15" type="curve" smooth="yes"/>
      <point x="661" y="-15"/>
      <point x="828" y="150"/>
      <point x="828" y="363" type="curve" smooth="yes"/>
      <point x="828" y="487"/>
      <point x="760" y="604"/>
      <point x="629" y="633" type="curve"/>
      <point x="832" y="652"/>
      <point x="939" y="800"/>
      <point x="939" y="957" type="curve" smooth="yes"/>
      <point x="939" y="1116"/>
      <point x="833" y="1212"/>
      <point x="669" y="1212" type="curve" smooth="yes"/>
      <point x="540" y="1212"/>
      <point x="432" y="1159"/>
      <point x="346" y="1092" type="curve" smooth="yes"/>
      <point x="336" y="1084"/>
      <point x="335" y="1077"/>
      <point x="342" y="1069" type="curve" smooth="yes"/>
      <point x="348" y="1062"/>
      <point x="354" y="1062"/>
      <point x="365" y="1070" type="curve" smooth="yes"/>
      <point x="470" y="1149"/>
      <point x="557" y="1182"/>
      <point x="669" y="1182" type="curve" smooth="yes"/>
      <point x="811" y="1182"/>
      <point x="906" y="1097"/>
      <point x="906" y="957" type="curve" smooth="yes"/>
      <point x="906" y="767"/>
      <point x="749" y="650"/>
      <point x="545" y="650" type="curve" smooth="yes"/>
      <point x="448" y="650" type="line" smooth="yes"/>
      <point x="441" y="650"/>
      <point x="434" y="646"/>
      <point x="432" y="636" type="curve" smooth="yes"/>
      <point x="430" y="626"/>
      <point x="435" y="622"/>
      <point x="440" y="622" type="curve" smooth="yes"/>
      <point x="529" y="622" type="line" smooth="yes"/>
      <point x="694" y="622"/>
      <point x="795" y="511"/>
      <point x="795" y="363" type="curve" smooth="yes"/>
      <point x="795" y="161"/>
      <point x="632" y="15"/>
      <point x="432" y="15" type="curve" smooth="yes"/>
      <point x="296" y="15"/>
      <point x="178" y="63"/>
      <point x="88" y="171" type="curve" smooth="yes"/>
      <point x="80" y="180"/>
      <point x="76" y="183"/>
      <point x="66" y="176" type="curve" smooth="yes"/>
      <point x="59" y="171"/>
      <point x="55" y="163"/>
      <point x="62" y="154" type="curve" smooth="yes"/>
      <point x="161" y="31"/>
      <point x="292" y="-15"/>
    </contour>
  </outline>
</glyph>
<glyph name="four" format="2">
  <advance width="1148"/>
  <unicode hex="0034"/>
  <outline>
    <contour>
      <point x="184" y="464" type="curve" smooth="yes"/>
      <point x="1131" y="464" type="line" smooth="yes"/>
      <point x="1143" y="464"/>
      <point x="1148" y="468"/>
      <point x="1151" y="481" type="curve" smooth="yes"/>
      <point x="1155" y="495"/>
      <point x="1153" y="499"/>
      <point x="1141" y="499" type="curve" smooth="yes"/>
      <point x="231" y="499" type="line"/>
      <point x="1081" y="1485" type="line" smooth="yes"/>
      <point x="1089" y="1494"/>
      <point x="1088" y="1503"/>
      <point x="1079" y="1510" type="curve" smooth="yes"/>
      <point x="1070" y="1518"/>
      <point x="1061" y="1518"/>
      <point x="1053" y="1508" type="curve" smooth="yes"/>
      <point x="178" y="490" type="line" smooth="yes"/>
      <point x="163" y="473"/>
      <point x="170" y="464"/>
    </contour>
    <contour>
      <point x="768" y="-14" type="curve" smooth="yes"/>
      <point x="781" y="-14"/>
      <point x="788" y="-10"/>
      <point x="791" y="1" type="curve" smooth="yes"/>
      <point x="1140" y="1073" type="line" smooth="yes"/>
      <point x="1144" y="1084"/>
      <point x="1139" y="1088"/>
      <point x="1125" y="1088" type="curve" smooth="yes"/>
      <point x="1111" y="1088"/>
      <point x="1105" y="1084"/>
      <point x="1101" y="1073" type="curve" smooth="yes"/>
      <point x="753" y="1" type="line" smooth="yes"/>
      <point x="749" y="-10"/>
      <point x="754" y="-14"/>
    </contour>
  </outline>
</glyph>
<glyph name="five" format="2">
	<unicode hex="0035"/>
	<advance width="901"/>
	<outline>
		<contour>
			<point x="448" y="-15" type="curve" smooth="yes"/>
			<point x="676" y="-15"/>
			<point x="863" y="153"/>
			<point x="863" y="432" type="curve" smooth="yes"/>
			<point x="863" y="619"/>
			<point x="756" y="725"/>
			<point x="584" y="725" type="curve" smooth="yes"/>
			<point x="493" y="725"/>
			<point x="385" y="696"/>
			<point x="310" y="642" type="curve"/>
			<point x="489" y="1162" type="line"/>
			<point x="1016" y="1162" type="line" smooth="yes"/>
			<point x="1026" y="1162"/>
			<point x="1031" y="1170"/>
			<point x="1031" y="1181" type="curve" smooth="yes"/>
			<point x="1031" y="1187"/>
			<point x="1028" y="1190"/>
			<point x="1023" y="1190" type="curve" smooth="yes"/>
			<point x="482" y="1190" type="line" smooth="yes"/>
			<point x="471" y="1190"/>
			<point x="466" y="1187"/>
			<point x="463" y="1178" type="curve" smooth="yes"/>
			<point x="264" y="600" type="line" smooth="yes"/>
			<point x="260" y="588"/>
			<point x="274" y="582"/>
			<point x="285" y="591" type="curve" smooth="yes"/>
			<point x="369" y="666"/>
			<point x="495" y="695"/>
			<point x="584" y="695" type="curve" smooth="yes"/>
			<point x="738" y="695"/>
			<point x="830" y="599"/>
			<point x="830" y="432" type="curve" smooth="yes"/>
			<point x="830" y="175"/>
			<point x="659" y="15"/>
			<point x="448" y="15" type="curve" smooth="yes"/>
			<point x="329" y="15"/>
			<point x="211" y="63"/>
			<point x="121" y="171" type="curve" smooth="yes"/>
			<point x="113" y="180"/>
			<point x="109" y="183"/>
			<point x="99" y="176" type="curve" smooth="yes"/>
			<point x="92" y="171"/>
			<point x="88" y="163"/>
			<point x="95" y="154" type="curve" smooth="yes"/>
			<point x="194" y="31"/>
			<point x="325" y="-15"/>
		</contour>
	</outline>
</glyph>
<glyph name="six" format="2">
	<unicode hex="0036"/>
	<advance width="968"/>
	<outline>
		<contour>
			<point x="535" y="-15" type="curve" smooth="yes"/>
			<point x="777" y="-15"/>
			<point x="922" y="163"/>
			<point x="922" y="417" type="curve" smooth="yes"/>
			<point x="922" y="587"/>
			<point x="819" y="705"/>
			<point x="640" y="705" type="curve" smooth="yes"/>
			<point x="492" y="705"/>
			<point x="334" y="617"/>
			<point x="243" y="462" type="curve"/>
			<point x="230" y="385" type="line"/>
			<point x="297" y="536"/>
			<point x="458" y="675"/>
			<point x="640" y="675" type="curve" smooth="yes"/>
			<point x="802" y="675"/>
			<point x="889" y="569"/>
			<point x="889" y="417" type="curve" smooth="yes"/>
			<point x="889" y="170"/>
			<point x="749" y="15"/>
			<point x="535" y="15" type="curve" smooth="yes"/>
			<point x="358" y="15"/>
			<point x="251" y="141"/>
			<point x="251" y="390" type="curve" smooth="yes"/>
			<point x="251" y="829"/>
			<point x="494" y="1171"/>
			<point x="976" y="1183" type="curve" smooth="yes"/>
			<point x="987" y="1183"/>
			<point x="992" y="1186"/>
			<point x="991" y="1201" type="curve" smooth="yes"/>
			<point x="990" y="1212"/>
			<point x="984" y="1212"/>
			<point x="969" y="1212" type="curve" smooth="yes"/>
			<point x="493" y="1206"/>
			<point x="218" y="857"/>
			<point x="218" y="390" type="curve" smooth="yes"/>
			<point x="218" y="125"/>
			<point x="335" y="-15"/>
		</contour>
	</outline>
</glyph>
<glyph name="seven" format="2">
	<unicode hex="0037"/>
	<advance width="731"/>
	<outline>
		<contour>
			<point x="122" y="-10" type="curve" smooth="yes"/>
			<point x="135" y="-14"/>
			<point x="140" y="-10"/>
			<point x="148" y="2" type="curve" smooth="yes"/>
			<point x="973" y="1175" type="line" smooth="yes"/>
			<point x="980" y="1185"/>
			<point x="973" y="1190"/>
			<point x="966" y="1190" type="curve" smooth="yes"/>
			<point x="373" y="1190" type="line" smooth="yes"/>
			<point x="368" y="1190"/>
			<point x="361" y="1187"/>
			<point x="358" y="1177" type="curve" smooth="yes"/>
			<point x="355" y="1167"/>
			<point x="359" y="1162"/>
			<point x="364" y="1162" type="curve" smooth="yes"/>
			<point x="929" y="1162" type="line"/>
			<point x="119" y="10" type="line" smooth="yes"/>
			<point x="112" y="0"/>
			<point x="112" y="-7"/>
		</contour>
	</outline>
</glyph>
<glyph name="eight" format="2">
	<unicode hex="0038"/>
	<advance width="901"/>
	<outline>
		<contour>
			<point x="480" y="-15" type="curve" smooth="yes"/>
			<point x="712" y="-15"/>
			<point x="880" y="120"/>
			<point x="880" y="306" type="curve" smooth="yes"/>
			<point x="880" y="459"/>
			<point x="778" y="568"/>
			<point x="627" y="642" type="curve"/>
			<point x="841" y="715"/>
			<point x="972" y="845"/>
			<point x="972" y="984" type="curve" smooth="yes"/>
			<point x="972" y="1117"/>
			<point x="848" y="1212"/>
			<point x="693" y="1212" type="curve" smooth="yes"/>
			<point x="494" y="1212"/>
			<point x="354" y="1091"/>
			<point x="354" y="925" type="curve" smooth="yes"/>
			<point x="354" y="817"/>
			<point x="428" y="712"/>
			<point x="549" y="648" type="curve"/>
			<point x="318" y="578"/>
			<point x="151" y="421"/>
			<point x="151" y="250" type="curve" smooth="yes"/>
			<point x="151" y="85"/>
			<point x="276" y="-15"/>
		</contour>
		<contour>
			<point x="482" y="15" type="curve" smooth="yes"/>
			<point x="297" y="15"/>
			<point x="184" y="104"/>
			<point x="184" y="250" type="curve" smooth="yes"/>
			<point x="184" y="411"/>
			<point x="353" y="559"/>
			<point x="587" y="629" type="curve"/>
			<point x="752" y="554"/>
			<point x="847" y="448"/>
			<point x="847" y="306" type="curve" smooth="yes"/>
			<point x="847" y="137"/>
			<point x="694" y="15"/>
		</contour>
		<contour>
			<point x="589" y="661" type="curve"/>
			<point x="463" y="724"/>
			<point x="387" y="824"/>
			<point x="387" y="925" type="curve" smooth="yes"/>
			<point x="387" y="1075"/>
			<point x="513" y="1182"/>
			<point x="691" y="1182" type="curve" smooth="yes"/>
			<point x="829" y="1182"/>
			<point x="939" y="1100"/>
			<point x="939" y="984" type="curve" smooth="yes"/>
			<point x="939" y="853"/>
			<point x="806" y="730"/>
		</contour>
	</outline>
	<guideline x="186" y="549" angle="72"/>
	<guideline x="930" y="549" angle="72"/>
</glyph>
<glyph name="question" format="2">
  <advance width="677"/>
  <unicode hex="003F"/>
  <guideline x="168" y="327" angle="252.78"/>
  <guideline y="339"/>
  <guideline x="201" y="327" angle="252.78"/>
  <outline>
    <contour>
      <point x="251" y="173" type="curve" smooth="yes"/>
      <point x="262" y="173"/>
      <point x="267" y="176"/>
      <point x="270" y="185" type="curve" smooth="yes"/>
      <point x="378" y="516" type="line"/>
      <point x="654" y="516"/>
      <point x="873" y="703"/>
      <point x="873" y="962" type="curve" smooth="yes"/>
      <point x="873" y="1117"/>
      <point x="776" y="1212"/>
      <point x="616" y="1212" type="curve" smooth="yes"/>
      <point x="516" y="1212"/>
      <point x="398" y="1164"/>
      <point x="305" y="1086" type="curve" smooth="yes"/>
      <point x="299" y="1081"/>
      <point x="299" y="1076"/>
      <point x="302" y="1069" type="curve" smooth="yes"/>
      <point x="305" y="1062"/>
      <point x="312" y="1057"/>
      <point x="319" y="1062" type="curve" smooth="yes"/>
      <point x="412" y="1129"/>
      <point x="517" y="1182"/>
      <point x="612" y="1182" type="curve" smooth="yes"/>
      <point x="754" y="1182"/>
      <point x="840" y="1099"/>
      <point x="840" y="962" type="curve" smooth="yes"/>
      <point x="840" y="714"/>
      <point x="632" y="544"/>
      <point x="369" y="544" type="curve" smooth="yes"/>
      <point x="364" y="544"/>
      <point x="355" y="541"/>
      <point x="352" y="531" type="curve" smooth="yes"/>
      <point x="239" y="185" type="line" smooth="yes"/>
      <point x="236" y="176"/>
      <point x="240" y="173"/>
    </contour>
    <contour>
      <point x="197" y="-11" type="curve" smooth="yes"/>
      <point x="221" y="-11"/>
      <point x="238" y="9"/>
      <point x="238" y="37" type="curve" smooth="yes"/>
      <point x="238" y="52"/>
      <point x="227" y="61"/>
      <point x="209" y="61" type="curve" smooth="yes"/>
      <point x="185" y="61"/>
      <point x="168" y="41"/>
      <point x="168" y="13" type="curve" smooth="yes"/>
      <point x="168" y="-2"/>
      <point x="179" y="-11"/>
    </contour>
  </outline>
</glyph>
<glyph name="at" format="2">
  <advance width="958"/>
  <unicode hex="0040"/>
  <outline>
    <contour>
      <point x="295" y="183" type="curve" smooth="yes"/>
      <point x="295" y="103"/>
      <point x="335" y="53"/>
      <point x="404" y="53" type="curve" smooth="yes"/>
      <point x="453" y="53"/>
      <point x="508" y="79"/>
      <point x="552" y="135" type="curve"/>
      <point x="550" y="130"/>
      <point x="550" y="125"/>
      <point x="550" y="123" type="curve" smooth="yes"/>
      <point x="548" y="88"/>
      <point x="574" y="53"/>
      <point x="632" y="53" type="curve" smooth="yes"/>
      <point x="784" y="53"/>
      <point x="915" y="198"/>
      <point x="915" y="370" type="curve" smooth="yes"/>
      <point x="915" y="564"/>
      <point x="764" y="684"/>
      <point x="555" y="684" type="curve" smooth="yes"/>
      <point x="254" y="684"/>
      <point x="68" y="445"/>
      <point x="68" y="176" type="curve" smooth="yes"/>
      <point x="68" y="-29"/>
      <point x="190" y="-174"/>
      <point x="398" y="-174" type="curve" smooth="yes"/>
      <point x="476" y="-174"/>
      <point x="544" y="-162"/>
      <point x="618" y="-136" type="curve" smooth="yes"/>
      <point x="628" y="-132"/>
      <point x="631" y="-127"/>
      <point x="628" y="-115" type="curve" smooth="yes"/>
      <point x="625" y="-105"/>
      <point x="618" y="-101"/>
      <point x="608" y="-105" type="curve" smooth="yes"/>
      <point x="536" y="-130"/>
      <point x="471" y="-141"/>
      <point x="403" y="-141" type="curve" smooth="yes"/>
      <point x="214" y="-141"/>
      <point x="101" y="-10"/>
      <point x="101" y="179" type="curve" smooth="yes"/>
      <point x="101" y="435"/>
      <point x="275" y="651"/>
      <point x="550" y="651" type="curve" smooth="yes"/>
      <point x="744" y="651"/>
      <point x="880" y="552"/>
      <point x="880" y="369" type="curve" smooth="yes"/>
      <point x="880" y="208"/>
      <point x="768" y="84"/>
      <point x="635" y="84" type="curve" smooth="yes"/>
      <point x="594" y="84"/>
      <point x="575" y="104"/>
      <point x="592" y="155" type="curve" smooth="yes"/>
      <point x="687" y="444" type="line" smooth="yes"/>
      <point x="690" y="455"/>
      <point x="687" y="463"/>
      <point x="672" y="463" type="curve" smooth="yes"/>
      <point x="658" y="463"/>
      <point x="655" y="459"/>
      <point x="652" y="449" type="curve" smooth="yes"/>
      <point x="645" y="431" type="line"/>
      <point x="617" y="453"/>
      <point x="578" y="466"/>
      <point x="543" y="466" type="curve" smooth="yes"/>
      <point x="373" y="466"/>
      <point x="295" y="301"/>
    </contour>
    <contour>
      <point x="334" y="185" type="curve" smooth="yes"/>
      <point x="334" y="286"/>
      <point x="395" y="434"/>
      <point x="539" y="434" type="curve" smooth="yes"/>
      <point x="568" y="434"/>
      <point x="598" y="428"/>
      <point x="637" y="403" type="curve"/>
      <point x="574" y="213" type="line"/>
      <point x="523" y="120"/>
      <point x="464" y="85"/>
      <point x="413" y="85" type="curve" smooth="yes"/>
      <point x="358" y="85"/>
      <point x="334" y="125"/>
    </contour>
  </outline>
</glyph>
<glyph name="A" format="2">
  <advance width="1162"/>
  <unicode hex="0041"/>
  <anchor x="501" y="0" name="bottom"/>
  <anchor x="1020" y="0" name="ogonek"/>
  <anchor x="904" y="1424" name="top"/>
  <outline>
    <contour>
      <point x="-5" y="-14" type="curve" smooth="yes"/>
      <point x="6" y="-14"/>
      <point x="13" y="-10"/>
      <point x="20" y="1" type="curve" smooth="yes"/>
      <point x="321" y="475" type="line"/>
      <point x="966" y="475" type="line"/>
      <point x="984" y="4" type="line" smooth="yes"/>
      <point x="984" y="-10"/>
      <point x="990" y="-14"/>
      <point x="1003" y="-14" type="curve" smooth="yes"/>
      <point x="1016" y="-14"/>
      <point x="1020" y="-10"/>
      <point x="1020" y="5" type="curve" smooth="yes"/>
      <point x="963" y="1500" type="line" smooth="yes"/>
      <point x="963" y="1510"/>
      <point x="958" y="1515"/>
      <point x="945" y="1515" type="curve" smooth="yes"/>
      <point x="933" y="1515"/>
      <point x="929" y="1513"/>
      <point x="923" y="1503" type="curve" smooth="yes"/>
      <point x="-17" y="10" type="line" smooth="yes"/>
      <point x="-27" y="-6"/>
      <point x="-20" y="-14"/>
    </contour>
    <contour>
      <point x="343" y="510" type="line"/>
      <point x="933" y="1458" type="line"/>
      <point x="964" y="510" type="line"/>
    </contour>
  </outline>
</glyph>
<glyph name="B" format="2">
  <advance width="1124"/>
  <unicode hex="0042"/>
  <anchor x="478" y="0" name="bottom"/>
  <anchor x="318" y="438" name="center"/>
  <anchor x="943" y="1424" name="top"/>
  <outline>
    <contour>
      <point x="179" y="0" type="curve" smooth="yes"/>
      <point x="485" y="0" type="line" smooth="yes"/>
      <point x="810" y="0"/>
      <point x="1114" y="203"/>
      <point x="1114" y="538" type="curve" smooth="yes"/>
      <point x="1114" y="705"/>
      <point x="1005" y="780"/>
      <point x="852" y="786" type="curve"/>
      <point x="854" y="794" type="line"/>
      <point x="1117" y="828"/>
      <point x="1285" y="1013"/>
      <point x="1285" y="1246" type="curve" smooth="yes"/>
      <point x="1285" y="1393"/>
      <point x="1184" y="1488"/>
      <point x="957" y="1488" type="curve" smooth="yes"/>
      <point x="662" y="1488" type="line" smooth="yes"/>
      <point x="648" y="1488"/>
      <point x="640" y="1484"/>
      <point x="637" y="1473" type="curve" smooth="yes"/>
      <point x="165" y="15" type="line" smooth="yes"/>
      <point x="162" y="4"/>
      <point x="165" y="0"/>
    </contour>
    <contour>
      <point x="209" y="35" type="line"/>
      <point x="447" y="769" type="line"/>
      <point x="750" y="769" type="line" smooth="yes"/>
      <point x="942" y="769"/>
      <point x="1070" y="703"/>
      <point x="1070" y="538" type="curve" smooth="yes"/>
      <point x="1070" y="245"/>
      <point x="815" y="35"/>
      <point x="464" y="35" type="curve" smooth="yes"/>
    </contour>
    <contour>
      <point x="458" y="804" type="line"/>
      <point x="668" y="1453" type="line"/>
      <point x="949" y="1453" type="line" smooth="yes"/>
      <point x="1139" y="1453"/>
      <point x="1245" y="1381"/>
      <point x="1245" y="1245" type="curve" smooth="yes"/>
      <point x="1245" y="996"/>
      <point x="1013" y="804"/>
      <point x="724" y="804" type="curve" smooth="yes"/>
    </contour>
  </outline>
</glyph>
<glyph name="C" format="2">
  <advance width="961"/>
  <unicode hex="0043"/>
  <anchor x="476" y="0" name="bottom"/>
  <anchor x="830" y="1139" name="top"/>
  <outline>
    <contour>
      <point x="508" y="-15" type="curve" smooth="yes"/>
      <point x="649" y="-15"/>
      <point x="788" y="58"/>
      <point x="896" y="173" type="curve" smooth="yes"/>
      <point x="908" y="186"/>
      <point x="911" y="190"/>
      <point x="902" y="199" type="curve" smooth="yes"/>
      <point x="893" y="208"/>
      <point x="887" y="206"/>
      <point x="876" y="194" type="curve" smooth="yes"/>
      <point x="765" y="76"/>
      <point x="634" y="15"/>
      <point x="511" y="15" type="curve" smooth="yes"/>
      <point x="341" y="15"/>
      <point x="241" y="135"/>
      <point x="241" y="337" type="curve" smooth="yes"/>
      <point x="241" y="745"/>
      <point x="496" y="1182"/>
      <point x="866" y="1182" type="curve" smooth="yes"/>
      <point x="965" y="1182"/>
      <point x="1039" y="1141"/>
      <point x="1094" y="1061" type="curve" smooth="yes"/>
      <point x="1104" y="1046"/>
      <point x="1110" y="1043"/>
      <point x="1119" y="1049" type="curve" smooth="yes"/>
      <point x="1129" y="1055"/>
      <point x="1128" y="1062"/>
      <point x="1118" y="1078" type="curve" smooth="yes"/>
      <point x="1066" y="1162"/>
      <point x="972" y="1212"/>
      <point x="867" y="1212" type="curve" smooth="yes"/>
      <point x="481" y="1212"/>
      <point x="208" y="768"/>
      <point x="208" y="341" type="curve" smooth="yes"/>
      <point x="208" y="117"/>
      <point x="319" y="-15"/>
    </contour>
  </outline>
</glyph>
<glyph name="D" format="2">
	<unicode hex="0044"/>
	<advance width="1077"/>
	<outline>
		<contour>
			<point x="147" y="0" type="curve" smooth="yes"/>
			<point x="389" y="0" type="line" smooth="yes"/>
			<point x="819" y="0"/>
			<point x="1120" y="350"/>
			<point x="1120" y="834" type="curve" smooth="yes"/>
			<point x="1120" y="1066"/>
			<point x="1004" y="1190"/>
			<point x="746" y="1190" type="curve" smooth="yes"/>
			<point x="529" y="1190" type="line" smooth="yes"/>
			<point x="516" y="1190"/>
			<point x="513" y="1187"/>
			<point x="510" y="1178" type="curve" smooth="yes"/>
			<point x="135" y="12" type="line" smooth="yes"/>
			<point x="132" y="3"/>
			<point x="137" y="0"/>
		</contour>
		<contour>
			<point x="171" y="28" type="line"/>
			<point x="536" y="1162" type="line"/>
			<point x="743" y="1162" type="line" smooth="yes"/>
			<point x="981" y="1162"/>
			<point x="1087" y="1048"/>
			<point x="1087" y="834" type="curve" smooth="yes"/>
			<point x="1087" y="367"/>
			<point x="794" y="28"/>
			<point x="389" y="28" type="curve" smooth="yes"/>
		</contour>
	</outline>
	<anchor name="bottom" x="467" y="0"/>
	<anchor name="center" x="367" y="593"/>
	<anchor name="top" x="788" y="1139"/>
</glyph>
<glyph name="F" format="2">
  <advance width="967"/>
  <unicode hex="0046"/>
  <outline>
    <contour>
      <point x="179" y="-14" type="curve" smooth="yes"/>
      <point x="194" y="-14"/>
      <point x="199" y="-10"/>
      <point x="203" y="1" type="curve" smooth="yes"/>
      <point x="437" y="726" type="line"/>
      <point x="968" y="726" type="line" smooth="yes"/>
      <point x="980" y="726"/>
      <point x="985" y="730"/>
      <point x="989" y="744" type="curve" smooth="yes"/>
      <point x="992" y="755"/>
      <point x="992" y="761"/>
      <point x="978" y="761" type="curve" smooth="yes"/>
      <point x="448" y="761" type="line"/>
      <point x="669" y="1453" type="line"/>
      <point x="1303" y="1453" type="line" smooth="yes"/>
      <point x="1315" y="1453"/>
      <point x="1320" y="1456"/>
      <point x="1324" y="1470" type="curve" smooth="yes"/>
      <point x="1327" y="1481"/>
      <point x="1327" y="1488"/>
      <point x="1313" y="1488" type="curve" smooth="yes"/>
      <point x="660" y="1488" type="line" smooth="yes"/>
      <point x="644" y="1488"/>
      <point x="640" y="1484"/>
      <point x="637" y="1473" type="curve" smooth="yes"/>
      <point x="164" y="1" type="line" smooth="yes"/>
      <point x="160" y="-10"/>
      <point x="167" y="-14"/>
    </contour>
  </outline>
</glyph>
<glyph name="G" format="2">
  <advance width="1085"/>
  <unicode hex="0047"/>
  <anchor x="493" y="0" name="bottom"/>
  <anchor x="835" y="1139" name="top"/>
  <outline>
    <contour>
      <point x="516" y="-15" type="curve" smooth="yes"/>
      <point x="753" y="-15"/>
      <point x="926" y="165"/>
      <point x="1078" y="604" type="curve" smooth="yes"/>
      <point x="1081" y="613"/>
      <point x="1078" y="616"/>
      <point x="1067" y="616" type="curve" smooth="yes"/>
      <point x="730" y="616" type="line" smooth="yes"/>
      <point x="721" y="616"/>
      <point x="717" y="612"/>
      <point x="714" y="603" type="curve" smooth="yes"/>
      <point x="712" y="597"/>
      <point x="710" y="588"/>
      <point x="721" y="588" type="curve" smooth="yes"/>
      <point x="1041" y="588" type="line"/>
      <point x="895" y="172"/>
      <point x="718" y="15"/>
      <point x="516" y="15" type="curve" smooth="yes"/>
      <point x="339" y="15"/>
      <point x="240" y="143"/>
      <point x="240" y="333" type="curve" smooth="yes"/>
      <point x="240" y="742"/>
      <point x="495" y="1182"/>
      <point x="867" y="1182" type="curve" smooth="yes"/>
      <point x="957" y="1182"/>
      <point x="1026" y="1149"/>
      <point x="1085" y="1064" type="curve" smooth="yes"/>
      <point x="1095" y="1051"/>
      <point x="1100" y="1045"/>
      <point x="1111" y="1052" type="curve" smooth="yes"/>
      <point x="1119" y="1056"/>
      <point x="1123" y="1062"/>
      <point x="1116" y="1074" type="curve" smooth="yes"/>
      <point x="1059" y="1166"/>
      <point x="977" y="1212"/>
      <point x="866" y="1212" type="curve" smooth="yes"/>
      <point x="477" y="1212"/>
      <point x="207" y="767"/>
      <point x="207" y="333" type="curve" smooth="yes"/>
      <point x="207" y="122"/>
      <point x="313" y="-15"/>
    </contour>
  </outline>
</glyph>
<glyph name="H" format="2">
  <advance width="1375"/>
  <unicode hex="0048"/>
  <anchor x="606" y="0" name="bottom"/>
  <anchor x="981" y="1150" name="center"/>
  <anchor x="1043" y="1424" name="top"/>
  <outline>
    <contour>
      <point x="178" y="-14" type="curve" smooth="yes"/>
      <point x="194" y="-14"/>
      <point x="198" y="-10"/>
      <point x="201" y="1" type="curve" smooth="yes"/>
      <point x="449" y="763" type="line"/>
      <point x="1258" y="763" type="line"/>
      <point x="1014" y="1" type="line" smooth="yes"/>
      <point x="1010" y="-10"/>
      <point x="1016" y="-14"/>
      <point x="1029" y="-14" type="curve" smooth="yes"/>
      <point x="1045" y="-14"/>
      <point x="1049" y="-10"/>
      <point x="1053" y="1" type="curve" smooth="yes"/>
      <point x="1536" y="1500" type="line" smooth="yes"/>
      <point x="1540" y="1511"/>
      <point x="1534" y="1515"/>
      <point x="1521" y="1515" type="curve" smooth="yes"/>
      <point x="1505" y="1515"/>
      <point x="1501" y="1511"/>
      <point x="1498" y="1500" type="curve" smooth="yes"/>
      <point x="1269" y="798" type="line"/>
      <point x="460" y="798" type="line"/>
      <point x="685" y="1500" type="line" smooth="yes"/>
      <point x="689" y="1511"/>
      <point x="683" y="1515"/>
      <point x="670" y="1515" type="curve" smooth="yes"/>
      <point x="654" y="1515"/>
      <point x="650" y="1511"/>
      <point x="646" y="1500" type="curve" smooth="yes"/>
      <point x="163" y="1" type="line" smooth="yes"/>
      <point x="159" y="-10"/>
      <point x="165" y="-14"/>
    </contour>
  </outline>
</glyph>
<glyph name="I" format="2">
  <advance width="523"/>
  <unicode hex="0049"/>
  <anchor x="181" y="0" name="bottom"/>
  <anchor x="200" y="0" name="ogonek"/>
  <anchor x="633" y="1424" name="top"/>
  <outline>
    <contour>
      <point x="178" y="-14" type="curve" smooth="yes"/>
      <point x="194" y="-14"/>
      <point x="198" y="-10"/>
      <point x="201" y="1" type="curve" smooth="yes"/>
      <point x="685" y="1500" type="line" smooth="yes"/>
      <point x="689" y="1511"/>
      <point x="683" y="1515"/>
      <point x="670" y="1515" type="curve" smooth="yes"/>
      <point x="654" y="1515"/>
      <point x="650" y="1511"/>
      <point x="646" y="1500" type="curve" smooth="yes"/>
      <point x="163" y="1" type="line" smooth="yes"/>
      <point x="159" y="-10"/>
      <point x="165" y="-14"/>
    </contour>
  </outline>
</glyph>
<glyph name="J" format="2">
	<unicode hex="004A"/>
	<advance width="805"/>
	<outline>
		<contour>
			<point x="326" y="-15" type="curve" smooth="yes"/>
			<point x="499" y="-15"/>
			<point x="597" y="86"/>
			<point x="684" y="353" type="curve" smooth="yes"/>
			<point x="960" y="1200" type="line" smooth="yes"/>
			<point x="963" y="1208"/>
			<point x="960" y="1212"/>
			<point x="948" y="1212" type="curve" smooth="yes"/>
			<point x="935" y="1212"/>
			<point x="932" y="1209"/>
			<point x="929" y="1200" type="curve" smooth="yes"/>
			<point x="650" y="349" type="line" smooth="yes"/>
			<point x="571" y="107"/>
			<point x="484" y="15"/>
			<point x="334" y="15" type="curve" smooth="yes"/>
			<point x="203" y="15"/>
			<point x="145" y="77"/>
			<point x="139" y="224" type="curve" smooth="yes"/>
			<point x="139" y="232"/>
			<point x="136" y="238"/>
			<point x="124" y="237" type="curve" smooth="yes"/>
			<point x="110" y="236"/>
			<point x="109" y="227"/>
			<point x="110" y="206" type="curve" smooth="yes"/>
			<point x="116" y="62"/>
			<point x="191" y="-15"/>
		</contour>
	</outline>
	<anchor name="bottom" x="338" y="0"/>
	<anchor name="top" x="915" y="1139"/>
</glyph>
<glyph name="K" format="2">
	<unicode hex="004B"/>
	<advance width="852"/>
	<outline>
		<contour>
			<point x="139" y="-11" type="curve" smooth="yes"/>
			<point x="150" y="-11"/>
			<point x="157" y="-8"/>
			<point x="160" y="1" type="curve" smooth="yes"/>
			<point x="363" y="627" type="line"/>
			<point x="469" y="359"/>
			<point x="584" y="182"/>
			<point x="739" y="1" type="curve" smooth="yes"/>
			<point x="749" y="-11"/>
			<point x="755" y="-15"/>
			<point x="765" y="-8" type="curve" smooth="yes"/>
			<point x="774" y="-1"/>
			<point x="774" y="5"/>
			<point x="767" y="13" type="curve" smooth="yes"/>
			<point x="615" y="189"/>
			<point x="496" y="371"/>
			<point x="396" y="627" type="curve"/>
			<point x="1086" y="1183" type="line" smooth="yes"/>
			<point x="1094" y="1189"/>
			<point x="1095" y="1194"/>
			<point x="1088" y="1203" type="curve" smooth="yes"/>
			<point x="1080" y="1212"/>
			<point x="1075" y="1210"/>
			<point x="1063" y="1200" type="curve" smooth="yes"/>
			<point x="367" y="638" type="line"/>
			<point x="549" y="1200" type="line" smooth="yes"/>
			<point x="552" y="1209"/>
			<point x="547" y="1212"/>
			<point x="536" y="1212" type="curve" smooth="yes"/>
			<point x="525" y="1212"/>
			<point x="520" y="1209"/>
			<point x="517" y="1200" type="curve" smooth="yes"/>
			<point x="128" y="1" type="line" smooth="yes"/>
			<point x="125" y="-8"/>
			<point x="128" y="-11"/>
		</contour>
	</outline>
	<anchor name="bottom" x="406" y="0"/>
	<anchor name="top" x="778" y="1139"/>
</glyph>
<glyph name="L" format="2">
	<unicode hex="004C"/>
	<advance width="775"/>
	<outline>
		<contour>
			<point x="144" y="0" type="curve" smooth="yes"/>
			<point x="659" y="0" type="line" smooth="yes"/>
			<point x="669" y="0"/>
			<point x="673" y="3"/>
			<point x="676" y="14" type="curve" smooth="yes"/>
			<point x="678" y="23"/>
			<point x="678" y="28"/>
			<point x="667" y="28" type="curve" smooth="yes"/>
			<point x="168" y="28" type="line"/>
			<point x="548" y="1200" type="line" smooth="yes"/>
			<point x="551" y="1209"/>
			<point x="546" y="1212"/>
			<point x="536" y="1212" type="curve" smooth="yes"/>
			<point x="523" y="1212"/>
			<point x="520" y="1209"/>
			<point x="517" y="1200" type="curve" smooth="yes"/>
			<point x="132" y="12" type="line" smooth="yes"/>
			<point x="129" y="3"/>
			<point x="134" y="0"/>
		</contour>
	</outline>
	<anchor name="bottom" x="400" y="0"/>
	<anchor name="center" x="339" y="612"/>
	<anchor name="centerCase" x="370" y="612"/>
	<anchor name="top" x="514" y="1139"/>
	<anchor name="topright" x="586" y="1190"/>
</glyph>
<glyph name="N" format="2">
  <advance width="1375"/>
  <unicode hex="004E"/>
  <anchor x="606" y="0" name="bottom"/>
  <anchor x="1071" y="1424" name="top"/>
  <outline>
    <contour>
      <point x="178" y="-14" type="curve" smooth="yes"/>
      <point x="194" y="-14"/>
      <point x="198" y="-10"/>
      <point x="201" y="1" type="curve" smooth="yes"/>
      <point x="666" y="1440" type="line"/>
      <point x="1013" y="-1" type="line" smooth="yes"/>
      <point x="1015" y="-11"/>
      <point x="1020" y="-14"/>
      <point x="1034" y="-14" type="curve" smooth="yes"/>
      <point x="1046" y="-14"/>
      <point x="1050" y="-10"/>
      <point x="1054" y="1" type="curve" smooth="yes"/>
      <point x="1536" y="1500" type="line" smooth="yes"/>
      <point x="1540" y="1511"/>
      <point x="1534" y="1515"/>
      <point x="1521" y="1515" type="curve" smooth="yes"/>
      <point x="1506" y="1515"/>
      <point x="1503" y="1511"/>
      <point x="1499" y="1500" type="curve" smooth="yes"/>
      <point x="1035" y="61" type="line"/>
      <point x="689" y="1503" type="line" smooth="yes"/>
      <point x="686" y="1513"/>
      <point x="681" y="1515"/>
      <point x="666" y="1515" type="curve" smooth="yes"/>
      <point x="654" y="1515"/>
      <point x="650" y="1511"/>
      <point x="646" y="1500" type="curve" smooth="yes"/>
      <point x="163" y="1" type="line" smooth="yes"/>
      <point x="159" y="-10"/>
      <point x="165" y="-14"/>
    </contour>
  </outline>
</glyph>
<glyph name="O" format="2">
  <advance width="1147"/>
  <unicode hex="004F"/>
  <anchor x="508" y="0" name="bottom"/>
  <anchor x="702" y="595" name="center"/>
  <anchor x="972" y="17" name="ogonek"/>
  <anchor x="850" y="1139" name="top"/>
  <anchor x="1091" y="1139" name="topright"/>
  <outline>
    <contour>
      <point x="546" y="-15" type="curve" smooth="yes"/>
      <point x="909" y="-15"/>
      <point x="1201" y="438"/>
      <point x="1201" y="852" type="curve" smooth="yes"/>
      <point x="1201" y="1077"/>
      <point x="1080" y="1212"/>
      <point x="869" y="1212" type="curve" smooth="yes"/>
      <point x="507" y="1212"/>
      <point x="213" y="799"/>
      <point x="213" y="370" type="curve" smooth="yes"/>
      <point x="213" y="129"/>
      <point x="335" y="-15"/>
    </contour>
    <contour>
      <point x="545" y="15" type="curve" smooth="yes"/>
      <point x="357" y="15"/>
      <point x="246" y="146"/>
      <point x="246" y="370" type="curve" smooth="yes"/>
      <point x="246" y="785"/>
      <point x="528" y="1182"/>
      <point x="869" y="1182" type="curve" smooth="yes"/>
      <point x="1057" y="1182"/>
      <point x="1168" y="1060"/>
      <point x="1168" y="852" type="curve" smooth="yes"/>
      <point x="1168" y="453"/>
      <point x="886" y="15"/>
    </contour>
  </outline>
</glyph>
<glyph name="Q" format="2">
  <advance width="1147"/>
  <unicode hex="0051"/>
  <anchor x="508" y="0" name="bottom"/>
  <anchor x="702" y="595" name="center"/>
  <anchor x="972" y="17" name="ogonek"/>
  <anchor x="850" y="1139" name="top"/>
  <anchor x="1091" y="1139" name="topright"/>
  <outline>
    <contour>
      <point x="753" y="-221" type="curve" smooth="yes"/>
      <point x="762" y="-219"/>
      <point x="765" y="-214"/>
      <point x="762" y="-203" type="curve" smooth="yes"/>
      <point x="646" y="219" type="line" smooth="yes"/>
      <point x="643" y="229"/>
      <point x="639" y="233"/>
      <point x="628" y="230" type="curve" smooth="yes"/>
      <point x="618" y="227"/>
      <point x="615" y="223"/>
      <point x="618" y="212" type="curve" smooth="yes"/>
      <point x="734" y="-210" type="line" smooth="yes"/>
      <point x="737" y="-220"/>
      <point x="742" y="-224"/>
    </contour>
    <component base="O"/>
  </outline>
</glyph>
<glyph name="S" format="2">
  <advance width="1066"/>
  <unicode hex="0053"/>
  <anchor x="489" y="0" name="bottom"/>
  <anchor x="835" y="1424" name="top"/>
  <outline>
    <contour>
      <point x="509" y="-19" type="curve" smooth="yes"/>
      <point x="810" y="-19"/>
      <point x="1000" y="180"/>
      <point x="1000" y="435" type="curve" smooth="yes"/>
      <point x="1000" y="635"/>
      <point x="838" y="728"/>
      <point x="700" y="801" type="curve" smooth="yes"/>
      <point x="568" y="873"/>
      <point x="435" y="946"/>
      <point x="435" y="1099" type="curve" smooth="yes"/>
      <point x="435" y="1313"/>
      <point x="591" y="1478"/>
      <point x="806" y="1478" type="curve" smooth="yes"/>
      <point x="915" y="1478"/>
      <point x="1055" y="1435"/>
      <point x="1170" y="1321" type="curve" smooth="yes"/>
      <point x="1178" y="1314"/>
      <point x="1184" y="1310"/>
      <point x="1195" y="1320" type="curve" smooth="yes"/>
      <point x="1205" y="1329"/>
      <point x="1205" y="1334"/>
      <point x="1195" y="1345" type="curve" smooth="yes"/>
      <point x="1093" y="1455"/>
      <point x="943" y="1515"/>
      <point x="806" y="1515" type="curve" smooth="yes"/>
      <point x="566" y="1515"/>
      <point x="395" y="1341"/>
      <point x="395" y="1099" type="curve" smooth="yes"/>
      <point x="395" y="929"/>
      <point x="539" y="843"/>
      <point x="681" y="766" type="curve" smooth="yes"/>
      <point x="828" y="689"/>
      <point x="960" y="616"/>
      <point x="960" y="425" type="curve" smooth="yes"/>
      <point x="960" y="206"/>
      <point x="791" y="19"/>
      <point x="516" y="19" type="curve" smooth="yes"/>
      <point x="345" y="19"/>
      <point x="229" y="86"/>
      <point x="150" y="178" type="curve" smooth="yes"/>
      <point x="141" y="188"/>
      <point x="135" y="193"/>
      <point x="123" y="183" type="curve" smooth="yes"/>
      <point x="111" y="174"/>
      <point x="114" y="166"/>
      <point x="120" y="158" type="curve" smooth="yes"/>
      <point x="168" y="91"/>
      <point x="301" y="-19"/>
    </contour>
  </outline>
</glyph>
<glyph name="T" format="2">
	<unicode hex="0054"/>
	<advance width="856"/>
	<outline>
		<contour>
			<point x="371" y="-11" type="curve" smooth="yes"/>
			<point x="384" y="-11"/>
			<point x="387" y="-8"/>
			<point x="390" y="1" type="curve" smooth="yes"/>
			<point x="767" y="1162" type="line"/>
			<point x="1120" y="1162" type="line" smooth="yes"/>
			<point x="1130" y="1162"/>
			<point x="1134" y="1165"/>
			<point x="1137" y="1176" type="curve" smooth="yes"/>
			<point x="1139" y="1185"/>
			<point x="1139" y="1190"/>
			<point x="1128" y="1190" type="curve" smooth="yes"/>
			<point x="370" y="1190" type="line" smooth="yes"/>
			<point x="360" y="1190"/>
			<point x="356" y="1187"/>
			<point x="353" y="1177" type="curve" smooth="yes"/>
			<point x="350" y="1167"/>
			<point x="351" y="1162"/>
			<point x="362" y="1162" type="curve" smooth="yes"/>
			<point x="736" y="1162" type="line"/>
			<point x="359" y="1" type="line" smooth="yes"/>
			<point x="356" y="-8"/>
			<point x="361" y="-11"/>
		</contour>
	</outline>
	<anchor name="bottom" x="361" y="0"/>
	<anchor name="center" x="565" y="595"/>
	<anchor name="top" x="729" y="1139"/>
</glyph>
<glyph name="U" format="2">
	<unicode hex="0055"/>
	<advance width="1069"/>
	<outline>
		<contour>
			<point x="493" y="-15" type="curve" smooth="yes"/>
			<point x="724" y="-15"/>
			<point x="850" y="98"/>
			<point x="938" y="363" type="curve" smooth="yes"/>
			<point x="1215" y="1200" type="line" smooth="yes"/>
			<point x="1218" y="1209"/>
			<point x="1213" y="1212"/>
			<point x="1203" y="1212" type="curve" smooth="yes"/>
			<point x="1190" y="1212"/>
			<point x="1187" y="1209"/>
			<point x="1184" y="1200" type="curve" smooth="yes"/>
			<point x="907" y="363" type="line" smooth="yes"/>
			<point x="826" y="119"/>
			<point x="710" y="15"/>
			<point x="496" y="15" type="curve" smooth="yes"/>
			<point x="275" y="15"/>
			<point x="193" y="148"/>
			<point x="266" y="372" type="curve" smooth="yes"/>
			<point x="535" y="1200" type="line" smooth="yes"/>
			<point x="538" y="1209"/>
			<point x="533" y="1212"/>
			<point x="523" y="1212" type="curve" smooth="yes"/>
			<point x="510" y="1212"/>
			<point x="507" y="1209"/>
			<point x="504" y="1200" type="curve" smooth="yes"/>
			<point x="236" y="374" type="line" smooth="yes"/>
			<point x="157" y="130"/>
			<point x="257" y="-15"/>
		</contour>
	</outline>
	<anchor name="bottom" x="471" y="0"/>
	<anchor name="ogonek" x="676" y="17"/>
	<anchor name="top" x="815" y="1139"/>
	<anchor name="topright" x="1203" y="1207"/>
</glyph>
<glyph name="V" format="2">
	<unicode hex="0056"/>
	<advance width="899"/>
	<outline>
		<contour>
			<point x="423" y="-11" type="curve" smooth="yes"/>
			<point x="433" y="-11"/>
			<point x="436" y="-8"/>
			<point x="441" y="-1" type="curve" smooth="yes"/>
			<point x="1174" y="1193" type="line" smooth="yes"/>
			<point x="1179" y="1202"/>
			<point x="1176" y="1212"/>
			<point x="1163" y="1212" type="curve" smooth="yes"/>
			<point x="1153" y="1212"/>
			<point x="1149" y="1209"/>
			<point x="1144" y="1200" type="curve" smooth="yes"/>
			<point x="434" y="37" type="line"/>
			<point x="402" y="1198" type="line" smooth="yes"/>
			<point x="402" y="1209"/>
			<point x="398" y="1212"/>
			<point x="387" y="1212" type="curve" smooth="yes"/>
			<point x="376" y="1212"/>
			<point x="373" y="1209"/>
			<point x="373" y="1197" type="curve" smooth="yes"/>
			<point x="409" y="1" type="line" smooth="yes"/>
			<point x="409" y="-8"/>
			<point x="413" y="-11"/>
		</contour>
	</outline>
</glyph>
<glyph name="X" format="2">
	<unicode hex="0058"/>
	<advance width="850"/>
	<outline>
		<contour>
			<point x="726" y="-10" type="curve" smooth="yes"/>
			<point x="735" y="-7"/>
			<point x="738" y="-3"/>
			<point x="734" y="10" type="curve" smooth="yes"/>
			<point x="568" y="609" type="line"/>
			<point x="1083" y="1185" type="line" smooth="yes"/>
			<point x="1091" y="1194"/>
			<point x="1094" y="1198"/>
			<point x="1085" y="1207" type="curve" smooth="yes"/>
			<point x="1078" y="1214"/>
			<point x="1074" y="1214"/>
			<point x="1067" y="1206" type="curve" smooth="yes"/>
			<point x="559" y="639" type="line"/>
			<point x="404" y="1199" type="line" smooth="yes"/>
			<point x="401" y="1211"/>
			<point x="397" y="1215"/>
			<point x="385" y="1212" type="curve" smooth="yes"/>
			<point x="377" y="1210"/>
			<point x="373" y="1205"/>
			<point x="376" y="1195" type="curve" smooth="yes"/>
			<point x="536" y="618" type="line"/>
			<point x="1" y="15" type="line" smooth="yes"/>
			<point x="-7" y="6"/>
			<point x="-10" y="2"/>
			<point x="-2" y="-6" type="curve" smooth="yes"/>
			<point x="6" y="-14"/>
			<point x="11" y="-13"/>
			<point x="17" y="-6" type="curve" smooth="yes"/>
			<point x="545" y="588" type="line"/>
			<point x="707" y="4" type="line" smooth="yes"/>
			<point x="710" y="-8"/>
			<point x="714" y="-14"/>
		</contour>
	</outline>
</glyph>
<glyph name="Y" format="2">
  <advance width="1000"/>
  <unicode hex="0059"/>
  <anchor x="435" y="0" name="bottom"/>
  <anchor x="838" y="1424" name="top"/>
  <outline>
    <contour>
      <point x="435" y="-14" type="curve" smooth="yes"/>
      <point x="449" y="-14"/>
      <point x="456" y="-10"/>
      <point x="460" y="1" type="curve" smooth="yes"/>
      <point x="669" y="646" type="line"/>
      <point x="1389" y="1488" type="line" smooth="yes"/>
      <point x="1398" y="1498"/>
      <point x="1396" y="1504"/>
      <point x="1389" y="1511" type="curve" smooth="yes"/>
      <point x="1378" y="1523"/>
      <point x="1371" y="1519"/>
      <point x="1363" y="1509" type="curve" smooth="yes"/>
      <point x="660" y="683" type="line"/>
      <point x="453" y="1500" type="line" smooth="yes"/>
      <point x="450" y="1511"/>
      <point x="448" y="1515"/>
      <point x="434" y="1515" type="curve" smooth="yes"/>
      <point x="424" y="1515"/>
      <point x="415" y="1510"/>
      <point x="420" y="1491" type="curve" smooth="yes"/>
      <point x="634" y="651" type="line"/>
      <point x="421" y="1" type="line" smooth="yes"/>
      <point x="418" y="-10"/>
      <point x="421" y="-14"/>
    </contour>
  </outline>
</glyph>
<glyph name="Z" format="2">
	<unicode hex="005A"/>
	<advance width="760"/>
	<outline>
		<contour>
			<point x="-17" y="0" type="curve" smooth="yes"/>
			<point x="646" y="0" type="line" smooth="yes"/>
			<point x="656" y="0"/>
			<point x="660" y="3"/>
			<point x="663" y="14" type="curve" smooth="yes"/>
			<point x="665" y="23"/>
			<point x="665" y="28"/>
			<point x="654" y="28" type="curve" smooth="yes"/>
			<point x="22" y="28" type="line"/>
			<point x="983" y="1169" type="line" smooth="yes"/>
			<point x="990" y="1177"/>
			<point x="986" y="1190"/>
			<point x="978" y="1190" type="curve" smooth="yes"/>
			<point x="372" y="1190" type="line" smooth="yes"/>
			<point x="362" y="1190"/>
			<point x="358" y="1187"/>
			<point x="355" y="1177" type="curve" smooth="yes"/>
			<point x="352" y="1167"/>
			<point x="353" y="1162"/>
			<point x="364" y="1162" type="curve" smooth="yes"/>
			<point x="939" y="1162" type="line"/>
			<point x="-23" y="20" type="line" smooth="yes"/>
			<point x="-30" y="12"/>
			<point x="-25" y="0"/>
		</contour>
	</outline>
	<anchor name="bottom" x="330" y="0"/>
	<anchor name="center" x="509" y="627"/>
	<anchor name="top" x="637" y="1139"/>
</glyph>
<glyph name="backslash" format="2">
	<unicode hex="005C"/>
	<advance width="420"/>
	<outline>
		<contour>
			<point x="389" y="-61" type="curve" smooth="yes"/>
			<point x="400" y="-60"/>
			<point x="401" y="-54"/>
			<point x="400" y="-45" type="curve" smooth="yes"/>
			<point x="307" y="1248" type="line" smooth="yes"/>
			<point x="306" y="1261"/>
			<point x="301" y="1262"/>
			<point x="291" y="1261" type="curve" smooth="yes"/>
			<point x="280" y="1260"/>
			<point x="279" y="1254"/>
			<point x="280" y="1245" type="curve" smooth="yes"/>
			<point x="373" y="-48" type="line" smooth="yes"/>
			<point x="374" y="-61"/>
			<point x="379" y="-62"/>
		</contour>
	</outline>
</glyph>
<glyph name="asciicircum" format="2">
  <advance width="610"/>
  <unicode hex="005E"/>
  <outline>
    <contour>
      <point x="332" y="901" type="line" smooth="yes"/>
      <point x="324" y="893"/>
      <point x="323" y="886"/>
      <point x="331" y="880" type="curve" smooth="yes"/>
      <point x="339" y="874"/>
      <point x="346" y="875"/>
      <point x="353" y="883" type="curve" smooth="yes"/>
      <point x="624" y="1180" type="line"/>
      <point x="703" y="887" type="line" smooth="yes"/>
      <point x="705" y="879"/>
      <point x="710" y="875"/>
      <point x="721" y="879" type="curve" smooth="yes"/>
      <point x="733" y="883"/>
      <point x="734" y="890"/>
      <point x="732" y="898" type="curve" smooth="yes"/>
      <point x="653" y="1187" type="line" smooth="yes"/>
      <point x="648" y="1204"/>
      <point x="646" y="1212"/>
      <point x="632" y="1212" type="curve" smooth="yes"/>
      <point x="619" y="1212"/>
      <point x="611" y="1204"/>
      <point x="595" y="1187" type="curve" smooth="yes"/>
    </contour>
  </outline>
</glyph>
<glyph name="underscore" format="2">
	<unicode hex="005F"/>
	<advance width="440"/>
	<outline>
		<contour>
			<point x="-40" y="-90" type="curve" smooth="yes"/>
			<point x="293" y="-90" type="line" smooth="yes"/>
			<point x="303" y="-90"/>
			<point x="307" y="-87"/>
			<point x="310" y="-76" type="curve" smooth="yes"/>
			<point x="312" y="-67"/>
			<point x="312" y="-62"/>
			<point x="301" y="-62" type="curve" smooth="yes"/>
			<point x="-32" y="-62" type="line" smooth="yes"/>
			<point x="-42" y="-62"/>
			<point x="-46" y="-65"/>
			<point x="-49" y="-75" type="curve" smooth="yes"/>
			<point x="-52" y="-85"/>
			<point x="-51" y="-90"/>
		</contour>
	</outline>
</glyph>
<glyph name="b" format="2">
	<unicode hex="0062"/>
	<advance width="478"/>
	<outline>
		<contour>
			<point x="42" y="-11" type="curve" smooth="yes"/>
			<point x="53" y="-11"/>
			<point x="57" y="-8"/>
			<point x="60" y="1" type="curve" smooth="yes"/>
			<point x="67" y="24" type="line"/>
			<point x="100" y="0"/>
			<point x="141" y="-14"/>
			<point x="175" y="-14" type="curve" smooth="yes"/>
			<point x="355" y="-14"/>
			<point x="431" y="164"/>
			<point x="431" y="280" type="curve" smooth="yes"/>
			<point x="431" y="363"/>
			<point x="390" y="415"/>
			<point x="320" y="415" type="curve" smooth="yes"/>
			<point x="283" y="415"/>
			<point x="223" y="400"/>
			<point x="168" y="333" type="curve"/>
			<point x="451" y="1201" type="line" smooth="yes"/>
			<point x="454" y="1209"/>
			<point x="447" y="1213"/>
			<point x="437" y="1213" type="curve" smooth="yes"/>
			<point x="425" y="1213"/>
			<point x="422" y="1210"/>
			<point x="419" y="1201" type="curve" smooth="yes"/>
			<point x="30" y="6" type="line" smooth="yes"/>
			<point x="27" y="-3"/>
			<point x="29" y="-11"/>
		</contour>
		<contour>
			<point x="76" y="49" type="curve"/>
			<point x="143" y="255" type="line"/>
			<point x="198" y="354"/>
			<point x="260" y="387"/>
			<point x="314" y="387" type="curve" smooth="yes"/>
			<point x="371" y="387"/>
			<point x="397" y="344"/>
			<point x="397" y="279" type="curve" smooth="yes"/>
			<point x="397" y="170"/>
			<point x="331" y="13"/>
			<point x="180" y="13" type="curve" smooth="yes"/>
			<point x="151" y="13"/>
			<point x="118" y="21"/>
		</contour>
	</outline>
	<anchor name="bottom" x="189" y="0"/>
	<anchor name="center" x="254" y="200"/>
	<anchor name="top" x="319" y="400"/>
</glyph>
<glyph name="d" format="2">
	<unicode hex="0064"/>
	<advance width="503"/>
	<outline>
		<contour>
			<point x="158" y="-14" type="curve" smooth="yes"/>
			<point x="195" y="-14"/>
			<point x="258" y="1"/>
			<point x="313" y="72" type="curve"/>
			<point x="313" y="71"/>
			<point x="312" y="67"/>
			<point x="312" y="65" type="curve" smooth="yes"/>
			<point x="304" y="14"/>
			<point x="329" y="-14"/>
			<point x="371" y="-14" type="curve" smooth="yes"/>
			<point x="418" y="-14"/>
			<point x="446" y="19"/>
			<point x="466" y="53" type="curve" smooth="yes"/>
			<point x="471" y="60"/>
			<point x="470" y="68"/>
			<point x="461" y="72" type="curve" smooth="yes"/>
			<point x="451" y="77"/>
			<point x="445" y="71"/>
			<point x="441" y="65" type="curve" smooth="yes"/>
			<point x="425" y="37"/>
			<point x="402" y="13"/>
			<point x="375" y="13" type="curve" smooth="yes"/>
			<point x="348" y="13"/>
			<point x="331" y="38"/>
			<point x="349" y="92" type="curve" smooth="yes"/>
			<point x="710" y="1195" type="line" smooth="yes"/>
			<point x="713" y="1204"/>
			<point x="711" y="1212"/>
			<point x="698" y="1212" type="curve" smooth="yes"/>
			<point x="687" y="1212"/>
			<point x="683" y="1209"/>
			<point x="680" y="1200" type="curve" smooth="yes"/>
			<point x="412" y="379" type="line"/>
			<point x="380" y="402"/>
			<point x="338" y="415"/>
			<point x="303" y="415" type="curve" smooth="yes"/>
			<point x="122" y="415"/>
			<point x="48" y="237"/>
			<point x="48" y="121" type="curve" smooth="yes"/>
			<point x="48" y="38"/>
			<point x="88" y="-14"/>
		</contour>
		<contour>
			<point x="82" y="122" type="curve" smooth="yes"/>
			<point x="82" y="231"/>
			<point x="148" y="388"/>
			<point x="298" y="388" type="curve" smooth="yes"/>
			<point x="328" y="388"/>
			<point x="361" y="381"/>
			<point x="403" y="353" type="curve"/>
			<point x="337" y="149" type="line"/>
			<point x="281" y="48"/>
			<point x="218" y="14"/>
			<point x="164" y="14" type="curve" smooth="yes"/>
			<point x="107" y="14"/>
			<point x="82" y="57"/>
		</contour>
	</outline>
	<anchor name="bottom" x="157" y="0"/>
	<anchor name="center" x="528" y="758"/>
	<anchor name="top" x="272" y="400"/>
	<anchor name="topright" x="710" y="1195"/>
</glyph>
<glyph name="f" format="2">
  <advance width="293"/>
  <unicode hex="0066"/>
  <outline>
    <contour>
      <point x="-265" y="-815" type="curve" smooth="yes"/>
      <point x="-213" y="-815"/>
      <point x="-174" y="-787"/>
      <point x="-149" y="-712" type="curve" smooth="yes"/>
      <point x="206" y="374" type="line"/>
      <point x="334" y="374" type="line" smooth="yes"/>
      <point x="339" y="374"/>
      <point x="345" y="379"/>
      <point x="347" y="388" type="curve" smooth="yes"/>
      <point x="349" y="397"/>
      <point x="345" y="400"/>
      <point x="340" y="400" type="curve" smooth="yes"/>
      <point x="215" y="400" type="line"/>
      <point x="441" y="1091" type="line" smooth="yes"/>
      <point x="464" y="1161"/>
      <point x="498" y="1188"/>
      <point x="543" y="1188" type="curve" smooth="yes"/>
      <point x="577" y="1188"/>
      <point x="601" y="1170"/>
      <point x="614" y="1155" type="curve" smooth="yes"/>
      <point x="619" y="1150"/>
      <point x="627" y="1149"/>
      <point x="633" y="1154" type="curve" smooth="yes"/>
      <point x="641" y="1160"/>
      <point x="643" y="1165"/>
      <point x="640" y="1171" type="curve" smooth="yes"/>
      <point x="626" y="1194"/>
      <point x="592" y="1215"/>
      <point x="547" y="1215" type="curve" smooth="yes"/>
      <point x="488" y="1215"/>
      <point x="438" y="1185"/>
      <point x="412" y="1107" type="curve" smooth="yes"/>
      <point x="181" y="400" type="line"/>
      <point x="99" y="400" type="line" smooth="yes"/>
      <point x="94" y="400"/>
      <point x="89" y="396"/>
      <point x="87" y="387" type="curve" smooth="yes"/>
      <point x="85" y="378"/>
      <point x="89" y="374"/>
      <point x="94" y="374" type="curve" smooth="yes"/>
      <point x="172" y="374" type="line"/>
      <point x="-178" y="-701" type="line" smooth="yes"/>
      <point x="-199" y="-765"/>
      <point x="-224" y="-788"/>
      <point x="-262" y="-788" type="curve" smooth="yes"/>
      <point x="-291" y="-788"/>
      <point x="-304" y="-772"/>
      <point x="-315" y="-754" type="curve" smooth="yes"/>
      <point x="-319" y="-746"/>
      <point x="-325" y="-744"/>
      <point x="-333" y="-749" type="curve" smooth="yes"/>
      <point x="-342" y="-754"/>
      <point x="-345" y="-761"/>
      <point x="-343" y="-767" type="curve" smooth="yes"/>
      <point x="-335" y="-792"/>
      <point x="-306" y="-815"/>
    </contour>
  </outline>
</glyph>
<glyph name="g" format="2">
	<unicode hex="0067"/>
	<advance width="478"/>
	<outline>
		<contour>
			<point x="-77" y="-815" type="curve" smooth="yes"/>
			<point x="27" y="-815"/>
			<point x="75" y="-752"/>
			<point x="116" y="-627" type="curve" smooth="yes"/>
			<point x="450" y="395" type="line" smooth="yes"/>
			<point x="453" y="404"/>
			<point x="451" y="412"/>
			<point x="438" y="412" type="curve" smooth="yes"/>
			<point x="427" y="412"/>
			<point x="423" y="409"/>
			<point x="420" y="400" type="curve" smooth="yes"/>
			<point x="86" y="-625" type="line" smooth="yes"/>
			<point x="50" y="-736"/>
			<point x="9" y="-787"/>
			<point x="-74" y="-787" type="curve" smooth="yes"/>
			<point x="-129" y="-787"/>
			<point x="-160" y="-770"/>
			<point x="-180" y="-711" type="curve" smooth="yes"/>
			<point x="-182" y="-704"/>
			<point x="-187" y="-701"/>
			<point x="-197" y="-705" type="curve" smooth="yes"/>
			<point x="-208" y="-709"/>
			<point x="-210" y="-715"/>
			<point x="-208" y="-723" type="curve" smooth="yes"/>
			<point x="-190" y="-784"/>
			<point x="-148" y="-815"/>
		</contour>
		<contour>
			<point x="160" y="-14" type="curve" smooth="yes"/>
			<point x="205" y="-14"/>
			<point x="286" y="8"/>
			<point x="348" y="123" type="curve"/>
			<point x="341" y="153" type="line"/>
			<point x="285" y="49"/>
			<point x="221" y="14"/>
			<point x="166" y="14" type="curve" smooth="yes"/>
			<point x="109" y="14"/>
			<point x="84" y="57"/>
			<point x="84" y="122" type="curve" smooth="yes"/>
			<point x="84" y="231"/>
			<point x="150" y="388"/>
			<point x="300" y="388" type="curve" smooth="yes"/>
			<point x="331" y="388"/>
			<point x="366" y="380"/>
			<point x="410" y="350" type="curve"/>
			<point x="419" y="375" type="line"/>
			<point x="387" y="400"/>
			<point x="342" y="415"/>
			<point x="305" y="415" type="curve" smooth="yes"/>
			<point x="124" y="415"/>
			<point x="50" y="237"/>
			<point x="50" y="121" type="curve" smooth="yes"/>
			<point x="50" y="38"/>
			<point x="90" y="-14"/>
		</contour>
	</outline>
	<anchor name="top" x="290" y="400"/>
</glyph>
<glyph name="h" format="2">
	<unicode hex="0068"/>
	<advance width="521"/>
	<outline>
		<contour>
			<point x="395" y="-14" type="curve" smooth="yes"/>
			<point x="442" y="-14"/>
			<point x="473" y="19"/>
			<point x="493" y="53" type="curve" smooth="yes"/>
			<point x="498" y="60"/>
			<point x="497" y="68"/>
			<point x="488" y="72" type="curve" smooth="yes"/>
			<point x="478" y="77"/>
			<point x="472" y="71"/>
			<point x="469" y="65" type="curve" smooth="yes"/>
			<point x="454" y="39"/>
			<point x="426" y="13"/>
			<point x="398" y="13" type="curve" smooth="yes"/>
			<point x="370" y="13"/>
			<point x="358" y="37"/>
			<point x="376" y="93" type="curve" smooth="yes"/>
			<point x="429" y="257" type="line" smooth="yes"/>
			<point x="464" y="366"/>
			<point x="417" y="415"/>
			<point x="336" y="415" type="curve" smooth="yes"/>
			<point x="290" y="415"/>
			<point x="222" y="400"/>
			<point x="166" y="324" type="curve"/>
			<point x="452" y="1199" type="line" smooth="yes"/>
			<point x="455" y="1207"/>
			<point x="449" y="1212"/>
			<point x="439" y="1212" type="curve" smooth="yes"/>
			<point x="427" y="1212"/>
			<point x="423" y="1209"/>
			<point x="420" y="1200" type="curve" smooth="yes"/>
			<point x="28" y="0" type="line" smooth="yes"/>
			<point x="25" y="-8"/>
			<point x="32" y="-12"/>
			<point x="42" y="-12" type="curve" smooth="yes"/>
			<point x="54" y="-12"/>
			<point x="57" y="-9"/>
			<point x="60" y="0" type="curve" smooth="yes"/>
			<point x="142" y="251" type="line"/>
			<point x="195" y="354"/>
			<point x="267" y="387"/>
			<point x="332" y="387" type="curve" smooth="yes"/>
			<point x="406" y="387"/>
			<point x="425" y="339"/>
			<point x="402" y="269" type="curve" smooth="yes"/>
			<point x="347" y="99" type="line" smooth="yes"/>
			<point x="321" y="18"/>
			<point x="347" y="-14"/>
		</contour>
	</outline>
	<anchor name="bottom" x="203" y="0"/>
	<anchor name="center" x="310" y="758"/>
	<anchor name="top" x="418" y="1139"/>
	<guideline x="193" y="507" angle="72"/>
</glyph>
<glyph name="j" format="2">
	<unicode hex="006A"/>
	<advance width="214"/>
	<outline>
		<contour>
			<point x="-282" y="-814" type="curve" smooth="yes"/>
			<point x="-228" y="-814"/>
			<point x="-201" y="-787"/>
			<point x="-175" y="-709" type="curve" smooth="yes"/>
			<point x="188" y="399" type="line" smooth="yes"/>
			<point x="191" y="408"/>
			<point x="184" y="412"/>
			<point x="174" y="412" type="curve" smooth="yes"/>
			<point x="164" y="412"/>
			<point x="159" y="409"/>
			<point x="156" y="400" type="curve" smooth="yes"/>
			<point x="-205" y="-706" type="line" smooth="yes"/>
			<point x="-225" y="-768"/>
			<point x="-242" y="-786"/>
			<point x="-279" y="-786" type="curve" smooth="yes"/>
			<point x="-304" y="-786"/>
			<point x="-322" y="-772"/>
			<point x="-334" y="-743" type="curve" smooth="yes"/>
			<point x="-338" y="-735"/>
			<point x="-344" y="-733"/>
			<point x="-353" y="-738" type="curve" smooth="yes"/>
			<point x="-362" y="-743"/>
			<point x="-364" y="-749"/>
			<point x="-361" y="-757" type="curve" smooth="yes"/>
			<point x="-347" y="-793"/>
			<point x="-317" y="-814"/>
		</contour>
		<contour>
			<point x="220" y="552" type="curve" smooth="yes"/>
			<point x="245" y="552"/>
			<point x="260" y="574"/>
			<point x="260" y="597" type="curve" smooth="yes"/>
			<point x="260" y="613"/>
			<point x="248" y="620"/>
			<point x="231" y="620" type="curve" smooth="yes"/>
			<point x="206" y="620"/>
			<point x="191" y="598"/>
			<point x="191" y="575" type="curve" smooth="yes"/>
			<point x="191" y="559"/>
			<point x="202" y="552"/>
		</contour>
	</outline>
	<guideline x="185" y="489" angle="72"/>
</glyph>
<glyph name="k" format="2">
  <advance width="565"/>
  <unicode hex="006B"/>
  <anchor x="211" y="0" name="bottom"/>
  <anchor x="326" y="838" name="top"/>
  <outline>
    <contour>
      <point x="55" y="-15" type="curve" smooth="yes"/>
      <point x="67" y="-15"/>
      <point x="74" y="-11"/>
      <point x="77" y="0" type="curve" smooth="yes"/>
      <point x="160" y="253" type="line"/>
      <point x="260" y="21"/>
      <point x="290" y="-19"/>
      <point x="355" y="-19" type="curve" smooth="yes"/>
      <point x="379" y="-19"/>
      <point x="422" y="-12"/>
      <point x="494" y="51" type="curve" smooth="yes"/>
      <point x="502" y="59"/>
      <point x="500" y="68"/>
      <point x="494" y="74" type="curve" smooth="yes"/>
      <point x="487" y="80"/>
      <point x="480" y="83"/>
      <point x="470" y="74" type="curve" smooth="yes"/>
      <point x="415" y="29"/>
      <point x="387" y="18"/>
      <point x="360" y="18" type="curve" smooth="yes"/>
      <point x="314" y="18"/>
      <point x="294" y="51"/>
      <point x="199" y="263" type="curve"/>
      <point x="537" y="483" type="line" smooth="yes"/>
      <point x="545" y="488"/>
      <point x="545" y="498"/>
      <point x="540" y="505" type="curve" smooth="yes"/>
      <point x="535" y="513"/>
      <point x="527" y="518"/>
      <point x="512" y="508" type="curve" smooth="yes"/>
      <point x="171" y="288" type="line"/>
      <point x="564" y="1495" type="line" smooth="yes"/>
      <point x="567" y="1506"/>
      <point x="560" y="1515"/>
      <point x="547" y="1515" type="curve" smooth="yes"/>
      <point x="535" y="1515"/>
      <point x="530" y="1511"/>
      <point x="526" y="1500" type="curve" smooth="yes"/>
      <point x="37" y="4" type="line" smooth="yes"/>
      <point x="34" y="-7"/>
      <point x="42" y="-15"/>
    </contour>
  </outline>
</glyph>
<glyph name="l" format="2">
  <advance width="239"/>
  <unicode hex="006C"/>
  <guideline x="182" y="489" angle="72"/>
  <anchor x="255" y="600" name="CAT"/>
  <anchor x="101" y="0" name="bottom"/>
  <anchor x="229" y="580" name="center"/>
  <anchor x="412" y="1138" name="top"/>
  <anchor x="443" y="1200" name="topright"/>
  <outline>
    <contour>
      <point x="104" y="-14" type="curve" smooth="yes"/>
      <point x="151" y="-14"/>
      <point x="182" y="19"/>
      <point x="202" y="53" type="curve" smooth="yes"/>
      <point x="207" y="60"/>
      <point x="206" y="68"/>
      <point x="197" y="72" type="curve" smooth="yes"/>
      <point x="187" y="77"/>
      <point x="181" y="71"/>
      <point x="178" y="65" type="curve" smooth="yes"/>
      <point x="163" y="39"/>
      <point x="135" y="13"/>
      <point x="107" y="13" type="curve" smooth="yes"/>
      <point x="79" y="13"/>
      <point x="67" y="38"/>
      <point x="85" y="93" type="curve" smooth="yes"/>
      <point x="447" y="1199" type="line" smooth="yes"/>
      <point x="450" y="1207"/>
      <point x="444" y="1212"/>
      <point x="434" y="1212" type="curve" smooth="yes"/>
      <point x="422" y="1212"/>
      <point x="418" y="1209"/>
      <point x="415" y="1200" type="curve" smooth="yes"/>
      <point x="55" y="99" type="line" smooth="yes"/>
      <point x="29" y="20"/>
      <point x="56" y="-14"/>
    </contour>
  </outline>
</glyph>
<glyph name="m" format="2">
  <advance width="964"/>
  <unicode hex="006D"/>
  <anchor x="388" y="0" name="bottom"/>
  <anchor x="539" y="500" name="top"/>
  <outline>
    <contour>
      <point x="808" y="-17" type="curve" smooth="yes"/>
      <point x="865" y="-17"/>
      <point x="904" y="24"/>
      <point x="929" y="66" type="curve" smooth="yes"/>
      <point x="935" y="75"/>
      <point x="934" y="85"/>
      <point x="923" y="90" type="curve" smooth="yes"/>
      <point x="910" y="96"/>
      <point x="903" y="89"/>
      <point x="899" y="81" type="curve" smooth="yes"/>
      <point x="880" y="49"/>
      <point x="845" y="16"/>
      <point x="811" y="16" type="curve" smooth="yes"/>
      <point x="776" y="16"/>
      <point x="761" y="46"/>
      <point x="784" y="116" type="curve" smooth="yes"/>
      <point x="850" y="321" type="line" smooth="yes"/>
      <point x="894" y="458"/>
      <point x="839" y="519"/>
      <point x="744" y="519" type="curve" smooth="yes"/>
      <point x="684" y="519"/>
      <point x="581" y="493"/>
      <point x="506" y="346" type="curve"/>
      <point x="510" y="309" type="line"/>
      <point x="576" y="441"/>
      <point x="664" y="484"/>
      <point x="739" y="484" type="curve" smooth="yes"/>
      <point x="825" y="484"/>
      <point x="845" y="424"/>
      <point x="816" y="336" type="curve" smooth="yes"/>
      <point x="748" y="124" type="line" smooth="yes"/>
      <point x="715" y="23"/>
      <point x="748" y="-17"/>
    </contour>
    <contour>
      <point x="48" y="-15" type="curve" smooth="yes"/>
      <point x="63" y="-15"/>
      <point x="66" y="-11"/>
      <point x="70" y="0" type="curve" smooth="yes"/>
      <point x="233" y="499" type="line" smooth="yes"/>
      <point x="236" y="509"/>
      <point x="229" y="515"/>
      <point x="216" y="515" type="curve" smooth="yes"/>
      <point x="201" y="515"/>
      <point x="198" y="511"/>
      <point x="194" y="500" type="curve" smooth="yes"/>
      <point x="31" y="0" type="line" smooth="yes"/>
      <point x="28" y="-10"/>
      <point x="35" y="-15"/>
    </contour>
    <contour>
      <point x="388" y="-15" type="curve" smooth="yes"/>
      <point x="403" y="-15"/>
      <point x="406" y="-11"/>
      <point x="410" y="0" type="curve"/>
      <point x="515" y="321" type="line" smooth="yes"/>
      <point x="560" y="458"/>
      <point x="504" y="519"/>
      <point x="406" y="519" type="curve" smooth="yes"/>
      <point x="344" y="519"/>
      <point x="241" y="493"/>
      <point x="166" y="346" type="curve"/>
      <point x="170" y="309" type="line"/>
      <point x="236" y="441"/>
      <point x="324" y="484"/>
      <point x="401" y="484" type="curve" smooth="yes"/>
      <point x="490" y="484"/>
      <point x="510" y="424"/>
      <point x="481" y="336" type="curve" smooth="yes"/>
      <point x="371" y="0" type="line"/>
      <point x="368" y="-10"/>
      <point x="375" y="-15"/>
    </contour>
  </outline>
</glyph>
<glyph name="o" format="2">
	<unicode hex="006F"/>
	<advance width="471"/>
	<outline>
		<contour>
			<point x="181" y="-15" type="curve" smooth="yes"/>
			<point x="347" y="-15"/>
			<point x="423" y="163"/>
			<point x="423" y="274" type="curve" smooth="yes"/>
			<point x="423" y="359"/>
			<point x="376" y="415"/>
			<point x="295" y="415" type="curve" smooth="yes"/>
			<point x="132" y="415"/>
			<point x="50" y="251"/>
			<point x="50" y="131" type="curve" smooth="yes"/>
			<point x="50" y="44"/>
			<point x="96" y="-15"/>
		</contour>
		<contour>
			<point x="184" y="13" type="curve" smooth="yes"/>
			<point x="118" y="13"/>
			<point x="82" y="60"/>
			<point x="82" y="131" type="curve" smooth="yes"/>
			<point x="82" y="234"/>
			<point x="156" y="387"/>
			<point x="289" y="387" type="curve" smooth="yes"/>
			<point x="356" y="387"/>
			<point x="390" y="341"/>
			<point x="390" y="273" type="curve" smooth="yes"/>
			<point x="390" y="170"/>
			<point x="322" y="13"/>
		</contour>
	</outline>
	<anchor name="bottom" x="171" y="0"/>
	<anchor name="center" x="236" y="200"/>
	<anchor name="ogonek" x="261" y="0"/>
	<anchor name="top" x="264" y="400"/>
	<anchor name="topright" x="348" y="405"/>
</glyph>
<glyph name="p" format="2">
	<unicode hex="0070"/>
	<advance width="478"/>
	<outline>
		<contour>
			<point x="-218" y="-812" type="curve" smooth="yes"/>
			<point x="-207" y="-812"/>
			<point x="-203" y="-809"/>
			<point x="-200" y="-800" type="curve" smooth="yes"/>
			<point x="67" y="24" type="line"/>
			<point x="100" y="0"/>
			<point x="141" y="-14"/>
			<point x="175" y="-14" type="curve" smooth="yes"/>
			<point x="354" y="-14"/>
			<point x="431" y="164"/>
			<point x="431" y="280" type="curve" smooth="yes"/>
			<point x="431" y="363"/>
			<point x="390" y="415"/>
			<point x="320" y="415" type="curve" smooth="yes"/>
			<point x="283" y="415"/>
			<point x="223" y="400"/>
			<point x="168" y="333" type="curve"/>
			<point x="190" y="400" type="line" smooth="yes"/>
			<point x="193" y="408"/>
			<point x="186" y="412"/>
			<point x="176" y="412" type="curve" smooth="yes"/>
			<point x="164" y="412"/>
			<point x="161" y="409"/>
			<point x="158" y="400" type="curve" smooth="yes"/>
			<point x="-231" y="-799" type="line" smooth="yes"/>
			<point x="-234" y="-807"/>
			<point x="-231" y="-812"/>
		</contour>
		<contour>
			<point x="75" y="49" type="curve"/>
			<point x="142" y="254" type="line"/>
			<point x="198" y="353"/>
			<point x="260" y="387"/>
			<point x="314" y="387" type="curve" smooth="yes"/>
			<point x="371" y="387"/>
			<point x="397" y="344"/>
			<point x="397" y="279" type="curve" smooth="yes"/>
			<point x="397" y="170"/>
			<point x="330" y="13"/>
			<point x="180" y="13" type="curve" smooth="yes"/>
			<point x="151" y="13"/>
			<point x="118" y="21"/>
		</contour>
	</outline>
	<guideline x="80" y="159" angle="72"/>
</glyph>
<glyph name="q" format="2">
	<unicode hex="0071"/>
	<advance width="478"/>
	<outline>
		<contour>
			<point x="160" y="-14" type="curve" smooth="yes"/>
			<point x="197" y="-14"/>
			<point x="257" y="1"/>
			<point x="311" y="68" type="curve"/>
			<point x="28" y="-800" type="line" smooth="yes"/>
			<point x="25" y="-808"/>
			<point x="32" y="-812"/>
			<point x="42" y="-812" type="curve" smooth="yes"/>
			<point x="54" y="-812"/>
			<point x="57" y="-809"/>
			<point x="60" y="-800" type="curve" smooth="yes"/>
			<point x="450" y="395" type="line" smooth="yes"/>
			<point x="453" y="404"/>
			<point x="451" y="412"/>
			<point x="438" y="412" type="curve" smooth="yes"/>
			<point x="427" y="412"/>
			<point x="423" y="409"/>
			<point x="420" y="400" type="curve" smooth="yes"/>
			<point x="413" y="379" type="line"/>
			<point x="382" y="402"/>
			<point x="340" y="415"/>
			<point x="305" y="415" type="curve" smooth="yes"/>
			<point x="124" y="415"/>
			<point x="50" y="237"/>
			<point x="50" y="121" type="curve" smooth="yes"/>
			<point x="50" y="38"/>
			<point x="90" y="-14"/>
		</contour>
		<contour>
			<point x="84" y="122" type="curve" smooth="yes"/>
			<point x="84" y="231"/>
			<point x="150" y="388"/>
			<point x="300" y="388" type="curve" smooth="yes"/>
			<point x="330" y="388"/>
			<point x="363" y="381"/>
			<point x="405" y="353" type="curve"/>
			<point x="337" y="145" type="line"/>
			<point x="282" y="47"/>
			<point x="220" y="14"/>
			<point x="166" y="14" type="curve" smooth="yes"/>
			<point x="109" y="14"/>
			<point x="84" y="57"/>
		</contour>
	</outline>
</glyph>
<glyph name="r" format="2">
	<unicode hex="0072"/>
	<advance width="363"/>
	<outline>
		<contour>
			<point x="39" y="-12" type="curve" smooth="yes"/>
			<point x="49" y="-12"/>
			<point x="54" y="-9"/>
			<point x="57" y="0" type="curve" smooth="yes"/>
			<point x="138" y="248" type="line"/>
			<point x="190" y="346"/>
			<point x="256" y="387"/>
			<point x="315" y="387" type="curve" smooth="yes"/>
			<point x="344" y="387"/>
			<point x="368" y="376"/>
			<point x="381" y="369" type="curve" smooth="yes"/>
			<point x="386" y="366"/>
			<point x="391" y="367"/>
			<point x="399" y="375" type="curve" smooth="yes"/>
			<point x="408" y="385"/>
			<point x="408" y="390"/>
			<point x="403" y="394" type="curve" smooth="yes"/>
			<point x="389" y="405"/>
			<point x="357" y="415"/>
			<point x="324" y="415" type="curve" smooth="yes"/>
			<point x="279" y="415"/>
			<point x="216" y="397"/>
			<point x="162" y="322" type="curve"/>
			<point x="186" y="397" type="line" smooth="yes"/>
			<point x="189" y="406"/>
			<point x="184" y="412"/>
			<point x="174" y="412" type="curve" smooth="yes"/>
			<point x="164" y="412"/>
			<point x="158" y="409"/>
			<point x="155" y="400" type="curve" smooth="yes"/>
			<point x="26" y="2" type="line" smooth="yes"/>
			<point x="23" y="-7"/>
			<point x="29" y="-12"/>
		</contour>
	</outline>
	<anchor name="bottom" x="41" y="0"/>
	<anchor name="top" x="268" y="400"/>
</glyph>
<glyph name="s" format="2">
	<unicode hex="0073"/>
	<advance width="383"/>
	<outline>
		<contour>
			<point x="145" y="-15" type="curve" smooth="yes"/>
			<point x="231" y="-15"/>
			<point x="303" y="33"/>
			<point x="303" y="114" type="curve" smooth="yes"/>
			<point x="303" y="221"/>
			<point x="142" y="205"/>
			<point x="142" y="300" type="curve" smooth="yes"/>
			<point x="142" y="358"/>
			<point x="188" y="388"/>
			<point x="250" y="388" type="curve" smooth="yes"/>
			<point x="295" y="388"/>
			<point x="328" y="370"/>
			<point x="356" y="342" type="curve" smooth="yes"/>
			<point x="361" y="337"/>
			<point x="368" y="336"/>
			<point x="374" y="341" type="curve" smooth="yes"/>
			<point x="382" y="347"/>
			<point x="385" y="352"/>
			<point x="381" y="359" type="curve" smooth="yes"/>
			<point x="367" y="381"/>
			<point x="321" y="415"/>
			<point x="256" y="415" type="curve" smooth="yes"/>
			<point x="175" y="415"/>
			<point x="110" y="376"/>
			<point x="110" y="298" type="curve" smooth="yes"/>
			<point x="110" y="184"/>
			<point x="270" y="202"/>
			<point x="270" y="110" type="curve" smooth="yes"/>
			<point x="270" y="47"/>
			<point x="213" y="13"/>
			<point x="147" y="13" type="curve" smooth="yes"/>
			<point x="92" y="13"/>
			<point x="54" y="39"/>
			<point x="33" y="63" type="curve" smooth="yes"/>
			<point x="27" y="70"/>
			<point x="21" y="70"/>
			<point x="12" y="63" type="curve" smooth="yes"/>
			<point x="5" y="57"/>
			<point x="1" y="50"/>
			<point x="6" y="42" type="curve" smooth="yes"/>
			<point x="19" y="23"/>
			<point x="67" y="-15"/>
		</contour>
	</outline>
	<anchor name="bottom" x="138" y="0"/>
	<anchor name="top" x="255" y="400"/>
</glyph>
<glyph name="t" format="2">
	<unicode hex="0074"/>
	<advance width="310"/>
	<outline>
		<contour>
			<point x="136" y="-14" type="curve" smooth="yes"/>
			<point x="191" y="-14"/>
			<point x="226" y="19"/>
			<point x="245" y="56" type="curve" smooth="yes"/>
			<point x="249" y="63"/>
			<point x="248" y="71"/>
			<point x="239" y="75" type="curve" smooth="yes"/>
			<point x="229" y="80"/>
			<point x="223" y="74"/>
			<point x="220" y="68" type="curve" smooth="yes"/>
			<point x="207" y="39"/>
			<point x="175" y="13"/>
			<point x="139" y="13" type="curve" smooth="yes"/>
			<point x="109" y="13"/>
			<point x="89" y="36"/>
			<point x="111" y="102" type="curve" smooth="yes"/>
			<point x="200" y="374" type="line"/>
			<point x="304" y="374" type="line" smooth="yes"/>
			<point x="314" y="374"/>
			<point x="318" y="377"/>
			<point x="321" y="387" type="curve" smooth="yes"/>
			<point x="324" y="395"/>
			<point x="323" y="400"/>
			<point x="312" y="400" type="curve" smooth="yes"/>
			<point x="208" y="400" type="line"/>
			<point x="264" y="571" type="line" smooth="yes"/>
			<point x="267" y="579"/>
			<point x="261" y="584"/>
			<point x="251" y="584" type="curve" smooth="yes"/>
			<point x="239" y="584"/>
			<point x="235" y="581"/>
			<point x="232" y="572" type="curve" smooth="yes"/>
			<point x="176" y="400" type="line"/>
			<point x="110" y="400" type="line" smooth="yes"/>
			<point x="100" y="400"/>
			<point x="96" y="397"/>
			<point x="93" y="388" type="curve" smooth="yes"/>
			<point x="90" y="379"/>
			<point x="91" y="374"/>
			<point x="102" y="374" type="curve" smooth="yes"/>
			<point x="168" y="374" type="line"/>
			<point x="81" y="108" type="line" smooth="yes"/>
			<point x="51" y="17"/>
			<point x="86" y="-14"/>
		</contour>
	</outline>
	<anchor name="bottom" x="124" y="0"/>
	<anchor name="center" x="160" y="235"/>
	<anchor name="top" x="245" y="558"/>
	<anchor name="topright" x="283" y="625"/>
	<guideline x="189" y="489" angle="72"/>
</glyph>
<glyph name="y" format="2">
	<unicode hex="0079"/>
	<advance width="492"/>
	<outline>
		<contour>
			<point x="160" y="-14" type="curve" smooth="yes"/>
			<point x="204" y="-14"/>
			<point x="272" y="1"/>
			<point x="329" y="76" type="curve"/>
			<point x="100" y="-625" type="line" smooth="yes"/>
			<point x="64" y="-736"/>
			<point x="23" y="-787"/>
			<point x="-60" y="-787" type="curve" smooth="yes"/>
			<point x="-115" y="-787"/>
			<point x="-146" y="-770"/>
			<point x="-166" y="-711" type="curve" smooth="yes"/>
			<point x="-168" y="-704"/>
			<point x="-173" y="-701"/>
			<point x="-183" y="-705" type="curve" smooth="yes"/>
			<point x="-194" y="-709"/>
			<point x="-196" y="-715"/>
			<point x="-194" y="-723" type="curve" smooth="yes"/>
			<point x="-174" y="-784"/>
			<point x="-134" y="-815"/>
			<point x="-63" y="-815" type="curve" smooth="yes"/>
			<point x="41" y="-815"/>
			<point x="89" y="-752"/>
			<point x="130" y="-627" type="curve" smooth="yes"/>
			<point x="464" y="395" type="line" smooth="yes"/>
			<point x="467" y="404"/>
			<point x="465" y="412"/>
			<point x="452" y="412" type="curve" smooth="yes"/>
			<point x="441" y="412"/>
			<point x="437" y="409"/>
			<point x="434" y="400" type="curve" smooth="yes"/>
			<point x="352" y="148" type="line"/>
			<point x="299" y="47"/>
			<point x="227" y="14"/>
			<point x="164" y="14" type="curve" smooth="yes"/>
			<point x="94" y="14"/>
			<point x="75" y="62"/>
			<point x="98" y="132" type="curve" smooth="yes"/>
			<point x="186" y="399" type="line" smooth="yes"/>
			<point x="189" y="407"/>
			<point x="183" y="412"/>
			<point x="173" y="412" type="curve" smooth="yes"/>
			<point x="161" y="412"/>
			<point x="157" y="409"/>
			<point x="154" y="400" type="curve" smooth="yes"/>
			<point x="70" y="144" type="line" smooth="yes"/>
			<point x="34" y="35"/>
			<point x="83" y="-14"/>
		</contour>
	</outline>
	<anchor name="bottom" x="181" y="0"/>
	<anchor name="top" x="297" y="400"/>
</glyph>
<glyph name="bar" format="2">
  <advance width="460"/>
  <unicode hex="007C"/>
  <outline>
    <contour>
      <point x="135" y="-61" type="curve" smooth="yes"/>
      <point x="146" y="-61"/>
      <point x="151" y="-58"/>
      <point x="154" y="-49" type="curve" smooth="yes"/>
      <point x="596" y="1250" type="line" smooth="yes"/>
      <point x="599" y="1259"/>
      <point x="595" y="1262"/>
      <point x="585" y="1262" type="curve" smooth="yes"/>
      <point x="574" y="1262"/>
      <point x="569" y="1259"/>
      <point x="566" y="1250" type="curve" smooth="yes"/>
      <point x="124" y="-49" type="line" smooth="yes"/>
      <point x="121" y="-58"/>
      <point x="124" y="-61"/>
    </contour>
  </outline>
</glyph>
<glyph name="asciitilde" format="2">
  <advance width="763"/>
  <unicode hex="007E"/>
  <outline>
    <contour>
      <point x="581" y="341" type="curve" smooth="yes"/>
      <point x="659" y="341"/>
      <point x="720" y="399"/>
      <point x="748" y="513" type="curve" smooth="yes"/>
      <point x="750" y="523"/>
      <point x="746" y="526"/>
      <point x="734" y="526" type="curve" smooth="yes"/>
      <point x="721" y="526"/>
      <point x="715" y="523"/>
      <point x="713" y="514" type="curve" smooth="yes"/>
      <point x="690" y="414"/>
      <point x="638" y="375"/>
      <point x="581" y="375" type="curve" smooth="yes"/>
      <point x="531" y="375"/>
      <point x="491" y="416"/>
      <point x="446" y="458" type="curve" smooth="yes"/>
      <point x="406" y="495"/>
      <point x="361" y="531"/>
      <point x="303" y="531" type="curve" smooth="yes"/>
      <point x="225" y="531"/>
      <point x="163" y="474"/>
      <point x="135" y="360" type="curve" smooth="yes"/>
      <point x="133" y="350"/>
      <point x="136" y="346"/>
      <point x="149" y="346" type="curve" smooth="yes"/>
      <point x="161" y="346"/>
      <point x="168" y="350"/>
      <point x="170" y="359" type="curve" smooth="yes"/>
      <point x="193" y="459"/>
      <point x="246" y="498"/>
      <point x="303" y="498" type="curve" smooth="yes"/>
      <point x="346" y="498"/>
      <point x="384" y="465"/>
      <point x="421" y="430" type="curve" smooth="yes"/>
      <point x="466" y="388"/>
      <point x="515" y="341"/>
    </contour>
  </outline>
</glyph>
<glyph name="cent" format="2">
  <advance width="821"/>
  <unicode hex="00A2"/>
  <outline>
    <contour>
      <point x="399" y="-19" type="curve" smooth="yes"/>
      <point x="493" y="-19"/>
      <point x="601" y="13"/>
      <point x="711" y="115" type="curve" smooth="yes"/>
      <point x="718" y="121"/>
      <point x="719" y="130"/>
      <point x="714" y="136" type="curve" smooth="yes"/>
      <point x="708" y="146"/>
      <point x="700" y="146"/>
      <point x="693" y="140" type="curve" smooth="yes"/>
      <point x="580" y="39"/>
      <point x="491" y="15"/>
      <point x="405" y="15" type="curve" smooth="yes"/>
      <point x="256" y="15"/>
      <point x="204" y="129"/>
      <point x="204" y="275" type="curve" smooth="yes"/>
      <point x="204" y="598"/>
      <point x="401" y="849"/>
      <point x="644" y="849" type="curve" smooth="yes"/>
      <point x="746" y="849"/>
      <point x="790" y="801"/>
      <point x="834" y="746" type="curve" smooth="yes"/>
      <point x="841" y="736"/>
      <point x="846" y="733"/>
      <point x="858" y="740" type="curve" smooth="yes"/>
      <point x="866" y="748"/>
      <point x="869" y="754"/>
      <point x="861" y="764" type="curve" smooth="yes"/>
      <point x="821" y="820"/>
      <point x="758" y="883"/>
      <point x="649" y="883" type="curve" smooth="yes"/>
      <point x="394" y="883"/>
      <point x="165" y="640"/>
      <point x="165" y="275" type="curve" smooth="yes"/>
      <point x="165" y="93"/>
      <point x="250" y="-19"/>
    </contour>
    <contour>
      <point x="331" y="-126" type="curve" smooth="yes"/>
      <point x="345" y="-126"/>
      <point x="351" y="-122"/>
      <point x="355" y="-111" type="curve" smooth="yes"/>
      <point x="714" y="1003" type="line" smooth="yes"/>
      <point x="718" y="1014"/>
      <point x="713" y="1018"/>
      <point x="700" y="1018" type="curve" smooth="yes"/>
      <point x="686" y="1018"/>
      <point x="680" y="1014"/>
      <point x="676" y="1003" type="curve" smooth="yes"/>
      <point x="318" y="-111" type="line" smooth="yes"/>
      <point x="314" y="-122"/>
      <point x="318" y="-126"/>
    </contour>
  </outline>
</glyph>
<glyph name="sterling" format="2">
  <advance width="837"/>
  <unicode hex="00A3"/>
  <outline>
    <contour>
      <point x="8" y="0" type="curve" smooth="yes"/>
      <point x="708" y="0" type="line" smooth="yes"/>
      <point x="717" y="0"/>
      <point x="720" y="5"/>
      <point x="723" y="15" type="curve" smooth="yes"/>
      <point x="726" y="25"/>
      <point x="723" y="28"/>
      <point x="716" y="28" type="curve" smooth="yes"/>
      <point x="226" y="28" type="line"/>
      <point x="379" y="500" type="line"/>
      <point x="669" y="500" type="line" smooth="yes"/>
      <point x="678" y="500"/>
      <point x="681" y="505"/>
      <point x="684" y="515" type="curve" smooth="yes"/>
      <point x="687" y="525"/>
      <point x="684" y="528"/>
      <point x="677" y="528" type="curve" smooth="yes"/>
      <point x="388" y="528" type="line"/>
      <point x="526" y="956" type="line" smooth="yes"/>
      <point x="578" y="1115"/>
      <point x="651" y="1182"/>
      <point x="780" y="1182" type="curve" smooth="yes"/>
      <point x="858" y="1182"/>
      <point x="932" y="1148"/>
      <point x="1008" y="1072" type="curve" smooth="yes"/>
      <point x="1013" y="1067"/>
      <point x="1021" y="1064"/>
      <point x="1030" y="1073" type="curve" smooth="yes"/>
      <point x="1039" y="1082"/>
      <point x="1036" y="1087"/>
      <point x="1032" y="1092" type="curve" smooth="yes"/>
      <point x="965" y="1167"/>
      <point x="872" y="1212"/>
      <point x="786" y="1212" type="curve" smooth="yes"/>
      <point x="638" y="1212"/>
      <point x="554" y="1137"/>
      <point x="497" y="958" type="curve" smooth="yes"/>
      <point x="358" y="528" type="line"/>
      <point x="208" y="528" type="line" smooth="yes"/>
      <point x="203" y="528"/>
      <point x="198" y="525"/>
      <point x="195" y="515" type="curve" smooth="yes"/>
      <point x="192" y="505"/>
      <point x="194" y="500"/>
      <point x="200" y="500" type="curve" smooth="yes"/>
      <point x="349" y="500" type="line"/>
      <point x="196" y="28" type="line"/>
      <point x="16" y="28" type="line" smooth="yes"/>
      <point x="11" y="28"/>
      <point x="6" y="25"/>
      <point x="3" y="15" type="curve" smooth="yes"/>
      <point x="0" y="5"/>
      <point x="2" y="0"/>
    </contour>
  </outline>
</glyph>
<glyph name="section" format="2">
  <advance width="1033"/>
  <unicode hex="00A7"/>
  <outline>
    <contour>
      <point x="986" y="426" type="curve" smooth="yes"/>
      <point x="986" y="783"/>
      <point x="536" y="774"/>
      <point x="536" y="1144" type="curve" smooth="yes"/>
      <point x="536" y="1343"/>
      <point x="674" y="1475"/>
      <point x="849" y="1478" type="curve" smooth="yes"/>
      <point x="959" y="1478"/>
      <point x="1051" y="1433"/>
      <point x="1163" y="1323" type="curve" smooth="yes"/>
      <point x="1171" y="1314"/>
      <point x="1178" y="1313"/>
      <point x="1188" y="1321" type="curve" smooth="yes"/>
      <point x="1199" y="1331"/>
      <point x="1195" y="1336"/>
      <point x="1188" y="1346" type="curve" smooth="yes"/>
      <point x="1095" y="1459"/>
      <point x="974" y="1515"/>
      <point x="850" y="1515" type="curve" smooth="yes"/>
      <point x="660" y="1513"/>
      <point x="496" y="1378"/>
      <point x="496" y="1144" type="curve" smooth="yes"/>
      <point x="496" y="746"/>
      <point x="946" y="759"/>
      <point x="946" y="426" type="curve" smooth="yes"/>
      <point x="946" y="220"/>
      <point x="789" y="101"/>
      <point x="586" y="30" type="curve"/>
      <point x="616" y="4" type="line"/>
      <point x="830" y="79"/>
      <point x="986" y="220"/>
    </contour>
    <contour>
      <point x="238" y="483" type="curve" smooth="yes"/>
      <point x="238" y="140"/>
      <point x="685" y="149"/>
      <point x="685" y="-252" type="curve" smooth="yes"/>
      <point x="685" y="-472"/>
      <point x="538" y="-632"/>
      <point x="329" y="-632" type="curve" smooth="yes"/>
      <point x="190" y="-632"/>
      <point x="80" y="-569"/>
      <point x="5" y="-474" type="curve" smooth="yes"/>
      <point x="-4" y="-462"/>
      <point x="-10" y="-459"/>
      <point x="-22" y="-469" type="curve" smooth="yes"/>
      <point x="-34" y="-477"/>
      <point x="-31" y="-485"/>
      <point x="-25" y="-495" type="curve" smooth="yes"/>
      <point x="21" y="-566"/>
      <point x="148" y="-670"/>
      <point x="328" y="-670" type="curve" smooth="yes"/>
      <point x="558" y="-670"/>
      <point x="725" y="-495"/>
      <point x="725" y="-252" type="curve" smooth="yes"/>
      <point x="725" y="165"/>
      <point x="278" y="173"/>
      <point x="278" y="483" type="curve" smooth="yes"/>
      <point x="278" y="679"/>
      <point x="409" y="791"/>
      <point x="619" y="869" type="curve"/>
      <point x="585" y="894" type="line"/>
      <point x="360" y="810"/>
      <point x="238" y="674"/>
    </contour>
  </outline>
</glyph>
<glyph name="copyright" format="2">
  <advance width="1125"/>
  <unicode hex="00A9"/>
  <outline>
    <contour>
      <point x="688" y="101" type="curve" smooth="yes"/>
      <point x="945" y="101"/>
      <point x="1131" y="305"/>
      <point x="1131" y="587" type="curve" smooth="yes"/>
      <point x="1131" y="868"/>
      <point x="945" y="1072"/>
      <point x="688" y="1072" type="curve" smooth="yes"/>
      <point x="432" y="1072"/>
      <point x="246" y="868"/>
      <point x="246" y="587" type="curve" smooth="yes"/>
      <point x="246" y="305"/>
      <point x="432" y="101"/>
    </contour>
    <contour>
      <point x="688" y="125" type="curve" smooth="yes"/>
      <point x="447" y="125"/>
      <point x="272" y="319"/>
      <point x="272" y="587" type="curve" smooth="yes"/>
      <point x="272" y="854"/>
      <point x="447" y="1048"/>
      <point x="688" y="1048" type="curve" smooth="yes"/>
      <point x="930" y="1048"/>
      <point x="1105" y="854"/>
      <point x="1105" y="586" type="curve" smooth="yes"/>
      <point x="1105" y="319"/>
      <point x="930" y="125"/>
    </contour>
    <contour>
      <point x="693" y="311" type="curve" smooth="yes"/>
      <point x="750" y="311"/>
      <point x="805" y="342"/>
      <point x="849" y="404" type="curve" smooth="yes"/>
      <point x="852" y="408"/>
      <point x="851" y="414"/>
      <point x="846" y="418" type="curve" smooth="yes"/>
      <point x="840" y="423"/>
      <point x="834" y="424"/>
      <point x="831" y="420" type="curve" smooth="yes"/>
      <point x="788" y="366"/>
      <point x="740" y="339"/>
      <point x="693" y="339" type="curve" smooth="yes"/>
      <point x="583" y="339"/>
      <point x="519" y="434"/>
      <point x="519" y="590" type="curve" smooth="yes"/>
      <point x="519" y="735"/>
      <point x="595" y="840"/>
      <point x="699" y="840" type="curve" smooth="yes"/>
      <point x="745" y="840"/>
      <point x="790" y="819"/>
      <point x="817" y="784" type="curve" smooth="yes"/>
      <point x="821" y="779"/>
      <point x="826" y="778"/>
      <point x="833" y="784" type="curve" smooth="yes"/>
      <point x="838" y="788"/>
      <point x="840" y="793"/>
      <point x="836" y="799" type="curve" smooth="yes"/>
      <point x="804" y="842"/>
      <point x="753" y="867"/>
      <point x="699" y="867" type="curve" smooth="yes"/>
      <point x="577" y="867"/>
      <point x="489" y="751"/>
      <point x="489" y="590" type="curve" smooth="yes"/>
      <point x="489" y="417"/>
      <point x="564" y="311"/>
    </contour>
  </outline>
</glyph>
<glyph name="ordfeminine" format="2">
  <advance width="384"/>
  <unicode hex="00AA"/>
  <outline>
    <contour>
      <point x="400" y="889" type="curve" smooth="yes"/>
      <point x="439" y="889"/>
      <point x="483" y="910"/>
      <point x="518" y="955" type="curve"/>
      <point x="517" y="951"/>
      <point x="517" y="947"/>
      <point x="517" y="945" type="curve" smooth="yes"/>
      <point x="515" y="909"/>
      <point x="531" y="889"/>
      <point x="566" y="889" type="curve" smooth="yes"/>
      <point x="598" y="889"/>
      <point x="621" y="907"/>
      <point x="641" y="941" type="curve" smooth="yes"/>
      <point x="646" y="949"/>
      <point x="643" y="954"/>
      <point x="637" y="957" type="curve" smooth="yes"/>
      <point x="627" y="962"/>
      <point x="622" y="957"/>
      <point x="619" y="952" type="curve" smooth="yes"/>
      <point x="604" y="927"/>
      <point x="588" y="914"/>
      <point x="569" y="914" type="curve" smooth="yes"/>
      <point x="547" y="914"/>
      <point x="538" y="936"/>
      <point x="550" y="971" type="curve" smooth="yes"/>
      <point x="626" y="1202" type="line" smooth="yes"/>
      <point x="629" y="1211"/>
      <point x="626" y="1217"/>
      <point x="614" y="1217" type="curve" smooth="yes"/>
      <point x="603" y="1217"/>
      <point x="601" y="1214"/>
      <point x="598" y="1206" type="curve" smooth="yes"/>
      <point x="593" y="1192" type="line"/>
      <point x="570" y="1209"/>
      <point x="539" y="1220"/>
      <point x="511" y="1220" type="curve" smooth="yes"/>
      <point x="375" y="1220"/>
      <point x="313" y="1088"/>
      <point x="313" y="993" type="curve" smooth="yes"/>
      <point x="313" y="929"/>
      <point x="345" y="889"/>
    </contour>
    <contour>
      <point x="344" y="995" type="curve" smooth="yes"/>
      <point x="344" y="1076"/>
      <point x="393" y="1194"/>
      <point x="508" y="1194" type="curve" smooth="yes"/>
      <point x="531" y="1194"/>
      <point x="555" y="1189"/>
      <point x="586" y="1169" type="curve"/>
      <point x="536" y="1017" type="line"/>
      <point x="495" y="943"/>
      <point x="448" y="915"/>
      <point x="407" y="915" type="curve" smooth="yes"/>
      <point x="363" y="915"/>
      <point x="344" y="947"/>
    </contour>
  </outline>
</glyph>
<glyph name="logicalnot" format="2">
  <advance width="763"/>
  <unicode hex="00AC"/>
  <outline>
    <contour>
      <point x="623" y="170" type="curve" smooth="yes"/>
      <point x="635" y="170"/>
      <point x="643" y="174"/>
      <point x="646" y="185" type="curve" smooth="yes"/>
      <point x="724" y="438" type="line" smooth="yes"/>
      <point x="728" y="449"/>
      <point x="726" y="455"/>
      <point x="713" y="455" type="curve" smooth="yes"/>
      <point x="183" y="455" type="line" smooth="yes"/>
      <point x="170" y="455"/>
      <point x="165" y="451"/>
      <point x="161" y="439" type="curve" smooth="yes"/>
      <point x="158" y="426"/>
      <point x="159" y="420"/>
      <point x="173" y="420" type="curve" smooth="yes"/>
      <point x="683" y="420" type="line"/>
      <point x="610" y="185" type="line" smooth="yes"/>
      <point x="606" y="174"/>
      <point x="611" y="170"/>
    </contour>
  </outline>
</glyph>
<glyph name="degree" format="2">
  <advance width="505"/>
  <unicode hex="00B0"/>
  <outline>
    <contour>
      <point x="525" y="861" type="curve" smooth="yes"/>
      <point x="622" y="861"/>
      <point x="686" y="935"/>
      <point x="686" y="1038" type="curve" smooth="yes"/>
      <point x="686" y="1139"/>
      <point x="622" y="1212"/>
      <point x="525" y="1212" type="curve" smooth="yes"/>
      <point x="429" y="1212"/>
      <point x="365" y="1139"/>
      <point x="365" y="1038" type="curve" smooth="yes"/>
      <point x="365" y="935"/>
      <point x="429" y="861"/>
    </contour>
    <contour>
      <point x="525" y="891" type="curve" smooth="yes"/>
      <point x="450" y="891"/>
      <point x="397" y="943"/>
      <point x="397" y="1038" type="curve" smooth="yes"/>
      <point x="397" y="1131"/>
      <point x="450" y="1182"/>
      <point x="525" y="1182" type="curve" smooth="yes"/>
      <point x="601" y="1182"/>
      <point x="654" y="1131"/>
      <point x="654" y="1038" type="curve" smooth="yes"/>
      <point x="654" y="943"/>
      <point x="601" y="891"/>
    </contour>
  </outline>
</glyph>
<glyph name="paragraph" format="2">
  <advance width="1230"/>
  <unicode hex="00B6"/>
  <outline>
    <contour>
      <point x="437" y="-389" type="curve" smooth="yes"/>
      <point x="450" y="-389"/>
      <point x="456" y="-385"/>
      <point x="460" y="-374" type="curve" smooth="yes"/>
      <point x="1053" y="1453" type="line"/>
      <point x="1294" y="1453" type="line"/>
      <point x="702" y="-374" type="line" smooth="yes"/>
      <point x="698" y="-385"/>
      <point x="702" y="-389"/>
      <point x="715" y="-389" type="curve" smooth="yes"/>
      <point x="729" y="-389"/>
      <point x="735" y="-385"/>
      <point x="739" y="-374" type="curve" smooth="yes"/>
      <point x="1332" y="1453" type="line"/>
      <point x="1517" y="1453" type="line" smooth="yes"/>
      <point x="1523" y="1453"/>
      <point x="1531" y="1459"/>
      <point x="1534" y="1472" type="curve" smooth="yes"/>
      <point x="1538" y="1484"/>
      <point x="1534" y="1488"/>
      <point x="1528" y="1488" type="curve" smooth="yes"/>
      <point x="937" y="1488" type="line" smooth="yes"/>
      <point x="580" y="1488"/>
      <point x="322" y="1241"/>
      <point x="322" y="899" type="curve" smooth="yes"/>
      <point x="322" y="711"/>
      <point x="464" y="596"/>
      <point x="697" y="596" type="curve" smooth="yes"/>
      <point x="738" y="596" type="line"/>
      <point x="423" y="-374" type="line" smooth="yes"/>
      <point x="419" y="-385"/>
      <point x="423" y="-389"/>
    </contour>
  </outline>
</glyph>
<glyph name="ordmasculine" format="2">
  <advance width="454"/>
  <unicode hex="00BA"/>
  <outline>
    <contour>
      <point x="524" y="1110" type="curve" smooth="yes"/>
      <point x="683" y="1110"/>
      <point x="756" y="1281"/>
      <point x="756" y="1388" type="curve" smooth="yes"/>
      <point x="756" y="1470"/>
      <point x="709" y="1525"/>
      <point x="629" y="1525" type="curve" smooth="yes"/>
      <point x="473" y="1525"/>
      <point x="394" y="1366"/>
      <point x="394" y="1253" type="curve" smooth="yes"/>
      <point x="394" y="1169"/>
      <point x="439" y="1110"/>
    </contour>
    <contour>
      <point x="528" y="1144" type="curve" smooth="yes"/>
      <point x="465" y="1144"/>
      <point x="431" y="1188"/>
      <point x="431" y="1254" type="curve" smooth="yes"/>
      <point x="431" y="1348"/>
      <point x="499" y="1491"/>
      <point x="623" y="1491" type="curve" smooth="yes"/>
      <point x="685" y="1491"/>
      <point x="718" y="1450"/>
      <point x="718" y="1385" type="curve" smooth="yes"/>
      <point x="718" y="1291"/>
      <point x="655" y="1144"/>
    </contour>
  </outline>
</glyph>
<glyph name="AE" format="2">
  <advance width="1195"/>
  <unicode hex="00C6"/>
  <anchor x="1140" y="1139" name="top"/>
  <outline>
    <contour>
      <point x="1055" y="0" type="line" smooth="yes"/>
      <point x="1065" y="0"/>
      <point x="1069" y="3"/>
      <point x="1072" y="14" type="curve" smooth="yes"/>
      <point x="1074" y="23"/>
      <point x="1074" y="28"/>
      <point x="1063" y="28" type="curve" smooth="yes"/>
      <point x="608" y="28" type="line"/>
      <point x="973" y="1162" type="line"/>
      <point x="1432" y="1162" type="line" smooth="yes"/>
      <point x="1442" y="1162"/>
      <point x="1446" y="1165"/>
      <point x="1449" y="1176" type="curve" smooth="yes"/>
      <point x="1451" y="1185"/>
      <point x="1451" y="1190"/>
      <point x="1440" y="1190" type="curve" smooth="yes"/>
      <point x="943" y="1190" type="line" smooth="yes"/>
      <point x="933" y="1190"/>
      <point x="929" y="1189"/>
      <point x="924" y="1183" type="curve" smooth="yes"/>
      <point x="-29" y="13" type="line" smooth="yes"/>
      <point x="-38" y="2"/>
      <point x="-37" y="-4"/>
      <point x="-28" y="-9" type="curve" smooth="yes"/>
      <point x="-19" y="-14"/>
      <point x="-12" y="-11"/>
      <point x="-4" y="-1" type="curve" smooth="yes"/>
      <point x="943" y="1162" type="line"/>
      <point x="572" y="12" type="line" smooth="yes"/>
      <point x="569" y="3"/>
      <point x="574" y="0"/>
      <point x="584" y="0" type="curve" smooth="yes"/>
    </contour>
    <contour>
      <point x="1169" y="581" type="line" smooth="yes"/>
      <point x="1175" y="581"/>
      <point x="1180" y="585"/>
      <point x="1183" y="595" type="curve" smooth="yes"/>
      <point x="1186" y="605"/>
      <point x="1183" y="609"/>
      <point x="1178" y="609" type="curve" smooth="yes"/>
      <point x="476" y="609" type="line"/>
      <point x="452" y="581" type="line"/>
    </contour>
  </outline>
</glyph>
<glyph name="multiply" format="2">
  <advance width="610"/>
  <unicode hex="00D7"/>
  <outline>
    <contour>
      <point x="454" y="191" type="curve" smooth="yes"/>
      <point x="462" y="198"/>
      <point x="461" y="203"/>
      <point x="457" y="209" type="curve" smooth="yes"/>
      <point x="255" y="507" type="line" smooth="yes"/>
      <point x="250" y="514"/>
      <point x="246" y="515"/>
      <point x="237" y="509" type="curve" smooth="yes"/>
      <point x="229" y="503"/>
      <point x="230" y="497"/>
      <point x="234" y="491" type="curve" smooth="yes"/>
      <point x="435" y="192" type="line" smooth="yes"/>
      <point x="439" y="186"/>
      <point x="445" y="184"/>
    </contour>
    <contour>
      <point x="134" y="191" type="curve" smooth="yes"/>
      <point x="139" y="184"/>
      <point x="145" y="182"/>
      <point x="152" y="187" type="curve" smooth="yes"/>
      <point x="551" y="488" type="line" smooth="yes"/>
      <point x="560" y="495"/>
      <point x="561" y="501"/>
      <point x="555" y="509" type="curve" smooth="yes"/>
      <point x="550" y="515"/>
      <point x="545" y="519"/>
      <point x="535" y="511" type="curve" smooth="yes"/>
      <point x="138" y="210" type="line" smooth="yes"/>
      <point x="130" y="204"/>
      <point x="128" y="199"/>
    </contour>
  </outline>
</glyph>
<glyph name="Thorn" format="2">
	<unicode hex="00DE"/>
	<advance width="890"/>
	<outline>
		<contour>
			<point x="140" y="-11" type="curve" smooth="yes"/>
			<point x="152" y="-11"/>
			<point x="155" y="-9"/>
			<point x="158" y="1" type="curve" smooth="yes"/>
			<point x="257" y="307" type="line"/>
			<point x="345" y="313"/>
			<point x="424" y="321"/>
			<point x="506" y="332" type="curve" smooth="yes"/>
			<point x="793" y="372"/>
			<point x="963" y="535"/>
			<point x="963" y="771" type="curve" smooth="yes"/>
			<point x="963" y="937"/>
			<point x="867" y="990"/>
			<point x="683" y="990" type="curve" smooth="yes"/>
			<point x="479" y="990" type="line"/>
			<point x="548" y="1200" type="line" smooth="yes"/>
			<point x="551" y="1209"/>
			<point x="546" y="1212"/>
			<point x="536" y="1212" type="curve" smooth="yes"/>
			<point x="523" y="1212"/>
			<point x="520" y="1209"/>
			<point x="517" y="1200" type="curve" smooth="yes"/>
			<point x="128" y="1" type="line" smooth="yes"/>
			<point x="125" y="-8"/>
			<point x="130" y="-11"/>
		</contour>
		<contour>
			<point x="267" y="338" type="curve"/>
			<point x="470" y="962" type="line"/>
			<point x="687" y="962" type="line" smooth="yes"/>
			<point x="844" y="962"/>
			<point x="930" y="915"/>
			<point x="930" y="771" type="curve" smooth="yes"/>
			<point x="930" y="549"/>
			<point x="769" y="396"/>
			<point x="497" y="359" type="curve" smooth="yes"/>
			<point x="431" y="350"/>
			<point x="344" y="341"/>
		</contour>
	</outline>
</glyph>
<glyph name="germandbls" format="2">
  <advance width="700"/>
  <unicode hex="00DF"/>
  <outline>
    <contour>
      <point x="-259" y="-1015" type="curve" smooth="yes"/>
      <point x="-245" y="-1015"/>
      <point x="-239" y="-1010"/>
      <point x="-235" y="-1000" type="curve" smooth="yes"/>
      <point x="496" y="1243" type="line" smooth="yes"/>
      <point x="548" y="1401"/>
      <point x="621" y="1481"/>
      <point x="719" y="1481" type="curve" smooth="yes"/>
      <point x="821" y="1481"/>
      <point x="884" y="1394"/>
      <point x="884" y="1249" type="curve" smooth="yes"/>
      <point x="884" y="918"/>
      <point x="614" y="500"/>
      <point x="390" y="500" type="curve" smooth="yes"/>
      <point x="376" y="500" type="line" smooth="yes"/>
      <point x="370" y="500"/>
      <point x="365" y="496"/>
      <point x="360" y="484" type="curve" smooth="yes"/>
      <point x="356" y="471"/>
      <point x="360" y="468"/>
      <point x="366" y="468" type="curve" smooth="yes"/>
      <point x="373" y="468" type="line" smooth="yes"/>
      <point x="500" y="468"/>
      <point x="560" y="413"/>
      <point x="560" y="305" type="curve" smooth="yes"/>
      <point x="560" y="153"/>
      <point x="446" y="15"/>
      <point x="301" y="15" type="curve" smooth="yes"/>
      <point x="244" y="15"/>
      <point x="208" y="31"/>
      <point x="175" y="49" type="curve" smooth="yes"/>
      <point x="164" y="55"/>
      <point x="158" y="51"/>
      <point x="151" y="40" type="curve" smooth="yes"/>
      <point x="146" y="30"/>
      <point x="146" y="23"/>
      <point x="158" y="16" type="curve" smooth="yes"/>
      <point x="193" y="-2"/>
      <point x="236" y="-19"/>
      <point x="299" y="-19" type="curve" smooth="yes"/>
      <point x="468" y="-19"/>
      <point x="596" y="134"/>
      <point x="596" y="303" type="curve" smooth="yes"/>
      <point x="596" y="402"/>
      <point x="547" y="467"/>
      <point x="459" y="484" type="curve"/>
      <point x="681" y="538"/>
      <point x="920" y="930"/>
      <point x="920" y="1250" type="curve" smooth="yes"/>
      <point x="920" y="1415"/>
      <point x="846" y="1515"/>
      <point x="724" y="1515" type="curve" smooth="yes"/>
      <point x="608" y="1515"/>
      <point x="520" y="1428"/>
      <point x="463" y="1250" type="curve" smooth="yes"/>
      <point x="-271" y="-1000" type="line" smooth="yes"/>
      <point x="-275" y="-1010"/>
      <point x="-271" y="-1015"/>
    </contour>
  </outline>
</glyph>
<glyph name="eth" format="2">
  <advance width="603"/>
  <unicode hex="00F0"/>
  <guideline x="286" y="656" angle="72"/>
  <outline>
    <contour>
      <point x="245" y="-19" type="curve" smooth="yes"/>
      <point x="369" y="-19"/>
      <point x="481" y="86"/>
      <point x="549" y="331" type="curve" smooth="yes"/>
      <point x="631" y="630"/>
      <point x="673" y="1121"/>
      <point x="615" y="1509" type="curve" smooth="yes"/>
      <point x="614" y="1516"/>
      <point x="608" y="1521"/>
      <point x="594" y="1519" type="curve" smooth="yes"/>
      <point x="583" y="1516"/>
      <point x="578" y="1511"/>
      <point x="579" y="1501" type="curve" smooth="yes"/>
      <point x="634" y="1114"/>
      <point x="591" y="634"/>
      <point x="513" y="340" type="curve" smooth="yes"/>
      <point x="450" y="108"/>
      <point x="346" y="16"/>
      <point x="249" y="16" type="curve" smooth="yes"/>
      <point x="166" y="16"/>
      <point x="116" y="75"/>
      <point x="116" y="164" type="curve" smooth="yes"/>
      <point x="116" y="299"/>
      <point x="208" y="484"/>
      <point x="355" y="484" type="curve" smooth="yes"/>
      <point x="419" y="484"/>
      <point x="475" y="454"/>
      <point x="525" y="380" type="curve"/>
      <point x="544" y="409" type="line"/>
      <point x="493" y="481"/>
      <point x="433" y="519"/>
      <point x="361" y="519" type="curve" smooth="yes"/>
      <point x="181" y="519"/>
      <point x="76" y="320"/>
      <point x="76" y="164" type="curve" smooth="yes"/>
      <point x="76" y="55"/>
      <point x="139" y="-19"/>
    </contour>
    <contour>
      <point x="481" y="1148" type="curve" smooth="yes"/>
      <point x="763" y="1260" type="line" smooth="yes"/>
      <point x="773" y="1264"/>
      <point x="774" y="1270"/>
      <point x="771" y="1281" type="curve" smooth="yes"/>
      <point x="768" y="1295"/>
      <point x="760" y="1299"/>
      <point x="750" y="1295" type="curve" smooth="yes"/>
      <point x="470" y="1183" type="line" smooth="yes"/>
      <point x="459" y="1178"/>
      <point x="458" y="1171"/>
      <point x="460" y="1160" type="curve" smooth="yes"/>
      <point x="464" y="1148"/>
      <point x="471" y="1144"/>
    </contour>
  </outline>
</glyph>
<glyph name="thorn" format="2">
  <advance width="478"/>
  <unicode hex="00FE"/>
  <outline>
    <contour>
      <point x="-218" y="-812" type="curve" smooth="yes"/>
      <point x="-207" y="-812"/>
      <point x="-203" y="-809"/>
      <point x="-200" y="-800" type="curve" smooth="yes"/>
      <point x="67" y="24" type="line"/>
      <point x="100" y="0"/>
      <point x="141" y="-14"/>
      <point x="175" y="-14" type="curve" smooth="yes"/>
      <point x="354" y="-14"/>
      <point x="431" y="164"/>
      <point x="431" y="280" type="curve" smooth="yes"/>
      <point x="431" y="363"/>
      <point x="390" y="415"/>
      <point x="320" y="415" type="curve" smooth="yes"/>
      <point x="283" y="415"/>
      <point x="223" y="400"/>
      <point x="168" y="333" type="curve"/>
      <point x="450" y="1200" type="line" smooth="yes"/>
      <point x="453" y="1208"/>
      <point x="446" y="1212"/>
      <point x="436" y="1212" type="curve" smooth="yes"/>
      <point x="424" y="1212"/>
      <point x="421" y="1209"/>
      <point x="418" y="1200" type="curve" smooth="yes"/>
      <point x="-231" y="-799" type="line" smooth="yes"/>
      <point x="-234" y="-807"/>
      <point x="-231" y="-812"/>
    </contour>
    <contour>
      <point x="75" y="49" type="curve"/>
      <point x="142" y="254" type="line"/>
      <point x="198" y="353"/>
      <point x="260" y="387"/>
      <point x="314" y="387" type="curve" smooth="yes"/>
      <point x="371" y="387"/>
      <point x="397" y="344"/>
      <point x="397" y="279" type="curve" smooth="yes"/>
      <point x="397" y="170"/>
      <point x="330" y="13"/>
      <point x="180" y="13" type="curve" smooth="yes"/>
      <point x="151" y="13"/>
      <point x="118" y="21"/>
    </contour>
  </outline>
</glyph>
<glyph name="Eng" format="2">
  <advance width="1100"/>
  <unicode hex="014A"/>
  <outline>
    <contour>
      <point x="786" y="-174" type="curve" smooth="yes"/>
      <point x="1230" y="1200" type="line" smooth="yes"/>
      <point x="1233" y="1209"/>
      <point x="1228" y="1212"/>
      <point x="1218" y="1212" type="curve" smooth="yes"/>
      <point x="1206" y="1212"/>
      <point x="1203" y="1209"/>
      <point x="1200" y="1200" type="curve" smooth="yes"/>
      <point x="829" y="49" type="line"/>
      <point x="551" y="1202" type="line" smooth="yes"/>
      <point x="549" y="1210"/>
      <point x="545" y="1212"/>
      <point x="533" y="1212" type="curve" smooth="yes"/>
      <point x="523" y="1212"/>
      <point x="520" y="1209"/>
      <point x="517" y="1200" type="curve" smooth="yes"/>
      <point x="130" y="1" type="line" smooth="yes"/>
      <point x="127" y="-8"/>
      <point x="132" y="-11"/>
      <point x="142" y="-11" type="curve" smooth="yes"/>
      <point x="155" y="-11"/>
      <point x="158" y="-8"/>
      <point x="161" y="1" type="curve" smooth="yes"/>
      <point x="533" y="1152" type="line"/>
      <point x="811" y="-5" type="line"/>
      <point x="755" y="-175" type="line" smooth="yes"/>
      <point x="720" y="-288"/>
      <point x="687" y="-326"/>
      <point x="623" y="-326" type="curve" smooth="yes"/>
      <point x="582" y="-326"/>
      <point x="543" y="-290"/>
      <point x="530" y="-240" type="curve" smooth="yes"/>
      <point x="528" y="-231"/>
      <point x="522" y="-228"/>
      <point x="511" y="-232" type="curve" smooth="yes"/>
      <point x="503" y="-235"/>
      <point x="499" y="-241"/>
      <point x="501" y="-250" type="curve" smooth="yes"/>
      <point x="516" y="-310"/>
      <point x="566" y="-354"/>
      <point x="620" y="-354" type="curve" smooth="yes"/>
      <point x="702" y="-354"/>
      <point x="744" y="-308"/>
    </contour>
  </outline>
</glyph>
<glyph name="eng" format="2">
  <advance width="613"/>
  <unicode hex="014B"/>
  <outline>
    <contour>
      <point x="386" y="-124" type="curve" smooth="yes"/>
      <point x="531" y="321" type="line" smooth="yes"/>
      <point x="575" y="458"/>
      <point x="516" y="519"/>
      <point x="416" y="519" type="curve" smooth="yes"/>
      <point x="359" y="519"/>
      <point x="274" y="500"/>
      <point x="203" y="404" type="curve"/>
      <point x="234" y="499" type="line" smooth="yes"/>
      <point x="238" y="509"/>
      <point x="230" y="515"/>
      <point x="218" y="515" type="curve" smooth="yes"/>
      <point x="203" y="515"/>
      <point x="198" y="511"/>
      <point x="194" y="500" type="curve" smooth="yes"/>
      <point x="31" y="0" type="line" smooth="yes"/>
      <point x="28" y="-10"/>
      <point x="36" y="-15"/>
      <point x="49" y="-15" type="curve" smooth="yes"/>
      <point x="64" y="-15"/>
      <point x="68" y="-11"/>
      <point x="71" y="0" type="curve" smooth="yes"/>
      <point x="173" y="313" type="line"/>
      <point x="239" y="443"/>
      <point x="330" y="484"/>
      <point x="411" y="484" type="curve" smooth="yes"/>
      <point x="503" y="484"/>
      <point x="525" y="424"/>
      <point x="496" y="336" type="curve" smooth="yes"/>
      <point x="349" y="-120" type="line" smooth="yes"/>
      <point x="324" y="-199"/>
      <point x="303" y="-220"/>
      <point x="256" y="-220" type="curve" smooth="yes"/>
      <point x="225" y="-220"/>
      <point x="203" y="-202"/>
      <point x="188" y="-166" type="curve" smooth="yes"/>
      <point x="183" y="-156"/>
      <point x="175" y="-154"/>
      <point x="164" y="-160" type="curve" smooth="yes"/>
      <point x="153" y="-166"/>
      <point x="150" y="-174"/>
      <point x="154" y="-184" type="curve" smooth="yes"/>
      <point x="171" y="-229"/>
      <point x="209" y="-255"/>
      <point x="253" y="-255" type="curve" smooth="yes"/>
      <point x="320" y="-255"/>
      <point x="355" y="-220"/>
    </contour>
  </outline>
</glyph>
<glyph name="OE" format="2">
	<unicode hex="0152"/>
	<advance width="1085"/>
	<outline>
		<contour>
			<point x="348" y="-15" type="curve" smooth="yes"/>
			<point x="597" y="-15"/>
			<point x="745" y="273"/>
			<point x="745" y="479" type="curve" smooth="yes"/>
			<point x="745" y="624"/>
			<point x="663" y="712"/>
			<point x="530" y="712" type="curve" smooth="yes"/>
			<point x="291" y="712"/>
			<point x="142" y="433"/>
			<point x="142" y="225" type="curve" smooth="yes"/>
			<point x="142" y="67"/>
			<point x="220" y="-15"/>
		</contour>
		<contour>
			<point x="350" y="15" type="curve" smooth="yes"/>
			<point x="240" y="15"/>
			<point x="175" y="86"/>
			<point x="175" y="225" type="curve" smooth="yes"/>
			<point x="175" y="420"/>
			<point x="314" y="682"/>
			<point x="528" y="682" type="curve" smooth="yes"/>
			<point x="644" y="682"/>
			<point x="718" y="611"/>
			<point x="718" y="479" type="curve" smooth="yes"/>
			<point x="718" y="287"/>
			<point x="580" y="15"/>
		</contour>
		<contour>
			<point x="604" y="0" type="curve" smooth="yes"/>
			<point x="945" y="0" type="line" smooth="yes"/>
			<point x="955" y="0"/>
			<point x="959" y="3"/>
			<point x="962" y="14" type="curve" smooth="yes"/>
			<point x="964" y="23"/>
			<point x="964" y="28"/>
			<point x="953" y="28" type="curve" smooth="yes"/>
			<point x="628" y="28" type="line"/>
			<point x="733" y="356" type="line"/>
			<point x="1010" y="356" type="line" smooth="yes"/>
			<point x="1020" y="356"/>
			<point x="1024" y="359"/>
			<point x="1027" y="370" type="curve" smooth="yes"/>
			<point x="1029" y="379"/>
			<point x="1029" y="384"/>
			<point x="1018" y="384" type="curve" smooth="yes"/>
			<point x="742" y="384" type="line"/>
			<point x="835" y="672" type="line"/>
			<point x="1163" y="672" type="line" smooth="yes"/>
			<point x="1173" y="672"/>
			<point x="1177" y="675"/>
			<point x="1180" y="686" type="curve" smooth="yes"/>
			<point x="1182" y="695"/>
			<point x="1182" y="700"/>
			<point x="1171" y="700" type="curve" smooth="yes"/>
			<point x="829" y="700" type="line" smooth="yes"/>
			<point x="816" y="700"/>
			<point x="813" y="697"/>
			<point x="810" y="688" type="curve" smooth="yes"/>
			<point x="592" y="12" type="line" smooth="yes"/>
			<point x="589" y="3"/>
			<point x="594" y="0"/>
		</contour>
	</outline>
	<anchor name="top" x="689" y="670"/>
</glyph>
<glyph name="oe" format="2">
  <advance width="743"/>
  <unicode hex="0153"/>
  <anchor x="439" y="400" name="top"/>
  <outline>
    <contour>
      <point x="181" y="-15" type="curve" smooth="yes"/>
      <point x="339" y="-15"/>
      <point x="419" y="163"/>
      <point x="419" y="274" type="curve" smooth="yes"/>
      <point x="419" y="357"/>
      <point x="366" y="415"/>
      <point x="295" y="415" type="curve" smooth="yes"/>
      <point x="132" y="415"/>
      <point x="50" y="251"/>
      <point x="50" y="131" type="curve" smooth="yes"/>
      <point x="50" y="44"/>
      <point x="96" y="-15"/>
    </contour>
    <contour>
      <point x="184" y="13" type="curve" smooth="yes"/>
      <point x="118" y="13"/>
      <point x="82" y="60"/>
      <point x="82" y="131" type="curve" smooth="yes"/>
      <point x="82" y="234"/>
      <point x="156" y="387"/>
      <point x="289" y="387" type="curve" smooth="yes"/>
      <point x="356" y="387"/>
      <point x="390" y="341"/>
      <point x="390" y="273" type="curve" smooth="yes"/>
      <point x="390" y="170"/>
      <point x="322" y="13"/>
    </contour>
    <contour>
      <point x="511" y="-15" type="curve" smooth="yes"/>
      <point x="582" y="-15"/>
      <point x="639" y="27"/>
      <point x="668" y="55" type="curve" smooth="yes"/>
      <point x="675" y="62"/>
      <point x="671" y="70"/>
      <point x="667" y="74" type="curve" smooth="yes"/>
      <point x="662" y="78"/>
      <point x="657" y="80"/>
      <point x="650" y="74" type="curve" smooth="yes"/>
      <point x="620" y="48"/>
      <point x="578" y="12"/>
      <point x="512" y="12" type="curve" smooth="yes"/>
      <point x="454" y="12"/>
      <point x="407" y="47"/>
      <point x="407" y="137" type="curve" smooth="yes"/>
      <point x="407" y="268"/>
      <point x="491" y="388"/>
      <point x="618" y="388" type="curve" smooth="yes"/>
      <point x="669" y="388"/>
      <point x="699" y="368"/>
      <point x="699" y="329" type="curve" smooth="yes"/>
      <point x="699" y="231"/>
      <point x="549" y="196"/>
      <point x="408" y="194" type="curve"/>
      <point x="399" y="167" type="line"/>
      <point x="553" y="169"/>
      <point x="732" y="201"/>
      <point x="732" y="334" type="curve" smooth="yes"/>
      <point x="732" y="377"/>
      <point x="702" y="415"/>
      <point x="622" y="415" type="curve" smooth="yes"/>
      <point x="486" y="415"/>
      <point x="380" y="293"/>
      <point x="380" y="138" type="curve" smooth="yes"/>
      <point x="380" y="56"/>
      <point x="416" y="-15"/>
    </contour>
  </outline>
</glyph>
<glyph name="tildecomb" format="2">
	<unicode hex="0303"/>
	<outline>
		<contour>
			<point x="-10" y="523" type="curve" smooth="yes"/>
			<point x="0" y="523"/>
			<point x="5" y="527"/>
			<point x="7" y="537" type="curve" smooth="yes"/>
			<point x="15" y="577"/>
			<point x="35" y="597"/>
			<point x="58" y="597" type="curve" smooth="yes"/>
			<point x="108" y="597"/>
			<point x="127" y="526"/>
			<point x="189" y="526" type="curve" smooth="yes"/>
			<point x="234" y="526"/>
			<point x="262" y="556"/>
			<point x="273" y="612" type="curve" smooth="yes"/>
			<point x="275" y="623"/>
			<point x="272" y="627"/>
			<point x="261" y="627" type="curve" smooth="yes"/>
			<point x="251" y="627"/>
			<point x="246" y="624"/>
			<point x="244" y="613" type="curve" smooth="yes"/>
			<point x="238" y="574"/>
			<point x="217" y="554"/>
			<point x="193" y="554" type="curve" smooth="yes"/>
			<point x="143" y="554"/>
			<point x="126" y="625"/>
			<point x="61" y="625" type="curve" smooth="yes"/>
			<point x="18" y="625"/>
			<point x="-11" y="593"/>
			<point x="-21" y="538" type="curve" smooth="yes"/>
			<point x="-23" y="529"/>
			<point x="-19" y="523"/>
		</contour>
	</outline>
	<anchor name="_top" x="65" y="400"/>
	<anchor name="top" x="147" y="654"/>
</glyph>
<glyph name="brevecomb" format="2">
  <unicode hex="0306"/>
  <guideline x="187" y="669" angle="0"/>
  <guideline x="160" y="504" angle="0"/>
  <anchor x="65" y="400" name="_top"/>
  <anchor x="147" y="654" name="top"/>
  <outline>
    <contour>
      <point x="109" y="504" type="curve" smooth="yes"/>
      <point x="183" y="504"/>
      <point x="248" y="559"/>
      <point x="270" y="656" type="curve" smooth="yes"/>
      <point x="272" y="665"/>
      <point x="268" y="669"/>
      <point x="258" y="669" type="curve" smooth="yes"/>
      <point x="248" y="669"/>
      <point x="243" y="665"/>
      <point x="241" y="656" type="curve" smooth="yes"/>
      <point x="223" y="578"/>
      <point x="173" y="536"/>
      <point x="109" y="536" type="curve" smooth="yes"/>
      <point x="53" y="536"/>
      <point x="31" y="578"/>
      <point x="44" y="656" type="curve" smooth="yes"/>
      <point x="46" y="665"/>
      <point x="43" y="669"/>
      <point x="33" y="669" type="curve" smooth="yes"/>
      <point x="23" y="669"/>
      <point x="18" y="665"/>
      <point x="16" y="656" type="curve" smooth="yes"/>
      <point x="-1" y="559"/>
      <point x="33" y="504"/>
    </contour>
  </outline>
</glyph>
<glyph name="dieresiscomb" format="2">
	<unicode hex="0308"/>
	<outline>
		<contour>
			<point x="24" y="552" type="curve" smooth="yes"/>
			<point x="49" y="552"/>
			<point x="64" y="574"/>
			<point x="64" y="597" type="curve" smooth="yes"/>
			<point x="64" y="613"/>
			<point x="52" y="620"/>
			<point x="35" y="620" type="curve" smooth="yes"/>
			<point x="10" y="620"/>
			<point x="-5" y="598"/>
			<point x="-5" y="575" type="curve" smooth="yes"/>
			<point x="-5" y="559"/>
			<point x="6" y="552"/>
		</contour>
		<contour>
			<point x="216" y="552" type="curve" smooth="yes"/>
			<point x="241" y="552"/>
			<point x="256" y="574"/>
			<point x="256" y="597" type="curve" smooth="yes"/>
			<point x="256" y="613"/>
			<point x="244" y="620"/>
			<point x="227" y="620" type="curve" smooth="yes"/>
			<point x="202" y="620"/>
			<point x="187" y="598"/>
			<point x="187" y="575" type="curve" smooth="yes"/>
			<point x="187" y="559"/>
			<point x="198" y="552"/>
		</contour>
	</outline>
	<anchor name="_top" x="65" y="400"/>
	<anchor name="top" x="127" y="589"/>
</glyph>
<glyph name="hookabovecomb" format="2">
  <unicode hex="0309"/>
  <anchor x="65" y="400" name="_top"/>
  <anchor x="136" y="619" name="top"/>
  <outline>
    <contour>
      <point x="126" y="670" type="curve" smooth="yes"/>
      <point x="102" y="670"/>
      <point x="78" y="663"/>
      <point x="59" y="650" type="curve" smooth="yes"/>
      <point x="51" y="644"/>
      <point x="49" y="637"/>
      <point x="52" y="630" type="curve" smooth="yes"/>
      <point x="56" y="623"/>
      <point x="63" y="621"/>
      <point x="71" y="626" type="curve" smooth="yes"/>
      <point x="91" y="637"/>
      <point x="106" y="642"/>
      <point x="124" y="642" type="curve" smooth="yes"/>
      <point x="144" y="642"/>
      <point x="156" y="633"/>
      <point x="156" y="616" type="curve" smooth="yes"/>
      <point x="156" y="597"/>
      <point x="143" y="585"/>
      <point x="119" y="574" type="curve" smooth="yes"/>
      <point x="95" y="563"/>
      <point x="81" y="539"/>
      <point x="86" y="515" type="curve" smooth="yes"/>
      <point x="89" y="500" type="line" smooth="yes"/>
      <point x="92" y="487"/>
      <point x="121" y="491"/>
      <point x="117" y="507" type="curve" smooth="yes"/>
      <point x="115" y="515" type="line" smooth="yes"/>
      <point x="110" y="533"/>
      <point x="119" y="544"/>
      <point x="138" y="554" type="curve" smooth="yes"/>
      <point x="170" y="571"/>
      <point x="187" y="590"/>
      <point x="187" y="616" type="curve" smooth="yes"/>
      <point x="187" y="648"/>
      <point x="163" y="670"/>
    </contour>
  </outline>
</glyph>
<glyph name="ringcomb" format="2">
	<unicode hex="030A"/>
	<outline>
		<contour>
			<point x="104" y="488" type="curve" smooth="yes"/>
			<point x="169" y="488"/>
			<point x="218" y="541"/>
			<point x="218" y="600" type="curve" smooth="yes"/>
			<point x="218" y="651"/>
			<point x="180" y="679"/>
			<point x="138" y="679" type="curve" smooth="yes"/>
			<point x="73" y="679"/>
			<point x="24" y="624"/>
			<point x="24" y="567" type="curve" smooth="yes"/>
			<point x="24" y="515"/>
			<point x="62" y="488"/>
		</contour>
		<contour>
			<point x="104" y="516" type="curve" smooth="yes"/>
			<point x="78" y="516"/>
			<point x="56" y="533"/>
			<point x="56" y="567" type="curve" smooth="yes"/>
			<point x="56" y="608"/>
			<point x="89" y="651"/>
			<point x="138" y="651" type="curve" smooth="yes"/>
			<point x="164" y="651"/>
			<point x="186" y="634"/>
			<point x="186" y="600" type="curve" smooth="yes"/>
			<point x="186" y="558"/>
			<point x="152" y="516"/>
		</contour>
	</outline>
	<anchor name="_top" x="65" y="400"/>
	<anchor name="top" x="147" y="654"/>
</glyph>
<glyph name="horncomb" format="2">
  <unicode hex="031B"/>
  <anchor x="86" y="515" name="_topright"/>
  <outline>
    <contour>
      <point x="240" y="690" type="curve" smooth="yes"/>
      <point x="231" y="711"/>
      <point x="195" y="695"/>
      <point x="201" y="676" type="curve" smooth="yes"/>
      <point x="229" y="590"/>
      <point x="214" y="520"/>
      <point x="86" y="515" type="curve"/>
      <point x="78" y="489" type="line"/>
      <point x="233" y="479"/>
      <point x="283" y="583"/>
    </contour>
  </outline>
</glyph>
<glyph name="dotbelowcomb" format="2">
	<unicode hex="0323"/>
	<outline>
		<contour>
			<point x="-115" y="-170" type="curve" smooth="yes"/>
			<point x="-90" y="-170"/>
			<point x="-75" y="-148"/>
			<point x="-75" y="-125" type="curve" smooth="yes"/>
			<point x="-75" y="-109"/>
			<point x="-87" y="-102"/>
			<point x="-104" y="-102" type="curve" smooth="yes"/>
			<point x="-129" y="-102"/>
			<point x="-144" y="-124"/>
			<point x="-144" y="-147" type="curve" smooth="yes"/>
			<point x="-144" y="-163"/>
			<point x="-133" y="-170"/>
		</contour>
	</outline>
	<anchor name="_bottom" x="-65" y="0"/>
	<anchor name="bottom" x="-115" y="-155"/>
</glyph>
<glyph name="cedillacomb" format="2">
	<unicode hex="0327"/>
	<outline>
		<contour>
			<point x="-109" y="-209" type="curve" smooth="yes"/>
			<point x="-49" y="-209"/>
			<point x="-14" y="-179"/>
			<point x="-14" y="-135" type="curve" smooth="yes"/>
			<point x="-14" y="-91"/>
			<point x="-46" y="-66"/>
			<point x="-103" y="-78" type="curve"/>
			<point x="-97" y="-87" type="line"/>
			<point x="-43" y="0" type="line"/>
			<point x="-69" y="0" type="line"/>
			<point x="-116" y="-74" type="line" smooth="yes"/>
			<point x="-122" y="-84"/>
			<point x="-122" y="-88"/>
			<point x="-120" y="-95" type="curve" smooth="yes"/>
			<point x="-118" y="-101"/>
			<point x="-114" y="-103"/>
			<point x="-107" y="-102" type="curve" smooth="yes"/>
			<point x="-65" y="-97"/>
			<point x="-47" y="-108"/>
			<point x="-47" y="-135" type="curve" smooth="yes"/>
			<point x="-47" y="-166"/>
			<point x="-68" y="-181"/>
			<point x="-104" y="-181" type="curve" smooth="yes"/>
			<point x="-125" y="-181"/>
			<point x="-144" y="-176"/>
			<point x="-160" y="-168" type="curve" smooth="yes"/>
			<point x="-167" y="-165"/>
			<point x="-172" y="-165"/>
			<point x="-178" y="-172" type="curve" smooth="yes"/>
			<point x="-183" y="-179"/>
			<point x="-184" y="-186"/>
			<point x="-177" y="-191" type="curve" smooth="yes"/>
			<point x="-157" y="-206"/>
			<point x="-127" y="-209"/>
		</contour>
	</outline>
	<anchor name="_bottom" x="-65" y="0"/>
	<anchor name="bottom" x="-134" y="-210"/>
</glyph>
<glyph name="ogonekcomb" format="2">
	<unicode hex="0328"/>
	<outline>
		<contour>
			<point x="-109" y="-206" type="curve" smooth="yes"/>
			<point x="-71" y="-206"/>
			<point x="-39" y="-186"/>
			<point x="-15" y="-152" type="curve" smooth="yes"/>
			<point x="-10" y="-146"/>
			<point x="-9" y="-141"/>
			<point x="-15" y="-135" type="curve" smooth="yes"/>
			<point x="-22" y="-128"/>
			<point x="-29" y="-130"/>
			<point x="-33" y="-135" type="curve" smooth="yes"/>
			<point x="-57" y="-166"/>
			<point x="-81" y="-180"/>
			<point x="-104" y="-180" type="curve" smooth="yes"/>
			<point x="-123" y="-180"/>
			<point x="-132" y="-167"/>
			<point x="-132" y="-149" type="curve" smooth="yes"/>
			<point x="-132" y="-96"/>
			<point x="-42" y="-30"/>
			<point x="5" y="0" type="curve"/>
			<point x="5" y="3" type="line"/>
			<point x="-21" y="7" type="line"/>
			<point x="-80" y="-32"/>
			<point x="-163" y="-89"/>
			<point x="-163" y="-153" type="curve" smooth="yes"/>
			<point x="-163" y="-185"/>
			<point x="-140" y="-206"/>
		</contour>
	</outline>
	<anchor name="_ogonek" x="6" y="0"/>
</glyph>
<glyph name="strokelongcomb" format="2">
  <unicode hex="0336"/>
  <anchor x="31" y="343" name="_center"/>
  <outline>
    <contour>
      <point x="-556" y="325" type="curve" smooth="yes"/>
      <point x="599" y="325" type="line" smooth="yes"/>
      <point x="611" y="325"/>
      <point x="616" y="329"/>
      <point x="620" y="343" type="curve" smooth="yes"/>
      <point x="623" y="354"/>
      <point x="623" y="360"/>
      <point x="609" y="360" type="curve" smooth="yes"/>
      <point x="-546" y="360" type="line" smooth="yes"/>
      <point x="-559" y="360"/>
      <point x="-564" y="356"/>
      <point x="-567" y="344" type="curve" smooth="yes"/>
      <point x="-571" y="331"/>
      <point x="-570" y="325"/>
    </contour>
  </outline>
</glyph>
<glyph name="slashshortcomb" format="2">
	<unicode hex="0337"/>
	<outline>
		<contour>
			<point x="-73" y="218" type="curve" smooth="yes"/>
			<point x="132" y="302" type="line" smooth="yes"/>
			<point x="142" y="306"/>
			<point x="146" y="311"/>
			<point x="143" y="321" type="curve" smooth="yes"/>
			<point x="140" y="330"/>
			<point x="136" y="334"/>
			<point x="126" y="330" type="curve" smooth="yes"/>
			<point x="-77" y="247" type="line" smooth="yes"/>
			<point x="-87" y="243"/>
			<point x="-91" y="239"/>
			<point x="-89" y="228" type="curve" smooth="yes"/>
			<point x="-87" y="218"/>
			<point x="-84" y="214"/>
		</contour>
	</outline>
	<anchor name="_center" x="25" y="274"/>
</glyph>
<glyph name="slashlongcomb" format="2">
	<unicode hex="0338"/>
	<outline>
		<contour>
			<point x="-180" y="-12" type="curve" smooth="yes"/>
			<point x="204" y="418" type="line" smooth="yes"/>
			<point x="210" y="425"/>
			<point x="208" y="430"/>
			<point x="202" y="436" type="curve" smooth="yes"/>
			<point x="195" y="443"/>
			<point x="188" y="444"/>
			<point x="182" y="437" type="curve" smooth="yes"/>
			<point x="-202" y="7" type="line" smooth="yes"/>
			<point x="-207" y="1"/>
			<point x="-206" y="-6"/>
			<point x="-199" y="-12" type="curve" smooth="yes"/>
			<point x="-192" y="-18"/>
			<point x="-186" y="-19"/>
		</contour>
	</outline>
	<anchor name="_center" x="0" y="214"/>
</glyph>
<glyph name="Germandbls" format="2">
  <advance width="1325"/>
  <unicode hex="1E9E"/>
  <outline>
    <contour>
      <point x="745" y="-19" type="curve" smooth="yes"/>
      <point x="1018" y="-19"/>
      <point x="1251" y="161"/>
      <point x="1251" y="466" type="curve" smooth="yes"/>
      <point x="1251" y="813"/>
      <point x="966" y="901"/>
      <point x="966" y="1148" type="curve" smooth="yes"/>
      <point x="966" y="1346"/>
      <point x="1133" y="1480"/>
      <point x="1350" y="1480" type="curve" smooth="yes"/>
      <point x="1363" y="1480"/>
      <point x="1368" y="1484"/>
      <point x="1371" y="1498" type="curve" smooth="yes"/>
      <point x="1374" y="1509"/>
      <point x="1374" y="1515"/>
      <point x="1360" y="1515" type="curve" smooth="yes"/>
      <point x="1298" y="1515" type="line" smooth="yes"/>
      <point x="699" y="1515"/>
      <point x="563" y="1280"/>
      <point x="456" y="954" type="curve" smooth="yes"/>
      <point x="149" y="1" type="line" smooth="yes"/>
      <point x="145" y="-10"/>
      <point x="151" y="-14"/>
      <point x="164" y="-14" type="curve" smooth="yes"/>
      <point x="180" y="-14"/>
      <point x="184" y="-10"/>
      <point x="188" y="1" type="curve" smooth="yes"/>
      <point x="493" y="945" type="line" smooth="yes"/>
      <point x="610" y="1311"/>
      <point x="790" y="1458"/>
      <point x="1180" y="1481" type="curve"/>
      <point x="1037" y="1434"/>
      <point x="926" y="1312"/>
      <point x="926" y="1144" type="curve" smooth="yes"/>
      <point x="926" y="880"/>
      <point x="1210" y="796"/>
      <point x="1210" y="466" type="curve" smooth="yes"/>
      <point x="1210" y="185"/>
      <point x="994" y="19"/>
      <point x="746" y="19" type="curve" smooth="yes"/>
      <point x="649" y="19"/>
      <point x="574" y="36"/>
      <point x="490" y="74" type="curve" smooth="yes"/>
      <point x="476" y="80"/>
      <point x="466" y="78"/>
      <point x="460" y="65" type="curve" smooth="yes"/>
      <point x="453" y="50"/>
      <point x="459" y="41"/>
      <point x="476" y="34" type="curve" smooth="yes"/>
      <point x="565" y="-2"/>
      <point x="638" y="-19"/>
    </contour>
  </outline>
</glyph>
<glyph name="endash" format="2">
	<unicode hex="2013"/>
	<advance width="500"/>
	<outline>
		<contour>
			<point x="93" y="260" type="curve" smooth="yes"/>
			<point x="447" y="260" type="line" smooth="yes"/>
			<point x="457" y="260"/>
			<point x="461" y="263"/>
			<point x="464" y="274" type="curve" smooth="yes"/>
			<point x="466" y="283"/>
			<point x="466" y="288"/>
			<point x="455" y="288" type="curve" smooth="yes"/>
			<point x="101" y="288" type="line" smooth="yes"/>
			<point x="91" y="288"/>
			<point x="87" y="285"/>
			<point x="84" y="275" type="curve" smooth="yes"/>
			<point x="81" y="265"/>
			<point x="82" y="260"/>
		</contour>
	</outline>
</glyph>
<glyph name="quoteleft" format="2">
	<unicode hex="2018"/>
	<advance width="145"/>
	<outline>
		<contour>
			<point x="337" y="988" type="curve" smooth="yes"/>
			<point x="353" y="988"/>
			<point x="362" y="995"/>
			<point x="364" y="1008" type="curve" smooth="yes"/>
			<point x="378" y="1095"/>
			<point x="396" y="1135"/>
			<point x="438" y="1187" type="curve" smooth="yes"/>
			<point x="442" y="1192"/>
			<point x="444" y="1195"/>
			<point x="444" y="1198" type="curve" smooth="yes"/>
			<point x="444" y="1205"/>
			<point x="433" y="1215"/>
			<point x="426" y="1215" type="curve" smooth="yes"/>
			<point x="420" y="1215"/>
			<point x="413" y="1209"/>
			<point x="406" y="1203" type="curve" smooth="yes"/>
			<point x="335" y="1133"/>
			<point x="315" y="1040"/>
			<point x="315" y="1005" type="curve" smooth="yes"/>
			<point x="315" y="994"/>
			<point x="321" y="988"/>
		</contour>
	</outline>
</glyph>
<glyph name="bullet" format="2">
  <advance width="459"/>
  <unicode hex="2022"/>
  <outline>
    <contour>
      <point x="194" y="81" type="curve" smooth="yes"/>
      <point x="355" y="81"/>
      <point x="418" y="239"/>
      <point x="418" y="346" type="curve" smooth="yes"/>
      <point x="418" y="429"/>
      <point x="363" y="469"/>
      <point x="285" y="469" type="curve" smooth="yes"/>
      <point x="128" y="469"/>
      <point x="59" y="325"/>
      <point x="59" y="209" type="curve" smooth="yes"/>
      <point x="59" y="125"/>
      <point x="113" y="81"/>
    </contour>
  </outline>
</glyph>
<glyph name="guilsinglright" format="2">
  <advance width="475"/>
  <unicode hex="203A"/>
  <outline>
    <contour>
      <point x="54" y="-9" type="curve" smooth="yes"/>
      <point x="64" y="-19"/>
      <point x="75" y="-14"/>
      <point x="85" y="-4" type="curve" smooth="yes"/>
      <point x="334" y="223" type="line" smooth="yes"/>
      <point x="350" y="238"/>
      <point x="358" y="244"/>
      <point x="358" y="254" type="curve" smooth="yes"/>
      <point x="358" y="260"/>
      <point x="354" y="268"/>
      <point x="348" y="281" type="curve" smooth="yes"/>
      <point x="241" y="503" type="line" smooth="yes"/>
      <point x="239" y="508"/>
      <point x="235" y="514"/>
      <point x="226" y="514" type="curve" smooth="yes"/>
      <point x="213" y="514"/>
      <point x="200" y="504"/>
      <point x="209" y="486" type="curve" smooth="yes"/>
      <point x="319" y="255" type="line"/>
      <point x="54" y="15" type="line" smooth="yes"/>
      <point x="45" y="6"/>
      <point x="46" y="-1"/>
    </contour>
  </outline>
</glyph>
<glyph name="euro" format="2">
  <advance width="961"/>
  <unicode hex="20AC"/>
  <outline>
    <contour>
      <point x="508" y="-15" type="curve" smooth="yes"/>
      <point x="649" y="-15"/>
      <point x="788" y="58"/>
      <point x="896" y="173" type="curve" smooth="yes"/>
      <point x="908" y="186"/>
      <point x="911" y="190"/>
      <point x="902" y="199" type="curve" smooth="yes"/>
      <point x="893" y="208"/>
      <point x="887" y="206"/>
      <point x="876" y="194" type="curve" smooth="yes"/>
      <point x="765" y="76"/>
      <point x="634" y="15"/>
      <point x="511" y="15" type="curve" smooth="yes"/>
      <point x="341" y="15"/>
      <point x="241" y="135"/>
      <point x="241" y="337" type="curve" smooth="yes"/>
      <point x="241" y="745"/>
      <point x="496" y="1182"/>
      <point x="866" y="1182" type="curve" smooth="yes"/>
      <point x="965" y="1182"/>
      <point x="1039" y="1141"/>
      <point x="1094" y="1061" type="curve" smooth="yes"/>
      <point x="1104" y="1046"/>
      <point x="1110" y="1043"/>
      <point x="1119" y="1049" type="curve" smooth="yes"/>
      <point x="1129" y="1055"/>
      <point x="1128" y="1062"/>
      <point x="1118" y="1078" type="curve" smooth="yes"/>
      <point x="1066" y="1162"/>
      <point x="972" y="1212"/>
      <point x="867" y="1212" type="curve" smooth="yes"/>
      <point x="481" y="1212"/>
      <point x="208" y="768"/>
      <point x="208" y="341" type="curve" smooth="yes"/>
      <point x="208" y="117"/>
      <point x="319" y="-15"/>
    </contour>
    <contour>
      <point x="156" y="653" type="curve" smooth="yes"/>
      <point x="848" y="653" type="line" smooth="yes"/>
      <point x="853" y="653"/>
      <point x="859" y="658"/>
      <point x="862" y="668" type="curve" smooth="yes"/>
      <point x="865" y="678"/>
      <point x="862" y="681"/>
      <point x="857" y="681" type="curve" smooth="yes"/>
      <point x="165" y="681" type="line" smooth="yes"/>
      <point x="160" y="681"/>
      <point x="155" y="677"/>
      <point x="152" y="667" type="curve" smooth="yes"/>
      <point x="149" y="657"/>
      <point x="151" y="653"/>
    </contour>
    <contour>
      <point x="114" y="509" type="curve" smooth="yes"/>
      <point x="806" y="509" type="line" smooth="yes"/>
      <point x="811" y="509"/>
      <point x="816" y="514"/>
      <point x="819" y="524" type="curve" smooth="yes"/>
      <point x="823" y="534"/>
      <point x="820" y="537"/>
      <point x="815" y="537" type="curve" smooth="yes"/>
      <point x="123" y="537" type="line" smooth="yes"/>
      <point x="118" y="537"/>
      <point x="112" y="533"/>
      <point x="109" y="523" type="curve" smooth="yes"/>
      <point x="106" y="513"/>
      <point x="109" y="509"/>
    </contour>
  </outline>
</glyph>
<glyph name="trademark" format="2">
  <advance width="960"/>
  <unicode hex="2122"/>
  <outline>
    <contour>
      <point x="538" y="1043" type="curve" smooth="yes"/>
      <point x="549" y="1043"/>
      <point x="556" y="1046"/>
      <point x="556" y="1055" type="curve" smooth="yes"/>
      <point x="556" y="1455" type="line"/>
      <point x="690" y="1455" type="line" smooth="yes"/>
      <point x="698" y="1455"/>
      <point x="701" y="1460"/>
      <point x="701" y="1471" type="curve" smooth="yes"/>
      <point x="701" y="1483"/>
      <point x="698" y="1488"/>
      <point x="690" y="1488" type="curve" smooth="yes"/>
      <point x="386" y="1488" type="line" smooth="yes"/>
      <point x="379" y="1488"/>
      <point x="375" y="1484"/>
      <point x="375" y="1471" type="curve" smooth="yes"/>
      <point x="375" y="1459"/>
      <point x="379" y="1455"/>
      <point x="386" y="1455" type="curve" smooth="yes"/>
      <point x="520" y="1455" type="line"/>
      <point x="520" y="1055" type="line" smooth="yes"/>
      <point x="520" y="1046"/>
      <point x="526" y="1043"/>
    </contour>
    <contour>
      <point x="794" y="1043" type="curve" smooth="yes"/>
      <point x="805" y="1043"/>
      <point x="811" y="1045"/>
      <point x="811" y="1054" type="curve" smooth="yes"/>
      <point x="811" y="1410" type="line"/>
      <point x="953" y="1171" type="line" smooth="yes"/>
      <point x="956" y="1164"/>
      <point x="963" y="1163"/>
      <point x="973" y="1163" type="curve" smooth="yes"/>
      <point x="981" y="1163"/>
      <point x="986" y="1164"/>
      <point x="991" y="1173" type="curve" smooth="yes"/>
      <point x="1133" y="1410" type="line"/>
      <point x="1133" y="1054" type="line" smooth="yes"/>
      <point x="1133" y="1045"/>
      <point x="1140" y="1043"/>
      <point x="1150" y="1043" type="curve" smooth="yes"/>
      <point x="1161" y="1043"/>
      <point x="1168" y="1045"/>
      <point x="1168" y="1054" type="curve" smooth="yes"/>
      <point x="1168" y="1476" type="line" smooth="yes"/>
      <point x="1168" y="1484"/>
      <point x="1163" y="1488"/>
      <point x="1150" y="1488" type="curve" smooth="yes"/>
      <point x="1140" y="1488"/>
      <point x="1135" y="1484"/>
      <point x="1131" y="1476" type="curve" smooth="yes"/>
      <point x="973" y="1204" type="line"/>
      <point x="813" y="1476" type="line" smooth="yes"/>
      <point x="809" y="1484"/>
      <point x="804" y="1488"/>
      <point x="794" y="1488" type="curve" smooth="yes"/>
      <point x="783" y="1488"/>
      <point x="776" y="1484"/>
      <point x="776" y="1476" type="curve" smooth="yes"/>
      <point x="776" y="1054" type="line" smooth="yes"/>
      <point x="776" y="1045"/>
      <point x="784" y="1043"/>
    </contour>
  </outline>
</glyph>
<glyph name="product" format="2">
  <advance width="763"/>
  <unicode hex="220F"/>
  <outline>
    <contour>
      <point x="73" y="-82" type="curve" smooth="yes"/>
      <point x="86" y="-82"/>
      <point x="93" y="-79"/>
      <point x="95" y="-67" type="curve" smooth="yes"/>
      <point x="390" y="840" type="line"/>
      <point x="755" y="840" type="line"/>
      <point x="460" y="-67" type="line" smooth="yes"/>
      <point x="458" y="-79"/>
      <point x="461" y="-82"/>
      <point x="475" y="-82" type="curve" smooth="yes"/>
      <point x="489" y="-82"/>
      <point x="495" y="-79"/>
      <point x="498" y="-67" type="curve" smooth="yes"/>
      <point x="793" y="840" type="line"/>
      <point x="918" y="840" type="line" smooth="yes"/>
      <point x="924" y="840"/>
      <point x="931" y="846"/>
      <point x="935" y="859" type="curve" smooth="yes"/>
      <point x="939" y="871"/>
      <point x="935" y="875"/>
      <point x="929" y="875" type="curve" smooth="yes"/>
      <point x="239" y="875" type="line" smooth="yes"/>
      <point x="233" y="875"/>
      <point x="226" y="870"/>
      <point x="223" y="858" type="curve" smooth="yes"/>
      <point x="219" y="845"/>
      <point x="221" y="840"/>
      <point x="228" y="840" type="curve" smooth="yes"/>
      <point x="353" y="840" type="line"/>
      <point x="58" y="-67" type="line" smooth="yes"/>
      <point x="55" y="-79"/>
      <point x="59" y="-82"/>
    </contour>
  </outline>
</glyph>
<glyph name="minus" format="2">
	<unicode hex="2212"/>
	<advance width="610"/>
	<outline>
		<contour>
			<point x="138" y="336" type="curve" smooth="yes"/>
			<point x="562" y="336" type="line" smooth="yes"/>
			<point x="572" y="336"/>
			<point x="576" y="339"/>
			<point x="579" y="350" type="curve" smooth="yes"/>
			<point x="581" y="359"/>
			<point x="581" y="364"/>
			<point x="570" y="364" type="curve" smooth="yes"/>
			<point x="146" y="364" type="line" smooth="yes"/>
			<point x="136" y="364"/>
			<point x="132" y="361"/>
			<point x="129" y="351" type="curve" smooth="yes"/>
			<point x="126" y="341"/>
			<point x="127" y="336"/>
		</contour>
	</outline>
</glyph>
<glyph name="integral" format="2">
  <advance width="405"/>
  <unicode hex="222B"/>
  <outline>
    <contour>
      <point x="-21" y="-60" type="curve" smooth="yes"/>
      <point x="62" y="-60"/>
      <point x="103" y="-10"/>
      <point x="137" y="63" type="curve" smooth="yes"/>
      <point x="382" y="592" type="line" smooth="yes"/>
      <point x="412" y="658"/>
      <point x="439" y="687"/>
      <point x="506" y="687" type="curve" smooth="yes"/>
      <point x="518" y="687"/>
      <point x="520" y="695"/>
      <point x="520" y="703" type="curve" smooth="yes"/>
      <point x="520" y="709"/>
      <point x="518" y="715"/>
      <point x="509" y="715" type="curve" smooth="yes"/>
      <point x="426" y="715"/>
      <point x="385" y="665"/>
      <point x="351" y="592" type="curve" smooth="yes"/>
      <point x="106" y="63" type="line" smooth="yes"/>
      <point x="76" y="-3"/>
      <point x="49" y="-32"/>
      <point x="-18" y="-32" type="curve" smooth="yes"/>
      <point x="-29" y="-32"/>
      <point x="-32" y="-40"/>
      <point x="-32" y="-48" type="curve" smooth="yes"/>
      <point x="-32" y="-53"/>
      <point x="-29" y="-60"/>
    </contour>
  </outline>
</glyph>
<glyph name="A.cur" format="2">
  <advance width="1214"/>
  <anchor x="481" y="0" name="bottom"/>
  <anchor x="1091" y="17" name="ogonek"/>
  <anchor x="835" y="1139" name="top"/>
  <outline>
    <contour>
      <point x="484" y="-15" type="curve" smooth="yes"/>
      <point x="721" y="-15"/>
      <point x="918" y="204"/>
      <point x="1074" y="634" type="curve"/>
      <point x="1054" y="648" type="line"/>
      <point x="897" y="228"/>
      <point x="707" y="15"/>
      <point x="489" y="15" type="curve" smooth="yes"/>
      <point x="369" y="15"/>
      <point x="240" y="100"/>
      <point x="240" y="340" type="curve" smooth="yes"/>
      <point x="240" y="788"/>
      <point x="529" y="1182"/>
      <point x="857" y="1182" type="curve" smooth="yes"/>
      <point x="1012" y="1182"/>
      <point x="1115" y="1091"/>
      <point x="1142" y="921" type="curve" smooth="yes"/>
      <point x="1144" y="909"/>
      <point x="1150" y="903"/>
      <point x="1159" y="905" type="curve" smooth="yes"/>
      <point x="1169" y="907"/>
      <point x="1172" y="915"/>
      <point x="1170" y="928" type="curve" smooth="yes"/>
      <point x="1143" y="1107"/>
      <point x="1028" y="1212"/>
      <point x="861" y="1212" type="curve" smooth="yes"/>
      <point x="512" y="1212"/>
      <point x="207" y="806"/>
      <point x="207" y="340" type="curve" smooth="yes"/>
      <point x="207" y="79"/>
      <point x="353" y="-15"/>
    </contour>
    <contour>
      <point x="997" y="-15" type="curve" smooth="yes"/>
      <point x="1069" y="-15"/>
      <point x="1118" y="31"/>
      <point x="1171" y="140" type="curve" smooth="yes"/>
      <point x="1176" y="149"/>
      <point x="1179" y="158"/>
      <point x="1167" y="164" type="curve" smooth="yes"/>
      <point x="1158" y="169"/>
      <point x="1151" y="166"/>
      <point x="1146" y="156" type="curve" smooth="yes"/>
      <point x="1102" y="60"/>
      <point x="1060" y="14"/>
      <point x="1005" y="14" type="curve" smooth="yes"/>
      <point x="925" y="14"/>
      <point x="897" y="76"/>
      <point x="944" y="219" type="curve" smooth="yes"/>
      <point x="1085" y="650" type="line" smooth="yes"/>
      <point x="1089" y="662"/>
      <point x="1084" y="665"/>
      <point x="1076" y="665" type="curve" smooth="yes"/>
      <point x="1062" y="665"/>
      <point x="1059" y="663"/>
      <point x="1054" y="649" type="curve" smooth="yes"/>
      <point x="915" y="227" type="line" smooth="yes"/>
      <point x="863" y="68"/>
      <point x="900" y="-15"/>
    </contour>
  </outline>
</glyph>
<glyph name="A.cur.ini" format="2">
  <advance width="1152"/>
  <anchor x="481" y="0" name="bottom"/>
  <anchor x="1087" y="0" name="cnct"/>
  <anchor x="1091" y="17" name="ogonek"/>
  <anchor x="835" y="1139" name="top"/>
  <outline>
    <contour>
      <point x="484" y="-15" type="curve" smooth="yes"/>
      <point x="743" y="-15"/>
      <point x="919" y="207"/>
      <point x="1074" y="634" type="curve"/>
      <point x="1054" y="648" type="line"/>
      <point x="888" y="204"/>
      <point x="703" y="15"/>
      <point x="489" y="15" type="curve" smooth="yes"/>
      <point x="369" y="15"/>
      <point x="240" y="100"/>
      <point x="240" y="340" type="curve" smooth="yes"/>
      <point x="240" y="788"/>
      <point x="529" y="1182"/>
      <point x="857" y="1182" type="curve" smooth="yes"/>
      <point x="1012" y="1182"/>
      <point x="1115" y="1091"/>
      <point x="1142" y="921" type="curve" smooth="yes"/>
      <point x="1144" y="909"/>
      <point x="1150" y="903"/>
      <point x="1159" y="905" type="curve" smooth="yes"/>
      <point x="1169" y="907"/>
      <point x="1172" y="915"/>
      <point x="1170" y="928" type="curve" smooth="yes"/>
      <point x="1143" y="1107"/>
      <point x="1028" y="1212"/>
      <point x="861" y="1212" type="curve" smooth="yes"/>
      <point x="512" y="1212"/>
      <point x="207" y="806"/>
      <point x="207" y="340" type="curve" smooth="yes"/>
      <point x="207" y="79"/>
      <point x="353" y="-15"/>
    </contour>
    <contour>
      <point x="1044" y="-14" type="curve" smooth="yes"/>
      <point x="1064" y="-14"/>
      <point x="1073" y="14"/>
      <point x="1053" y="14" type="curve" smooth="yes"/>
      <point x="959" y="14"/>
      <point x="897" y="77"/>
      <point x="955" y="253" type="curve" smooth="yes"/>
      <point x="1085" y="650" type="line" smooth="yes"/>
      <point x="1089" y="662"/>
      <point x="1084" y="665"/>
      <point x="1076" y="665" type="curve" smooth="yes"/>
      <point x="1062" y="665"/>
      <point x="1059" y="663"/>
      <point x="1054" y="649" type="curve" smooth="yes"/>
      <point x="927" y="263" type="line" smooth="yes"/>
      <point x="863" y="68"/>
      <point x="937" y="-14"/>
    </contour>
  </outline>
</glyph>
<glyph name="A.cur_locl" format="2">
	<advance width="1214"/>
	<outline>
		<contour>
			<point x="484" y="-15" type="curve" smooth="yes"/>
			<point x="743" y="-15"/>
			<point x="919" y="207"/>
			<point x="1074" y="634" type="curve"/>
			<point x="1054" y="648" type="line"/>
			<point x="888" y="204"/>
			<point x="703" y="15"/>
			<point x="489" y="15" type="curve" smooth="yes"/>
			<point x="369" y="15"/>
			<point x="240" y="100"/>
			<point x="240" y="340" type="curve" smooth="yes"/>
			<point x="240" y="788"/>
			<point x="529" y="1182"/>
			<point x="857" y="1182" type="curve" smooth="yes"/>
			<point x="1019" y="1182"/>
			<point x="1121" y="1081"/>
			<point x="1144" y="914" type="curve"/>
			<point x="1162" y="967" type="line"/>
			<point x="1126" y="1119"/>
			<point x="1012" y="1212"/>
			<point x="861" y="1212" type="curve" smooth="yes"/>
			<point x="512" y="1212"/>
			<point x="207" y="806"/>
			<point x="207" y="340" type="curve" smooth="yes"/>
			<point x="207" y="79"/>
			<point x="353" y="-15"/>
		</contour>
		<contour>
			<point x="997" y="-15" type="curve" smooth="yes"/>
			<point x="1069" y="-15"/>
			<point x="1118" y="31"/>
			<point x="1171" y="140" type="curve" smooth="yes"/>
			<point x="1176" y="149"/>
			<point x="1179" y="158"/>
			<point x="1167" y="164" type="curve" smooth="yes"/>
			<point x="1158" y="169"/>
			<point x="1151" y="166"/>
			<point x="1146" y="156" type="curve" smooth="yes"/>
			<point x="1102" y="60"/>
			<point x="1060" y="14"/>
			<point x="1005" y="14" type="curve" smooth="yes"/>
			<point x="925" y="14"/>
			<point x="897" y="75"/>
			<point x="944" y="219" type="curve" smooth="yes"/>
			<point x="1264" y="1197" type="line" smooth="yes"/>
			<point x="1268" y="1208"/>
			<point x="1263" y="1212"/>
			<point x="1255" y="1212" type="curve" smooth="yes"/>
			<point x="1241" y="1212"/>
			<point x="1237" y="1208"/>
			<point x="1233" y="1196" type="curve" smooth="yes"/>
			<point x="915" y="227" type="line" smooth="yes"/>
			<point x="863" y="68"/>
			<point x="900" y="-15"/>
		</contour>
	</outline>
	<anchor name="bottom" x="481" y="0"/>
	<anchor name="ogonek" x="1091" y="17"/>
	<anchor name="top" x="835" y="1139"/>
</glyph>
<glyph name="A.cur_locl.ini" format="2">
  <advance width="1440"/>
  <anchor x="601" y="0" name="bottom"/>
  <anchor x="1359" y="0" name="cnct"/>
  <anchor x="1364" y="21" name="ogonek"/>
  <anchor x="1044" y="1424" name="top"/>
  <outline>
    <contour>
      <point x="605" y="-17" type="curve" smooth="yes"/>
      <point x="854" y="-17"/>
      <point x="1041" y="146"/>
      <point x="1203" y="464" type="curve"/>
      <point x="1159" y="329" type="line" smooth="yes"/>
      <point x="1079" y="85"/>
      <point x="1171" y="-17"/>
      <point x="1305" y="-17" type="curve" smooth="yes"/>
      <point x="1330" y="-17"/>
      <point x="1341" y="18"/>
      <point x="1316" y="18" type="curve" smooth="yes"/>
      <point x="1199" y="18"/>
      <point x="1121" y="96"/>
      <point x="1194" y="316" type="curve" smooth="yes"/>
      <point x="1580" y="1496" type="line" smooth="yes"/>
      <point x="1585" y="1510"/>
      <point x="1579" y="1515"/>
      <point x="1569" y="1515" type="curve" smooth="yes"/>
      <point x="1551" y="1515"/>
      <point x="1546" y="1510"/>
      <point x="1541" y="1495" type="curve" smooth="yes"/>
      <point x="1450" y="1218" type="line"/>
      <point x="1403" y="1403"/>
      <point x="1263" y="1515"/>
      <point x="1076" y="1515" type="curve" smooth="yes"/>
      <point x="640" y="1515"/>
      <point x="259" y="1008"/>
      <point x="259" y="425" type="curve" smooth="yes"/>
      <point x="259" y="100"/>
      <point x="441" y="-17"/>
    </contour>
    <contour>
      <point x="300" y="425" type="curve" smooth="yes"/>
      <point x="300" y="985"/>
      <point x="661" y="1478"/>
      <point x="1071" y="1478" type="curve" smooth="yes"/>
      <point x="1271" y="1478"/>
      <point x="1398" y="1355"/>
      <point x="1429" y="1151" type="curve"/>
      <point x="1310" y="791" type="line"/>
      <point x="1105" y="250"/>
      <point x="876" y="20"/>
      <point x="611" y="20" type="curve" smooth="yes"/>
      <point x="461" y="20"/>
      <point x="300" y="126"/>
    </contour>
  </outline>
</glyph>
<glyph name="A.dec" format="2">
  <advance width="1138"/>
  <anchor x="590" y="0" name="bottom"/>
  <anchor x="938" y="0" name="ogonek"/>
  <anchor x="972" y="1139" name="top"/>
  <outline>
    <contour>
      <point x="119" y="-14" type="curve" smooth="yes"/>
      <point x="340" y="-14"/>
      <point x="523" y="241"/>
      <point x="1007" y="1183" type="curve"/>
      <point x="991" y="1182" type="line"/>
      <point x="940" y="804"/>
      <point x="904" y="415"/>
      <point x="907" y="2" type="curve" smooth="yes"/>
      <point x="907" y="-11"/>
      <point x="912" y="-14"/>
      <point x="924" y="-13" type="curve" smooth="yes"/>
      <point x="936" y="-12"/>
      <point x="939" y="-7"/>
      <point x="939" y="5" type="curve" smooth="yes"/>
      <point x="936" y="421"/>
      <point x="968" y="806"/>
      <point x="1022" y="1194" type="curve" smooth="yes"/>
      <point x="1023" y="1206"/>
      <point x="1018" y="1212"/>
      <point x="1006" y="1212" type="curve" smooth="yes"/>
      <point x="994" y="1212"/>
      <point x="987" y="1205"/>
      <point x="981" y="1194" type="curve" smooth="yes"/>
      <point x="505" y="267"/>
      <point x="315" y="16"/>
      <point x="123" y="16" type="curve" smooth="yes"/>
      <point x="81" y="16"/>
      <point x="48" y="26"/>
      <point x="27" y="37" type="curve" smooth="yes"/>
      <point x="18" y="42"/>
      <point x="12" y="38"/>
      <point x="7" y="29" type="curve" smooth="yes"/>
      <point x="2" y="18"/>
      <point x="6" y="11"/>
      <point x="18" y="6" type="curve" smooth="yes"/>
      <point x="54" y="-9"/>
      <point x="89" y="-14"/>
    </contour>
    <contour>
      <point x="907" y="105" type="curve"/>
      <point x="930" y="119" type="line"/>
      <point x="920" y="393"/>
      <point x="791" y="533"/>
      <point x="547" y="533" type="curve" smooth="yes"/>
      <point x="418" y="533"/>
      <point x="324" y="459"/>
      <point x="324" y="357" type="curve" smooth="yes"/>
      <point x="324" y="261"/>
      <point x="436" y="191"/>
      <point x="591" y="191" type="curve" smooth="yes"/>
      <point x="817" y="191"/>
      <point x="960" y="262"/>
      <point x="1159" y="463" type="curve" smooth="yes"/>
      <point x="1166" y="470"/>
      <point x="1167" y="476"/>
      <point x="1158" y="484" type="curve" smooth="yes"/>
      <point x="1151" y="490"/>
      <point x="1146" y="490"/>
      <point x="1141" y="485" type="curve" smooth="yes"/>
      <point x="950" y="288"/>
      <point x="812" y="219"/>
      <point x="591" y="219" type="curve" smooth="yes"/>
      <point x="455" y="219"/>
      <point x="357" y="277"/>
      <point x="357" y="357" type="curve" smooth="yes"/>
      <point x="357" y="443"/>
      <point x="437" y="505"/>
      <point x="547" y="505" type="curve" smooth="yes"/>
      <point x="774" y="505"/>
      <point x="896" y="370"/>
    </contour>
  </outline>
</glyph>
<glyph name="A.dec2.ini" format="2">
	<advance width="1072"/>
	<outline>
		<contour>
			<point x="964" y="-14" type="curve" smooth="yes"/>
			<point x="984" y="-14"/>
			<point x="993" y="14"/>
			<point x="973" y="14" type="curve" smooth="yes"/>
			<point x="912" y="14"/>
			<point x="882" y="52"/>
			<point x="897" y="186" type="curve" smooth="yes"/>
			<point x="934" y="509"/>
			<point x="1006" y="853"/>
			<point x="1091" y="1200" type="curve"/>
			<point x="1059" y="1196" type="line"/>
			<point x="971" y="841"/>
			<point x="902" y="508"/>
			<point x="866" y="186" type="curve" smooth="yes"/>
			<point x="851" y="53"/>
			<point x="881" y="-14"/>
		</contour>
		<contour>
			<point x="267" y="-14" type="curve" smooth="yes"/>
			<point x="632" y="-14"/>
			<point x="654" y="1063"/>
			<point x="1093" y="1191" type="curve" smooth="yes"/>
			<point x="1100" y="1193"/>
			<point x="1102" y="1199"/>
			<point x="1099" y="1210" type="curve" smooth="yes"/>
			<point x="1097" y="1216"/>
			<point x="1093" y="1219"/>
			<point x="1087" y="1218" type="curve" smooth="yes"/>
			<point x="640" y="1100"/>
			<point x="588" y="16"/>
			<point x="275" y="16" type="curve" smooth="yes"/>
			<point x="197" y="16"/>
			<point x="141" y="87"/>
			<point x="141" y="184" type="curve" smooth="yes"/>
			<point x="141" y="423"/>
			<point x="344" y="544"/>
			<point x="743" y="544" type="curve" smooth="yes"/>
			<point x="1040" y="544" type="line" smooth="yes"/>
			<point x="1049" y="544"/>
			<point x="1055" y="548"/>
			<point x="1057" y="557" type="curve" smooth="yes"/>
			<point x="1059" y="568"/>
			<point x="1056" y="573"/>
			<point x="1049" y="573" type="curve" smooth="yes"/>
			<point x="749" y="573" type="line" smooth="yes"/>
			<point x="324" y="573"/>
			<point x="108" y="441"/>
			<point x="108" y="181" type="curve" smooth="yes"/>
			<point x="108" y="68"/>
			<point x="175" y="-14"/>
		</contour>
	</outline>
	<anchor name="bottom" x="660" y="0"/>
	<anchor name="cnct" x="1007" y="0"/>
	<anchor name="ogonek" x="992" y="-3"/>
	<anchor name="top" x="942" y="1139"/>
</glyph>
<glyph name="A.dec_locl" format="2">
  <advance width="1258"/>
  <anchor x="590" y="0" name="bottom"/>
  <anchor x="1094" y="0" name="ogonek"/>
  <anchor x="972" y="1139" name="top"/>
  <outline>
    <contour>
      <point x="119" y="-14" type="curve" smooth="yes"/>
      <point x="340" y="-14"/>
      <point x="523" y="241"/>
      <point x="1007" y="1183" type="curve"/>
      <point x="991" y="1182" type="line"/>
      <point x="948" y="867"/>
      <point x="909" y="544"/>
      <point x="909" y="226" type="curve" smooth="yes"/>
      <point x="909" y="57"/>
      <point x="944" y="-14"/>
      <point x="1032" y="-14" type="curve" smooth="yes"/>
      <point x="1132" y="-14"/>
      <point x="1224" y="95"/>
      <point x="1294" y="312" type="curve" smooth="yes"/>
      <point x="1297" y="320"/>
      <point x="1292" y="325"/>
      <point x="1282" y="328" type="curve" smooth="yes"/>
      <point x="1273" y="331"/>
      <point x="1269" y="329"/>
      <point x="1266" y="321" type="curve" smooth="yes"/>
      <point x="1197" y="117"/>
      <point x="1114" y="15"/>
      <point x="1032" y="15" type="curve" smooth="yes"/>
      <point x="966" y="15"/>
      <point x="940" y="77"/>
      <point x="940" y="225" type="curve" smooth="yes"/>
      <point x="940" y="546"/>
      <point x="977" y="869"/>
      <point x="1022" y="1194" type="curve" smooth="yes"/>
      <point x="1023" y="1206"/>
      <point x="1018" y="1212"/>
      <point x="1006" y="1212" type="curve" smooth="yes"/>
      <point x="994" y="1212"/>
      <point x="987" y="1205"/>
      <point x="981" y="1194" type="curve" smooth="yes"/>
      <point x="505" y="267"/>
      <point x="315" y="16"/>
      <point x="123" y="16" type="curve" smooth="yes"/>
      <point x="81" y="16"/>
      <point x="48" y="26"/>
      <point x="27" y="37" type="curve" smooth="yes"/>
      <point x="18" y="42"/>
      <point x="12" y="38"/>
      <point x="7" y="29" type="curve" smooth="yes"/>
      <point x="2" y="18"/>
      <point x="6" y="11"/>
      <point x="18" y="6" type="curve" smooth="yes"/>
      <point x="54" y="-9"/>
      <point x="89" y="-14"/>
    </contour>
    <contour>
      <point x="555" y="390" type="line"/>
      <point x="924" y="390" type="line"/>
      <point x="932" y="416" type="line"/>
      <point x="563" y="416" type="line"/>
    </contour>
  </outline>
</glyph>
<glyph name="A.dec_locl.ini" format="2">
  <advance width="1423"/>
  <anchor x="738" y="0" name="bottom"/>
  <anchor x="1341" y="0" name="cnct"/>
  <anchor x="1285" y="0" name="ogonek"/>
  <anchor x="1215" y="1424" name="top"/>
  <outline>
    <contour>
      <point x="149" y="-17" type="curve" smooth="yes"/>
      <point x="425" y="-17"/>
      <point x="654" y="301"/>
      <point x="1259" y="1479" type="curve"/>
      <point x="1239" y="1478" type="line"/>
      <point x="1185" y="1084"/>
      <point x="1136" y="680"/>
      <point x="1136" y="245" type="curve" smooth="yes"/>
      <point x="1136" y="60"/>
      <point x="1181" y="-17"/>
      <point x="1288" y="-17" type="curve" smooth="yes"/>
      <point x="1313" y="-17"/>
      <point x="1324" y="18"/>
      <point x="1299" y="18" type="curve" smooth="yes"/>
      <point x="1211" y="18"/>
      <point x="1175" y="70"/>
      <point x="1175" y="244" type="curve" smooth="yes"/>
      <point x="1175" y="683"/>
      <point x="1221" y="1086"/>
      <point x="1278" y="1493" type="curve" smooth="yes"/>
      <point x="1279" y="1508"/>
      <point x="1273" y="1515"/>
      <point x="1258" y="1515" type="curve" smooth="yes"/>
      <point x="1243" y="1515"/>
      <point x="1234" y="1506"/>
      <point x="1226" y="1493" type="curve" smooth="yes"/>
      <point x="631" y="334"/>
      <point x="394" y="20"/>
      <point x="154" y="20" type="curve" smooth="yes"/>
      <point x="101" y="20"/>
      <point x="60" y="33"/>
      <point x="34" y="46" type="curve" smooth="yes"/>
      <point x="23" y="53"/>
      <point x="15" y="48"/>
      <point x="9" y="36" type="curve" smooth="yes"/>
      <point x="3" y="23"/>
      <point x="8" y="14"/>
      <point x="23" y="8" type="curve" smooth="yes"/>
      <point x="68" y="-11"/>
      <point x="111" y="-17"/>
    </contour>
    <contour>
      <point x="686" y="488" type="line"/>
      <point x="1163" y="488" type="line"/>
      <point x="1173" y="520" type="line"/>
      <point x="696" y="520" type="line"/>
    </contour>
  </outline>
</glyph>
<glyph name="AE.cur" format="2">
  <advance width="1610"/>
  <anchor x="1194" y="1139" name="top"/>
  <outline>
    <contour>
      <point x="93" y="-14" type="curve" smooth="yes"/>
      <point x="256" y="-14"/>
      <point x="355" y="147"/>
      <point x="1061" y="1167" type="curve"/>
      <point x="1054" y="1172" type="line"/>
      <point x="991" y="907"/>
      <point x="928" y="572"/>
      <point x="905" y="288" type="curve" smooth="yes"/>
      <point x="903" y="266"/>
      <point x="902" y="261"/>
      <point x="918" y="257" type="curve" smooth="yes"/>
      <point x="930" y="254"/>
      <point x="931" y="259"/>
      <point x="933" y="278" type="curve" smooth="yes"/>
      <point x="959" y="572"/>
      <point x="1024" y="929"/>
      <point x="1089" y="1193" type="curve" smooth="yes"/>
      <point x="1092" y="1205"/>
      <point x="1085" y="1212"/>
      <point x="1074" y="1212" type="curve" smooth="yes"/>
      <point x="1060" y="1212"/>
      <point x="1053" y="1205"/>
      <point x="1039" y="1185" type="curve" smooth="yes"/>
      <point x="341" y="183"/>
      <point x="232" y="16"/>
      <point x="96" y="16" type="curve" smooth="yes"/>
      <point x="73" y="16"/>
      <point x="49" y="20"/>
      <point x="25" y="30" type="curve" smooth="yes"/>
      <point x="13" y="35"/>
      <point x="8" y="35"/>
      <point x="2" y="24" type="curve" smooth="yes"/>
      <point x="-5" y="10"/>
      <point x="2" y="4"/>
      <point x="15" y="-1" type="curve" smooth="yes"/>
      <point x="37" y="-9"/>
      <point x="61" y="-14"/>
    </contour>
    <contour>
      <point x="509" y="400" type="line"/>
      <point x="928" y="400" type="line"/>
      <point x="933" y="426" type="line"/>
      <point x="528" y="426" type="line"/>
    </contour>
    <contour>
      <point x="1163" y="-15" type="curve" smooth="yes"/>
      <point x="1294" y="-15"/>
      <point x="1423" y="42"/>
      <point x="1534" y="163" type="curve" smooth="yes"/>
      <point x="1547" y="178"/>
      <point x="1552" y="185"/>
      <point x="1545" y="194" type="curve" smooth="yes"/>
      <point x="1538" y="204"/>
      <point x="1529" y="202"/>
      <point x="1519" y="190" type="curve" smooth="yes"/>
      <point x="1414" y="72"/>
      <point x="1291" y="15"/>
      <point x="1171" y="15" type="curve" smooth="yes"/>
      <point x="1028" y="15"/>
      <point x="934" y="100"/>
      <point x="934" y="230" type="curve" smooth="yes"/>
      <point x="934" y="438"/>
      <point x="1115" y="614"/>
      <point x="1322" y="614" type="curve" smooth="yes"/>
      <point x="1468" y="614" type="line" smooth="yes"/>
      <point x="1478" y="614"/>
      <point x="1482" y="617"/>
      <point x="1485" y="628" type="curve" smooth="yes"/>
      <point x="1487" y="637"/>
      <point x="1487" y="642"/>
      <point x="1476" y="642" type="curve" smooth="yes"/>
      <point x="1332" y="642" type="line" smooth="yes"/>
      <point x="1214" y="642"/>
      <point x="1137" y="719"/>
      <point x="1137" y="836" type="curve" smooth="yes"/>
      <point x="1137" y="1009"/>
      <point x="1265" y="1182"/>
      <point x="1483" y="1182" type="curve" smooth="yes"/>
      <point x="1591" y="1182"/>
      <point x="1671" y="1139"/>
      <point x="1717" y="1067" type="curve" smooth="yes"/>
      <point x="1724" y="1057"/>
      <point x="1729" y="1056"/>
      <point x="1736" y="1061" type="curve" smooth="yes"/>
      <point x="1744" y="1067"/>
      <point x="1746" y="1074"/>
      <point x="1739" y="1085" type="curve" smooth="yes"/>
      <point x="1690" y="1165"/>
      <point x="1598" y="1212"/>
      <point x="1492" y="1212" type="curve" smooth="yes"/>
      <point x="1232" y="1212"/>
      <point x="1104" y="1006"/>
      <point x="1104" y="833" type="curve" smooth="yes"/>
      <point x="1104" y="740"/>
      <point x="1155" y="660"/>
      <point x="1232" y="631" type="curve"/>
      <point x="1041" y="589"/>
      <point x="901" y="415"/>
      <point x="901" y="228" type="curve" smooth="yes"/>
      <point x="901" y="81"/>
      <point x="1005" y="-15"/>
    </contour>
  </outline>
</glyph>
<glyph name="AE.cur.locl" format="2">
  <advance width="1860"/>
  <anchor x="1400" y="1424" name="top"/>
  <outline>
    <contour>
      <point x="41" y="-17" type="curve" smooth="yes"/>
      <point x="207" y="-17"/>
      <point x="368" y="107"/>
      <point x="849" y="726" type="curve"/>
      <point x="1160" y="726" type="line"/>
      <point x="931" y="15" type="line" smooth="yes"/>
      <point x="928" y="4"/>
      <point x="934" y="0"/>
      <point x="946" y="0" type="curve" smooth="yes"/>
      <point x="1343" y="0" type="line" smooth="yes"/>
      <point x="1609" y="0"/>
      <point x="1734" y="113"/>
      <point x="1833" y="298" type="curve" smooth="yes"/>
      <point x="1839" y="310"/>
      <point x="1838" y="316"/>
      <point x="1825" y="323" type="curve" smooth="yes"/>
      <point x="1813" y="329"/>
      <point x="1806" y="323"/>
      <point x="1803" y="315" type="curve"/>
      <point x="1708" y="135"/>
      <point x="1590" y="35"/>
      <point x="1351" y="35" type="curve" smooth="yes"/>
      <point x="976" y="35" type="line"/>
      <point x="1199" y="726" type="line"/>
      <point x="1559" y="726" type="line" smooth="yes"/>
      <point x="1571" y="726"/>
      <point x="1576" y="730"/>
      <point x="1580" y="744" type="curve" smooth="yes"/>
      <point x="1583" y="755"/>
      <point x="1583" y="761"/>
      <point x="1569" y="761" type="curve" smooth="yes"/>
      <point x="1210" y="761" type="line"/>
      <point x="1433" y="1453" type="line"/>
      <point x="1933" y="1453" type="line" smooth="yes"/>
      <point x="1938" y="1453"/>
      <point x="1944" y="1458"/>
      <point x="1948" y="1468" type="curve" smooth="yes"/>
      <point x="1954" y="1484"/>
      <point x="1946" y="1488"/>
      <point x="1944" y="1488" type="curve" smooth="yes"/>
      <point x="1410" y="1488" type="line" smooth="yes"/>
      <point x="1386" y="1488"/>
      <point x="1378" y="1484"/>
      <point x="1366" y="1470" type="curve"/>
      <point x="428" y="196"/>
      <point x="220" y="20"/>
      <point x="43" y="20" type="curve" smooth="yes"/>
      <point x="14" y="20"/>
      <point x="-11" y="29"/>
      <point x="-32" y="39" type="curve" smooth="yes"/>
      <point x="-45" y="44"/>
      <point x="-54" y="40"/>
      <point x="-60" y="26" type="curve" smooth="yes"/>
      <point x="-66" y="14"/>
      <point x="-62" y="5"/>
      <point x="-49" y="-1" type="curve" smooth="yes"/>
      <point x="-22" y="-12"/>
      <point x="3" y="-17"/>
    </contour>
    <contour>
      <point x="876" y="761" type="line"/>
      <point x="1019" y="946"/>
      <point x="1189" y="1173"/>
      <point x="1394" y="1452" type="curve"/>
      <point x="1171" y="761" type="line"/>
    </contour>
  </outline>
</glyph>
<glyph name="AE.cur.locl.ini" format="2">
  <advance width="1660"/>
  <anchor x="1400" y="1424" name="top"/>
  <outline>
    <contour>
      <point x="41" y="-17" type="curve" smooth="yes"/>
      <point x="258" y="-17"/>
      <point x="468" y="195"/>
      <point x="1395" y="1453" type="curve"/>
      <point x="1418" y="1453" type="line"/>
      <point x="1425" y="1488" type="line"/>
      <point x="1410" y="1488" type="line"/>
      <point x="1386" y="1488"/>
      <point x="1378" y="1484"/>
      <point x="1366" y="1470" type="curve" smooth="yes"/>
      <point x="428" y="196"/>
      <point x="220" y="20"/>
      <point x="43" y="20" type="curve" smooth="yes"/>
      <point x="14" y="20"/>
      <point x="-11" y="29"/>
      <point x="-32" y="39" type="curve" smooth="yes"/>
      <point x="-45" y="44"/>
      <point x="-54" y="40"/>
      <point x="-60" y="26" type="curve" smooth="yes"/>
      <point x="-66" y="14"/>
      <point x="-62" y="5"/>
      <point x="-49" y="-1" type="curve" smooth="yes"/>
      <point x="-22" y="-12"/>
      <point x="3" y="-17"/>
    </contour>
    <contour>
      <point x="1175" y="726" type="line"/>
      <point x="1188" y="761" type="line"/>
      <point x="858" y="761" type="line"/>
      <point x="833" y="726" type="line"/>
    </contour>
    <contour>
      <point x="1343" y="0" type="line"/>
      <point x="1363" y="0"/>
      <point x="1371" y="35"/>
      <point x="1351" y="35" type="curve" smooth="yes"/>
      <point x="976" y="35" type="line"/>
      <point x="1199" y="726" type="line"/>
      <point x="1559" y="726" type="line" smooth="yes"/>
      <point x="1571" y="726"/>
      <point x="1576" y="730"/>
      <point x="1580" y="744" type="curve" smooth="yes"/>
      <point x="1583" y="755"/>
      <point x="1583" y="761"/>
      <point x="1569" y="761" type="curve" smooth="yes"/>
      <point x="1210" y="761" type="line"/>
      <point x="1433" y="1453" type="line"/>
      <point x="1933" y="1453" type="line" smooth="yes"/>
      <point x="1938" y="1453"/>
      <point x="1944" y="1458"/>
      <point x="1948" y="1468" type="curve" smooth="yes"/>
      <point x="1954" y="1484"/>
      <point x="1946" y="1488"/>
      <point x="1944" y="1488" type="curve" smooth="yes"/>
      <point x="1425" y="1488" type="line" smooth="yes"/>
      <point x="1404" y="1488"/>
      <point x="1405" y="1483"/>
      <point x="1401" y="1473" type="curve" smooth="yes"/>
      <point x="931" y="15" type="line" smooth="yes"/>
      <point x="928" y="4"/>
      <point x="934" y="0"/>
      <point x="946" y="0" type="curve" smooth="yes"/>
    </contour>
  </outline>
</glyph>
<glyph name="B.cur" format="2">
	<advance width="1108"/>
	<outline>
		<contour>
			<point x="624" y="-15" type="curve" smooth="yes"/>
			<point x="881" y="-15"/>
			<point x="1063" y="164"/>
			<point x="1063" y="411" type="curve" smooth="yes"/>
			<point x="1063" y="534"/>
			<point x="980" y="628"/>
			<point x="853" y="649" type="curve"/>
			<point x="854" y="653" type="line"/>
			<point x="1038" y="694"/>
			<point x="1172" y="836"/>
			<point x="1172" y="991" type="curve" smooth="yes"/>
			<point x="1172" y="1125"/>
			<point x="1059" y="1212"/>
			<point x="850" y="1212" type="curve" smooth="yes"/>
			<point x="628" y="1212"/>
			<point x="462" y="1145"/>
			<point x="339" y="1044" type="curve" smooth="yes"/>
			<point x="333" y="1039"/>
			<point x="331" y="1032"/>
			<point x="337" y="1025" type="curve" smooth="yes"/>
			<point x="342" y="1017"/>
			<point x="351" y="1015"/>
			<point x="356" y="1020" type="curve" smooth="yes"/>
			<point x="466" y="1114"/>
			<point x="630" y="1182"/>
			<point x="842" y="1182" type="curve" smooth="yes"/>
			<point x="1025" y="1182"/>
			<point x="1139" y="1117"/>
			<point x="1139" y="991" type="curve" smooth="yes"/>
			<point x="1139" y="835"/>
			<point x="998" y="701"/>
			<point x="804" y="671" type="curve"/>
			<point x="790" y="677"/>
			<point x="771" y="680"/>
			<point x="752" y="680" type="curve" smooth="yes"/>
			<point x="716" y="680"/>
			<point x="680" y="670"/>
			<point x="680" y="640" type="curve" smooth="yes"/>
			<point x="680" y="622"/>
			<point x="697" y="615"/>
			<point x="719" y="615" type="curve" smooth="yes"/>
			<point x="743" y="615"/>
			<point x="773" y="624"/>
			<point x="795" y="634" type="curve"/>
			<point x="937" y="622"/>
			<point x="1030" y="534"/>
			<point x="1030" y="411" type="curve" smooth="yes"/>
			<point x="1030" y="181"/>
			<point x="860" y="15"/>
			<point x="626" y="15" type="curve" smooth="yes"/>
			<point x="553" y="15"/>
			<point x="486" y="36"/>
			<point x="435" y="75" type="curve" smooth="yes"/>
			<point x="427" y="81"/>
			<point x="420" y="81"/>
			<point x="414" y="71" type="curve" smooth="yes"/>
			<point x="410" y="63"/>
			<point x="411" y="57"/>
			<point x="418" y="51" type="curve" smooth="yes"/>
			<point x="469" y="8"/>
			<point x="541" y="-15"/>
		</contour>
		<contour>
			<point x="172" y="-15" type="curve" smooth="yes"/>
			<point x="268" y="-15"/>
			<point x="334" y="51"/>
			<point x="379" y="189" type="curve" smooth="yes"/>
			<point x="656" y="1049" type="line" smooth="yes"/>
			<point x="659" y="1058"/>
			<point x="654" y="1061"/>
			<point x="644" y="1061" type="curve" smooth="yes"/>
			<point x="631" y="1061"/>
			<point x="628" y="1058"/>
			<point x="625" y="1049" type="curve" smooth="yes"/>
			<point x="351" y="200" type="line" smooth="yes"/>
			<point x="310" y="74"/>
			<point x="253" y="14"/>
			<point x="178" y="14" type="curve" smooth="yes"/>
			<point x="134" y="14"/>
			<point x="79" y="24"/>
			<point x="50" y="106" type="curve" smooth="yes"/>
			<point x="47" y="114"/>
			<point x="42" y="115"/>
			<point x="34" y="112" type="curve" smooth="yes"/>
			<point x="25" y="108"/>
			<point x="21" y="101"/>
			<point x="24" y="93" type="curve" smooth="yes"/>
			<point x="52" y="15"/>
			<point x="104" y="-15"/>
		</contour>
	</outline>
	<anchor name="bottom" x="616" y="0"/>
	<anchor name="center" x="410" y="350"/>
	<anchor name="top" x="879" y="1139"/>
	<guideline x="222" y="104" angle="72.99"/>
</glyph>
<glyph name="B.dec" format="2">
  <advance width="1138"/>
  <anchor x="616" y="0" name="bottom"/>
  <anchor x="360" y="350" name="center"/>
  <anchor x="889" y="1139" name="top"/>
  <outline>
    <contour>
      <point x="649" y="-10" type="curve" smooth="yes"/>
      <point x="887" y="-10"/>
      <point x="1088" y="178"/>
      <point x="1088" y="414" type="curve" smooth="yes"/>
      <point x="1088" y="539"/>
      <point x="1009" y="627"/>
      <point x="880" y="648" type="curve"/>
      <point x="881" y="650" type="line"/>
      <point x="1087" y="708"/>
      <point x="1199" y="836"/>
      <point x="1199" y="1007" type="curve" smooth="yes"/>
      <point x="1199" y="1134"/>
      <point x="1119" y="1212"/>
      <point x="988" y="1212" type="curve" smooth="yes"/>
      <point x="771" y="1212"/>
      <point x="561" y="1003"/>
      <point x="452" y="661" type="curve"/>
      <point x="475" y="661" type="line"/>
      <point x="573" y="963"/>
      <point x="785" y="1182"/>
      <point x="985" y="1182" type="curve" smooth="yes"/>
      <point x="1098" y="1182"/>
      <point x="1167" y="1116"/>
      <point x="1167" y="1007" type="curve" smooth="yes"/>
      <point x="1167" y="797"/>
      <point x="975" y="693"/>
      <point x="832" y="671" type="curve"/>
      <point x="821" y="675"/>
      <point x="803" y="680"/>
      <point x="777" y="680" type="curve" smooth="yes"/>
      <point x="746" y="680"/>
      <point x="709" y="666"/>
      <point x="709" y="634" type="curve" smooth="yes"/>
      <point x="709" y="619"/>
      <point x="722" y="609"/>
      <point x="743" y="609" type="curve" smooth="yes"/>
      <point x="763" y="609"/>
      <point x="795" y="617"/>
      <point x="819" y="628" type="curve"/>
      <point x="975" y="614"/>
      <point x="1055" y="542"/>
      <point x="1055" y="414" type="curve" smooth="yes"/>
      <point x="1055" y="196"/>
      <point x="868" y="20"/>
      <point x="651" y="20" type="curve" smooth="yes"/>
      <point x="583" y="20"/>
      <point x="523" y="39"/>
      <point x="472" y="77" type="curve" smooth="yes"/>
      <point x="465" y="83"/>
      <point x="458" y="82"/>
      <point x="452" y="75" type="curve" smooth="yes"/>
      <point x="446" y="67"/>
      <point x="447" y="60"/>
      <point x="455" y="53" type="curve" smooth="yes"/>
      <point x="502" y="14"/>
      <point x="575" y="-10"/>
    </contour>
    <contour>
      <point x="243" y="-11" type="curve" smooth="yes"/>
      <point x="256" y="-11"/>
      <point x="259" y="-8"/>
      <point x="262" y="1" type="curve" smooth="yes"/>
      <point x="649" y="1200" type="line" smooth="yes"/>
      <point x="652" y="1209"/>
      <point x="647" y="1212"/>
      <point x="637" y="1212" type="curve" smooth="yes"/>
      <point x="623" y="1212"/>
      <point x="620" y="1206"/>
      <point x="617" y="1200" type="curve" smooth="yes"/>
      <point x="541" y="1035"/>
      <point x="426" y="919"/>
      <point x="276" y="856" type="curve" smooth="yes"/>
      <point x="268" y="853"/>
      <point x="265" y="846"/>
      <point x="267" y="839" type="curve" smooth="yes"/>
      <point x="270" y="829"/>
      <point x="276" y="825"/>
      <point x="285" y="829" type="curve" smooth="yes"/>
      <point x="440" y="899"/>
      <point x="556" y="1012"/>
      <point x="625" y="1164" type="curve"/>
      <point x="618" y="1176" type="line"/>
      <point x="607" y="1165" type="line"/>
      <point x="231" y="1" type="line" smooth="yes"/>
      <point x="228" y="-8"/>
      <point x="233" y="-11"/>
    </contour>
  </outline>
</glyph>
<glyph name="C.cur" format="2">
	<advance width="960"/>
	<outline>
		<contour>
			<point x="509" y="-15" type="curve" smooth="yes"/>
			<point x="647" y="-15"/>
			<point x="786" y="57"/>
			<point x="900" y="178" type="curve" smooth="yes"/>
			<point x="907" y="186"/>
			<point x="908" y="193"/>
			<point x="900" y="201" type="curve" smooth="yes"/>
			<point x="891" y="210"/>
			<point x="885" y="204"/>
			<point x="879" y="198" type="curve" smooth="yes"/>
			<point x="772" y="83"/>
			<point x="641" y="15"/>
			<point x="509" y="15" type="curve" smooth="yes"/>
			<point x="336" y="15"/>
			<point x="240" y="135"/>
			<point x="240" y="337" type="curve" smooth="yes"/>
			<point x="240" y="745"/>
			<point x="497" y="1182"/>
			<point x="869" y="1182" type="curve" smooth="yes"/>
			<point x="966" y="1182"/>
			<point x="1035" y="1144"/>
			<point x="1099" y="1056" type="curve" smooth="yes"/>
			<point x="1104" y="1049"/>
			<point x="1111" y="1048"/>
			<point x="1118" y="1052" type="curve" smooth="yes"/>
			<point x="1126" y="1057"/>
			<point x="1127" y="1062"/>
			<point x="1123" y="1069" type="curve" smooth="yes"/>
			<point x="1062" y="1166"/>
			<point x="979" y="1212"/>
			<point x="868" y="1212" type="curve" smooth="yes"/>
			<point x="480" y="1212"/>
			<point x="207" y="769"/>
			<point x="207" y="341" type="curve" smooth="yes"/>
			<point x="207" y="117"/>
			<point x="315" y="-15"/>
		</contour>
	</outline>
	<anchor name="bottom" x="477" y="0"/>
	<anchor name="top" x="831" y="1139"/>
</glyph>
